<svg xmlns="http://www.w3.org/2000/svg" fill-rule="evenodd" stroke-linejoin="round" stroke-miterlimit="2" clip-rule="evenodd" viewBox="0 0 32 32" id="cap">
  <path fill="#1e1e1e" d="M15.519,19.931c-0.251,0.267 -0.336,0.651 -0.22,1c0.116,0.348 0.413,0.605 0.775,0.669c-0,-0 4.411,0.781 7.695,1.362c2.517,0.446 5.049,-0.691 6.39,-2.866l0.533,-0.864c0.318,-0.517 0.385,-1.152 0.18,-1.724c-0.205,-0.572 -0.659,-1.02 -1.234,-1.217c-2.371,-0.814 -7.48,-2.567 -7.48,-2.567c-0.372,-0.127 -0.784,-0.025 -1.054,0.262l-5.585,5.945Z" class="color379237 svgShape"></path>
  <path fill="#f5d593" d="M1.421,22.58c0.152,0.804 0.627,1.511 1.315,1.954c0.688,0.444 1.528,0.585 2.324,0.392c2.234,-0.528 5.961,-1.435 8.751,-2.114c2.594,-0.632 4.91,-2.094 6.595,-4.164c1.272,-1.563 2.6,-3.194 2.716,-3.336c0.294,-0.362 0.305,-0.877 0.026,-1.251l-2.505,-3.347c-2.163,-2.891 -5.8,-4.272 -9.336,-3.547c-3.762,0.717 -6.665,2.265 -8.42,4.769c-1.746,2.49 -2.387,5.965 -1.466,10.644Z" class="color82cd47 svgShape"></path>
  <path fill="#9ea3fa" d="M8.499,7.916c-2.414,0.857 -4.323,2.18 -5.612,4.02c-1.746,2.49 -2.387,5.965 -1.466,10.644c0.152,0.804 0.627,1.511 1.315,1.954c0.688,0.444 1.528,0.585 2.324,0.392c2.234,-0.528 5.961,-1.435 8.751,-2.114c1.96,-0.478 3.762,-1.429 5.253,-2.76c-3.171,-8.355 -8.25,-11.227 -10.565,-12.136Z" class="color54b435 svgShape"></path>
</svg>
