<svg xmlns="http://www.w3.org/2000/svg" enable-background="new 0 0 512 512" viewBox="0 0 512 512" id="DeliveryTruck">
  <path fill="#f0719e" d="M335.077,145.857h64.712c4.186,0,8.182,1.75,11.022,4.826l62.847,68.083
					c2.558,2.771,3.978,6.403,3.978,10.174v131.353H335.077V145.857z" class="colore74c3c svgShape"></path>
  <path fill="#9ea3fa" d="M410.812,150.683c-2.84-3.076-6.836-4.826-11.022-4.826h-31.615v73.083c0,5.523,4.477,10,10,10
					h99.462c0-3.771-1.42-7.403-3.978-10.174L410.812,150.683z" class="color3498db svgShape"></path>
  <path fill="#87ddfd" d="M477.637,269.541v34.24H448.83c-2.761,0-5-2.239-5-5v-24.24c0-2.762,2.239-5,5-5H477.637z" class="colorf39c12 svgShape"></path>
  <path fill="#f5d593" d="M494.5,384.382h-477c-5.523,0-10-4.477-10-10v-20c0-5.523,4.477-10,10-10h477
					c5.523,0,10,4.477,10,10v20C504.5,379.905,500.023,384.382,494.5,384.382z" class="colorffffff svgShape"></path>
  <path fill="#87ddfd" d="M320.077,100.08H47.761c-8.284,0-15,6.716-15,15v229.302h302.316V115.08
					C335.077,106.796,328.362,100.08,320.077,100.08z" class="colorf39c12 svgShape"></path>
  <circle cx="114.565" cy="364.382" r="47.538" fill="#333333" class="color333333 svgShape"></circle>
  <circle cx="397.435" cy="364.382" r="47.538" fill="#333333" class="color333333 svgShape"></circle>
  <circle cx="114.565" cy="364.382" r="20" fill="#f5d593" class="colorffffff svgShape"></circle>
  <circle cx="397.435" cy="364.382" r="20" fill="#f5d593" class="colorffffff svgShape"></circle>
  <path fill="#f5d593" d="M296.546 396.16h-82.365c-5.523 0-10-4.477-10-10v-43.557c0-5.523 4.477-10 10-10h82.365c5.523 0 10 4.477 10 10v43.557C306.546 391.683 302.069 396.16 296.546 396.16zM216.056 167.836l-12.364 6.8c-1.5.825-3.318.825-4.819 0l-12.546-6.899c-1.5-.825-3.319-.825-4.819 0l-12.543 6.899c-1.5.825-3.319.825-4.819 0l-12.363-6.799c-1.598-.879-2.591-2.558-2.591-4.381V100.08h69.454v63.375C218.646 165.278 217.653 166.957 216.056 167.836z" class="colorffffff svgShape"></path>
  <path d="M114.565 336.882c-15.163 0-27.5 12.336-27.5 27.5s12.337 27.5 27.5 27.5 27.5-12.336 27.5-27.5S129.729 336.882 114.565 336.882zM114.565 376.882c-6.893 0-12.5-5.607-12.5-12.5s5.607-12.5 12.5-12.5 12.5 5.607 12.5 12.5S121.458 376.882 114.565 376.882zM397.436 336.882c-15.163 0-27.5 12.336-27.5 27.5s12.337 27.5 27.5 27.5 27.5-12.336 27.5-27.5S412.599 336.882 397.436 336.882zM397.436 376.882c-6.893 0-12.5-5.607-12.5-12.5s5.607-12.5 12.5-12.5 12.5 5.607 12.5 12.5S404.328 376.882 397.436 376.882z" fill="#000000" class="color000000 svgShape"></path>
  <path d="M494.5,336.882h-9.363V228.94c0-5.673-2.119-11.093-5.967-15.262l-62.847-68.082c-4.246-4.601-10.271-7.239-16.533-7.239
				h-57.212V115.08c0-12.407-10.094-22.5-22.5-22.5H47.762c-12.406,0-22.5,10.093-22.5,22.5v48.311c0,4.142,3.357,7.5,7.5,7.5
				s7.5-3.358,7.5-7.5V115.08c0-4.136,3.364-7.5,7.5-7.5h93.931v55.875c0,4.558,2.481,8.755,6.477,10.953l12.363,6.8
				c3.772,2.075,8.276,2.073,12.047,0l11.339-6.236l11.34,6.236c1.887,1.038,3.955,1.557,6.024,1.557s4.138-0.519,6.023-1.556
				l12.365-6.8c3.994-2.197,6.476-6.394,6.476-10.953V107.58h93.932c4.136,0,7.5,3.364,7.5,7.5v221.802h-14.512
				c-2.378-6.844-8.876-11.779-16.52-11.779h-82.365c-7.644,0-14.142,4.934-16.52,11.779H162.21
				c-9.529-16.445-27.31-27.539-47.645-27.539s-38.116,11.094-47.645,27.539H40.262V196.077c0-4.142-3.357-7.5-7.5-7.5
				s-7.5,3.358-7.5,7.5v140.805H17.5c-9.649,0-17.5,7.851-17.5,17.5v20c0,9.649,7.851,17.5,17.5,17.5h49.421
				c9.529,16.445,27.31,27.538,47.645,27.538s38.116-11.094,47.645-27.538h35.451c2.378,6.844,8.876,11.778,16.52,11.778h82.365
				c7.644,0,14.142-4.934,16.52-11.778h36.724c9.529,16.445,27.31,27.538,47.645,27.538c20.334,0,38.116-11.094,47.645-27.538h49.42
				c9.649,0,17.5-7.851,17.5-17.5v-20C512,344.733,504.149,336.882,494.5,336.882z M211.146,161.977l-9.864,5.425l-11.34-6.236
				c-3.771-2.075-8.275-2.076-12.049,0l-11.339,6.236l-9.862-5.424V107.58h54.454V161.977z M470.137,296.281H451.33v-19.24h18.807
				V296.281z M342.578,153.357h18.098v65.583c0,9.649,7.851,17.5,17.5,17.5h20.353c4.143,0,7.5-3.358,7.5-7.5s-3.357-7.5-7.5-7.5
				h-20.353c-1.379,0-2.5-1.122-2.5-2.5v-65.583h24.114c2.087,0,4.095,0.879,5.511,2.413l60.62,65.67h-34.706
				c-4.143,0-7.5,3.358-7.5,7.5s3.357,7.5,7.5,7.5h38.922v25.601H448.83c-6.893,0-12.5,5.607-12.5,12.5v24.24
				c0,6.893,5.607,12.5,12.5,12.5h21.307v25.601H445.08c-9.529-16.445-27.31-27.539-47.645-27.539
				c-20.335,0-38.117,11.094-47.646,27.539h-7.212V153.357z M17.5,376.882c-1.379,0-2.5-1.122-2.5-2.5v-20
				c0-1.378,1.121-2.5,2.5-2.5h43.477c-0.937,4.019-1.449,8.2-1.449,12.5s0.512,8.481,1.449,12.5H17.5z M114.565,404.42
				c-22.077,0-40.038-17.961-40.038-40.038s17.961-40.039,40.038-40.039s40.038,17.961,40.038,40.039S136.643,404.42,114.565,404.42
				z M168.154,351.882h28.526v25h-28.526c0.937-4.019,1.449-8.2,1.449-12.5S169.092,355.901,168.154,351.882z M299.046,386.16
				c0,1.378-1.121,2.5-2.5,2.5h-82.365c-1.379,0-2.5-1.122-2.5-2.5v-43.557c0-1.378,1.121-2.5,2.5-2.5h82.365
				c1.379,0,2.5,1.122,2.5,2.5V386.16z M314.046,376.882v-25h29.8c-0.937,4.019-1.449,8.2-1.449,12.5s0.512,8.481,1.449,12.5
				H314.046z M397.436,404.42c-22.077,0-40.039-17.961-40.039-40.038s17.962-40.039,40.039-40.039s40.038,17.961,40.038,40.039
				S419.513,404.42,397.436,404.42z M497,374.382c0,1.378-1.121,2.5-2.5,2.5h-43.476c0.938-4.019,1.449-8.2,1.449-12.5
				s-0.512-8.481-1.449-12.5H494.5c1.379,0,2.5,1.122,2.5,2.5V374.382z" fill="#000000" class="color000000 svgShape"></path>
  <path d="M67.027 294.737h47.538c4.143 0 7.5-3.358 7.5-7.5s-3.357-7.5-7.5-7.5H67.027c-4.143 0-7.5 3.358-7.5 7.5S62.885 294.737 67.027 294.737zM67.027 265.131h47.538c4.143 0 7.5-3.358 7.5-7.5s-3.357-7.5-7.5-7.5H67.027c-4.143 0-7.5 3.358-7.5 7.5S62.885 265.131 67.027 265.131zM368.176 265.131h22.357c4.143 0 7.5-3.358 7.5-7.5s-3.357-7.5-7.5-7.5h-22.357c-4.143 0-7.5 3.358-7.5 7.5S364.033 265.131 368.176 265.131zM270.51 356.882h-28.683c-4.143 0-7.5 3.358-7.5 7.5s3.357 7.5 7.5 7.5h28.683c4.143 0 7.5-3.358 7.5-7.5S274.652 356.882 270.51 356.882z" fill="#000000" class="color000000 svgShape"></path>
</svg>
