<svg width="350" height="743" viewBox="0 0 350 743" fill="none" xmlns="http://www.w3.org/2000/svg">
<path d="M129.469 79.6635C129.485 81.9244 127.977 116.078 131.25 121.726C131.25 121.726 171.506 126.413 172.741 121.312C173.105 119.804 179.32 78.0983 179.32 78.0983L129.469 79.6718V79.6635Z" fill="url(#paint0_linear_3_1353)"/>
<path d="M180.745 63.15C180.538 73.9409 175.74 107.953 176.461 119.092C176.461 119.092 183.024 118.86 186.215 105.916C189.405 92.972 190.979 75.0672 187.681 68.7649C184.375 62.4709 179.328 59.9532 179.328 59.9532L180.754 63.1417L180.745 63.15Z" fill="url(#paint1_linear_3_1353)"/>
<path d="M188.783 55.8209C194.41 67.8375 191.791 115.159 189.272 120.244C186.753 125.329 182.602 124.351 182.162 123.2C181.814 122.297 185.427 92.0199 185.452 75.5726C185.452 71.175 185.212 67.7713 184.557 66.1729L188.775 55.8209H188.783Z" fill="url(#paint2_linear_3_1353)"/>
<path d="M177.174 72.3095C173.578 94.6202 170.454 117.701 172.732 121.312C175.011 124.914 178.326 115.689 180.754 100.724C182.171 91.9535 184.706 71.1832 184.706 71.1832L177.174 72.3095V72.3095Z" fill="url(#paint3_linear_3_1353)"/>
<path d="M115.829 72.5083C112.233 85.6099 109.929 106.057 111.976 117.643C112.863 122.678 114.387 124.401 116.666 123.838C118.945 123.275 123.594 115.184 122.782 103.829C121.97 92.467 126.817 69.8914 126.817 69.8914L115.829 72.5083Z" fill="url(#paint4_linear_3_1353)"/>
<path d="M130.985 103.829C131.797 115.192 127.149 123.275 124.87 123.838C122.591 124.401 123.66 123.117 122.773 118.082C122.019 113.825 121.505 108.31 121.331 102.388C121.033 92.1937 121.754 80.7899 124.033 72.5L135.021 69.8831C135.021 69.8831 130.173 92.4587 130.985 103.821V103.829Z" fill="url(#paint5_linear_3_1353)"/>
<path style="mix-blend-mode:multiply" d="M130.985 103.829C129.419 98.6037 122.094 102.123 121.331 102.397C121.033 92.202 121.754 80.7982 124.033 72.5083L135.021 69.8914C135.021 69.8914 130.173 92.467 130.985 103.829V103.829Z" fill="url(#paint6_linear_3_1353)"/>
<path d="M118.489 55.7379C108.156 76.4005 105.744 111.821 106.474 117.651C107.203 123.482 110.087 125.958 111.52 124.914C112.945 123.871 113.194 103.995 116.79 94.1894C119.243 87.4896 121.141 72.4668 122.102 63.622C122.541 59.5226 122.781 56.7483 122.781 56.7483L118.497 55.7379H118.489Z" fill="url(#paint7_linear_3_1353)"/>
<path d="M115.829 68.8808C112.233 88.0611 106.474 117.643 106.474 117.643C106.474 117.643 98.7754 76.7318 101.502 67.5475C104.22 58.3632 113.368 48.566 113.368 48.566L115.829 68.8726V68.8808Z" fill="url(#paint8_linear_3_1353)"/>
<path style="mix-blend-mode:multiply" d="M184.706 71.1749C184.706 71.1749 183.422 81.7257 182.171 90.968C181.665 94.6864 181.168 98.1978 180.762 100.715C178.342 115.68 175.028 124.906 172.741 121.304C171.481 119.308 171.871 111.366 173.08 100.889C174.058 92.4173 175.566 82.2806 177.182 72.3012L184.706 71.1749V71.1749Z" fill="url(#paint9_linear_3_1353)"/>
<path style="mix-blend-mode:multiply" d="M184.706 71.1749C184.706 71.1749 183.422 81.7257 182.171 90.968C176.13 89.734 173.08 100.889 173.08 100.889C174.058 92.4173 175.566 82.2806 177.182 72.3012L184.706 71.1749Z" fill="url(#paint10_linear_3_1353)"/>
<path d="M196.606 62.943C196.465 63.8209 196.307 64.6159 196.142 65.3198V65.353C194.923 70.4048 193.084 71.5973 192.346 73.8748C191.708 75.8458 189.197 79.7961 186.712 75.6884L186.703 75.6801C186.703 75.6801 187.88 58.9513 188.833 55.9119C188.833 55.9119 190.208 51.3488 192.67 50.6614C195.843 49.7753 197.84 55.1749 196.606 62.9513V62.943Z" fill="url(#paint11_linear_3_1353)"/>
<path style="mix-blend-mode:multiply" opacity="0.6" d="M187.565 65.2951C187.565 65.2951 192.529 55.9617 194.898 55.3489C197.268 54.736 196.083 62.6533 195.611 65.2951C195.131 67.9369 194.418 69.4939 194.418 69.4939C194.418 69.4939 195.014 66.38 195.131 63.8624C195.296 60.2433 194.41 57.1294 193.415 57.4276C192.421 57.7257 191.078 62.2723 190.996 62.7941C190.913 63.3158 191.658 64.2351 191.609 67.0508C191.567 69.8666 190.532 72.9142 189.968 72.8811C189.405 72.8479 189.645 70.5705 189.645 67.9369C189.645 65.3034 188.062 65.8168 187.358 67.5229L187.565 65.2951V65.2951Z" fill="url(#paint12_linear_3_1353)"/>
<path style="mix-blend-mode:multiply" opacity="0.6" d="M187.358 67.5229C187.358 67.5229 188.634 65.0218 189.396 66.1564C190.159 67.291 189.612 70.438 190.2 70.8189C190.788 71.1999 191.576 68.6492 191.418 66.322C191.269 63.9949 190.548 61.9079 189.537 62.2972L187.557 65.2951L187.349 67.5229H187.358Z" fill="url(#paint13_linear_3_1353)"/>
<path style="mix-blend-mode:multiply" d="M196.125 65.3531C194.915 70.4049 193.084 71.5975 192.346 73.8749C191.708 75.846 189.197 79.7963 186.711 75.6886C186.861 75.846 188.294 77.3615 189.753 76.6741C191.294 75.9453 191.783 74.0903 192.429 72.6493C193.075 71.2083 194.741 70.2227 196.125 65.3614V65.3531Z" fill="url(#paint14_linear_3_1353)"/>
<path d="M155.662 86.7363L160.783 120.393L186.886 121.105L165.532 153.569L108.015 129.436L129.303 123.44L126.519 77.759L155.662 86.7363Z" fill="url(#paint15_linear_3_1353)"/>
<path d="M144.02 5.49353C144.02 5.49353 182.113 6.86828 188.51 51.3571C194.907 95.8459 162.374 106.852 141.285 103.233C120.196 99.6141 106.241 76.7982 103.408 63.5476C100.574 50.2971 109.457 5.94074 144.011 5.49353H144.02Z" fill="url(#paint16_linear_3_1353)"/>
<path d="M94.9884 63.6387C95.2204 64.765 95.4856 65.7837 95.7674 66.6947L95.7839 66.7361C97.7975 73.2206 100.847 74.7527 102.082 77.6761C103.142 80.202 107.327 85.2869 111.462 80.0032C111.47 80.0032 111.479 79.9866 111.479 79.9866C111.479 79.9866 109.515 58.4959 107.932 54.5952C107.932 54.5952 105.645 48.7401 101.543 47.854C96.2645 46.7111 92.9334 53.6511 94.9967 63.6387H94.9884Z" fill="url(#paint17_linear_3_1353)"/>
<path style="mix-blend-mode:multiply" opacity="0.6" d="M110.045 66.6697C110.045 66.6697 101.783 54.6779 97.8305 53.8994C93.8778 53.1127 95.8583 63.2825 96.6538 66.6697C97.4493 70.0569 98.6343 72.061 98.6343 72.061C98.6343 72.061 97.6399 68.061 97.441 64.8229C97.1593 60.1686 98.6426 56.1769 100.3 56.5578C101.957 56.9388 104.186 62.7856 104.335 63.4481C104.476 64.1107 103.242 65.3032 103.308 68.914C103.382 72.5248 105.106 76.4503 106.042 76.4006C106.979 76.3509 106.581 73.4275 106.581 70.0569C106.581 66.6862 109.216 67.3405 110.385 69.5268L110.045 66.6697V66.6697Z" fill="url(#paint18_linear_3_1353)"/>
<path style="mix-blend-mode:multiply" opacity="0.6" d="M110.385 69.527C110.385 69.527 108.263 66.3137 106.987 67.7713C105.711 69.2288 106.631 73.2785 105.653 73.7589C104.675 74.2475 103.366 70.9763 103.623 67.9866C103.88 64.9969 105.065 62.3137 106.755 62.8189L110.045 66.6698L110.385 69.527V69.527Z" fill="url(#paint19_linear_3_1353)"/>
<path style="mix-blend-mode:multiply" d="M95.7839 66.7444C97.7976 73.2289 100.847 74.761 102.082 77.6844C103.142 80.2103 107.327 85.2952 111.462 80.0115C111.213 80.2186 108.819 82.1565 106.399 81.2786C103.838 80.3428 103.026 77.9577 101.941 76.1026C100.864 74.2475 98.0876 72.9804 95.7922 66.7444H95.7839Z" fill="url(#paint20_linear_3_1353)"/>
<path d="M165.871 62.3467C165.871 62.3467 168.349 50.3052 175.541 48.7483C182.734 47.1913 184.822 57.9492 184.822 57.9492C184.822 57.9492 182.726 52.3591 175.865 53.2038C169.003 54.0485 165.871 62.3384 165.871 62.3384V62.3467Z" fill="url(#paint21_linear_3_1353)"/>
<path d="M165.705 62.8354C165.705 62.8354 168.63 54.7028 176.337 53.5931C183.215 52.5993 185.054 58.6614 185.054 58.6614C185.054 58.6614 185.411 53.2204 180.58 52.2763C175.981 51.3819 168.374 54.3633 165.705 62.8271V62.8354Z" fill="#401432"/>
<path d="M142.677 62.3467C142.677 62.3467 140.2 50.3052 133.007 48.7483C125.814 47.1913 123.726 57.9492 123.726 57.9492C123.726 57.9492 125.823 52.3591 132.684 53.2038C139.545 54.0485 142.677 62.3384 142.677 62.3384V62.3467Z" fill="url(#paint22_linear_3_1353)"/>
<path d="M142.851 62.8354C142.851 62.8354 139.926 54.7028 132.22 53.5931C125.342 52.5993 123.502 58.6614 123.502 58.6614C123.502 58.6614 123.146 53.2204 127.977 52.2763C132.576 51.3819 140.183 54.3633 142.851 62.8271V62.8354Z" fill="#401432"/>
<path d="M165.059 73.966C165.059 73.966 164.877 74.5126 162.797 74.5871C160.709 74.67 158.77 76.4836 155.231 76.4836C151.693 76.4836 149.928 74.67 147.84 74.5871C145.752 74.5126 145.404 73.966 145.404 73.966C145.097 72.6078 145.288 71.2828 145.677 70.1482C145.677 70.1482 145.685 70.1151 145.685 70.1068C146.373 68.1192 147.608 66.7196 147.608 66.7196C152.571 64.3262 157.891 64.3262 162.855 66.7196C162.855 66.7196 163.65 67.614 164.313 68.997V69.0136C164.96 70.3469 165.482 72.1192 165.051 73.9743L165.059 73.966Z" fill="url(#paint23_linear_3_1353)"/>
<path d="M160.327 75.2579C160.327 75.2579 161.927 73.8831 163.915 74.4794L160.327 75.2579Z" fill="#812852"/>
<path d="M146.771 74.4878C146.771 74.4878 148.793 73.8832 150.814 75.4981L146.771 74.4878Z" fill="#812852"/>
<g style="mix-blend-mode:multiply" opacity="0.6">
<path d="M165.059 73.966C165.059 73.966 164.877 74.5125 162.797 74.5871C160.709 74.6699 158.769 76.4836 155.231 76.4836C151.693 76.4836 149.928 74.6699 147.84 74.5871C145.751 74.5125 145.403 73.966 145.403 73.966C145.097 72.6078 145.287 71.2827 145.677 70.1481C145.602 70.4794 145.163 72.6326 145.992 73.1544C146.895 73.7175 152.016 73.3862 155.231 73.3862C158.446 73.3862 163.915 73.3945 164.537 72.5415C165.125 71.7216 164.388 69.2372 164.321 69.0135C164.968 70.3469 165.49 72.1192 165.059 73.9742V73.966Z" fill="#C978B1"/>
</g>
<path style="mix-blend-mode:multiply" opacity="0.6" d="M162.855 66.7196C162.855 66.7196 161.711 70.2641 161.844 72.7486C161.844 72.7486 160.99 70.3221 162.126 66.3883L162.855 66.7196Z" fill="url(#paint24_linear_3_1353)"/>
<path style="mix-blend-mode:multiply" opacity="0.6" d="M147.79 66.7196C147.79 66.7196 148.933 70.2641 148.801 72.7486C148.801 72.7486 149.654 70.3221 148.519 66.3883L147.79 66.7196Z" fill="url(#paint25_linear_3_1353)"/>
<g style="mix-blend-mode:multiply" opacity="0.6">
<path d="M145.992 73.1461C145.992 73.1461 145.503 73.6844 145.404 73.9659C145.304 74.2392 149.978 78.6533 155.231 78.6533C160.485 78.6533 164.96 74.5042 165.059 73.9659C165.159 73.4276 164.297 72.7485 164.297 72.7485C164.297 72.7485 160.195 73.3862 155.231 73.3862C150.268 73.3862 145.992 73.1543 145.992 73.1543V73.1461Z" fill="#C978B1"/>
</g>
<path d="M159.424 72.1772C158.678 71.7548 159.996 70.5209 160.344 70.5705C160.7 70.6202 160.891 71.4153 160.7 71.9287C160.51 72.4422 159.739 72.3511 159.424 72.1772V72.1772Z" fill="#FBC9B8"/>
<g style="mix-blend-mode:multiply">
<path d="M164.62 51.5476C164.62 51.5476 166.808 46.471 170.048 43.1417L169.086 45.4523C169.086 45.4523 170.031 44.5082 171.465 43.7297C172.898 42.9513 183.72 41.8167 185.891 42.2059L185.543 41.2535C185.543 41.2535 189.322 44.4668 191.841 51.1087C191.841 51.1087 189.057 47.9782 187.234 47.6801C185.411 47.3737 168.771 49.8747 164.62 52.7236V51.5393V51.5476Z" fill="#010101"/>
<path d="M144.517 51.5476C144.517 51.5476 142.329 46.471 139.089 43.1417L140.05 45.4523C140.05 45.4523 139.106 44.5082 137.672 43.7297C136.239 42.9513 125.416 41.8167 123.245 42.2059L123.593 41.2535C123.593 41.2535 119.815 44.4668 117.296 51.1087C117.296 51.1087 120.08 47.9782 121.903 47.6801C123.726 47.3737 140.365 49.8747 144.517 52.7236V51.5393V51.5476Z" fill="#010101"/>
</g>
<path d="M105.985 74.3798C106.735 74.3798 107.344 73.3009 107.344 71.9699C107.344 70.6389 106.735 69.5599 105.985 69.5599C105.234 69.5599 104.626 70.6389 104.626 71.9699C104.626 73.3009 105.234 74.3798 105.985 74.3798Z" fill="white"/>
<g style="mix-blend-mode:multiply" opacity="0.4">
<path d="M146.174 93.8749C146.174 93.8749 151.229 98.4215 155.24 98.4961C159.251 98.5706 164.91 92.1523 164.91 92.1523C164.91 92.1523 156.359 100.972 146.174 93.8749V93.8749Z" fill="#CC78B1"/>
</g>
<path d="M139.098 84.8066C139.098 84.8066 144.517 97.6431 155.638 96.8149C167.148 95.9537 170.205 82.5209 170.205 82.5209L155.306 89.6182L139.098 84.8066V84.8066Z" fill="#F26665"/>
<path d="M154.635 83.3985C168.283 82.3716 170.736 81.6263 171.142 81.3281C170.868 81.9492 169.6 84.6242 166.94 87.1832C164.421 89.6015 160.659 91.9203 155.314 92.3178C150.301 92.6905 146.514 91.3737 143.771 89.6512C139.926 87.2412 138.145 84.0693 137.963 83.7215C138.112 83.8789 139.62 84.5248 154.651 83.3985H154.635Z" fill="#731C55"/>
<g style="mix-blend-mode:multiply" opacity="0.6">
<path d="M154.635 83.3985C168.283 82.3716 170.736 81.6263 171.142 81.3281C170.868 81.9492 169.6 84.6242 166.94 87.1832C167.123 86.1977 167.015 85.4772 166.485 85.1791C164.761 84.2101 160.228 86.4213 155.124 88.1439C151.345 89.4193 137.134 81.6428 143.763 89.6511C139.918 87.2412 138.137 84.0693 137.954 83.7215C138.103 83.8789 139.612 84.5248 154.643 83.3985H154.635Z" fill="#CC78B1"/>
</g>
<path d="M161.38 79.9286C157.469 79.6553 151.27 80.1191 147.45 80.9721C143.63 81.8251 138.675 83.9203 138.675 83.9203C138.675 83.9203 146.332 84.5497 154.651 83.6305C163.012 83.2909 170.487 81.5849 170.487 81.5849C170.487 81.5849 165.283 80.2019 161.38 79.9286V79.9286Z" fill="#D74058"/>
<path d="M142.305 84.0944C142.305 84.0944 147.641 86.3387 154.685 85.8087C161.728 85.2787 167.015 82.2642 167.015 82.2642C167.015 82.2642 161.571 82.877 154.37 83.4153C147.177 83.9536 142.296 84.0944 142.296 84.0944H142.305Z" fill="#FBDBE9"/>
<path d="M169.36 80.3842C169.36 80.3842 172.086 81.7341 172.699 83.1419C172.699 83.1419 172.119 80.525 171.191 79.9204C170.263 79.3158 169.36 80.3842 169.36 80.3842Z" fill="#D86B7C"/>
<path d="M139.844 82.5952C139.844 82.5952 137.349 84.3344 136.952 85.8168C136.952 85.8168 137.134 83.1501 137.954 82.4047C138.783 81.6677 139.835 82.5869 139.835 82.5869L139.844 82.5952Z" fill="#D86B7C"/>
<path d="M145.163 90.4464C148.95 86.2393 154.328 87.5561 154.328 87.5561C159.98 85.4194 164.106 89.4194 164.106 89.4194C164.106 89.4194 160.701 92.0778 154.254 92.3014C148.304 92.5002 145.155 90.4464 145.155 90.4464H145.163Z" fill="#BE2741"/>
<g style="mix-blend-mode:soft-light">
<path d="M160.469 91.937C160.469 91.937 161.504 92.5002 162.085 93.6596L162.855 93.1875C162.855 93.1875 162.905 92.5084 161.579 91.465L160.469 91.9453V91.937Z" fill="#FBDBE9"/>
</g>
<g style="mix-blend-mode:soft-light">
<path d="M162.018 91.4234C162.018 91.4234 163.012 91.8458 163.203 92.9473L163.418 92.674C163.418 92.674 163.07 91.5145 162.126 91.4152H162.026L162.018 91.4234Z" fill="#FBDBE9"/>
</g>
<path d="M146.431 91.0674C146.431 91.0674 152.837 91.1005 162.64 90.2806C162.64 90.2806 155.124 94.5457 146.431 91.0674Z" fill="#FBDBE9"/>
<path d="M165.366 8.72314C171.556 9.29458 179.826 15.3236 180.654 18.1476C181.491 20.9717 171.788 21.7832 171.788 21.7832C171.788 21.7832 168.979 19.3899 167.603 17.659C166.227 15.9281 165.357 8.73143 165.357 8.73143L165.366 8.72314Z" fill="url(#paint26_linear_3_1353)"/>
<path d="M167.611 17.6591C167.611 17.6591 171.721 9.73357 168.771 7.82052C161.421 3.05859 147.169 3.96129 147.169 3.96129L136.388 8.52446L140.672 12.1518C140.672 12.1518 152.107 12.541 157.303 13.4272C162.499 14.3216 162.291 17.9903 162.291 17.9903C162.291 17.9903 165.664 20.7398 167.611 17.6508V17.6591Z" fill="url(#paint27_linear_3_1353)"/>
<path d="M141.219 0.242944C149 2.34647 162.324 13.626 164.338 20.889C164.338 20.889 159.93 21.8083 154.767 19.2244C154.767 19.2244 144.989 12.3589 141.882 10.6861C138.766 9.01317 121.953 11.9697 114.279 15.332C106.598 18.6861 94.1018 61.6511 94.1018 61.6511C94.1018 61.6511 89.7266 40.1603 92.3617 31.2493C95.0051 22.3383 97.5407 11.7792 100.366 9.72539C103.192 7.67155 134.25 -1.63698 141.227 0.251225L141.219 0.242944Z" fill="url(#paint28_linear_3_1353)"/>
<path d="M159.938 20.6736C156.764 15.862 145.926 7.15801 140.473 6.10625C135.021 5.05448 121.19 10.4707 116.666 13.7088C112.142 16.9469 103.101 30.3714 104.468 57.8746C104.468 57.8746 110.551 55.1251 113.542 59.9202C113.542 59.9202 113.335 45.4274 119.558 34.0153C122.558 28.508 129.427 23.6467 140.481 21.1457C145.636 19.978 145.006 20.5577 148.842 21.5266C152.679 22.4956 160.485 21.4852 159.938 20.657V20.6736Z" fill="url(#paint29_linear_3_1353)"/>
<path d="M106.291 18.3299C103.084 22.9677 96.4635 48.5081 95.7094 58.9099C94.9471 69.3033 95.3863 97.3283 98.1457 106.074C100.913 114.819 106.225 111.25 107.294 105.494C107.7 103.308 104.187 89.3862 102.968 70.1811C101.75 50.9761 109.523 26.6944 114.089 23.1084C118.646 19.5225 126.079 17.2616 139.794 20.2264C139.794 20.2264 149.174 21.9573 151.585 19.9946C151.585 19.9946 143.804 12.1767 130.09 12.127C112.97 12.0608 107.824 16.127 106.3 18.3382L106.291 18.3299Z" fill="url(#paint30_linear_3_1353)"/>
<path d="M179.047 32.5494C181.731 35.1167 182.593 37.3776 183.24 40.5991C183.48 41.7834 183.845 50.8683 183.845 50.8683C183.845 50.8683 184.955 44.4998 189.753 42.5453C189.753 42.5453 186.703 28.4583 185.593 26.1229C184.474 23.7875 176.876 24.5742 176.064 26.7274C175.566 28.0442 179.055 32.5494 179.055 32.5494H179.047Z" fill="url(#paint31_linear_3_1353)"/>
<path d="M236.049 343.201C230.878 304.642 223.189 267.573 212.027 235.283C212.027 235.283 179.038 248.816 121.107 238.861C121.107 238.861 88.6409 264.948 80.1887 324.973C138.459 323.996 177.745 343.483 236.049 343.201Z" fill="#2B2238"/>
<path d="M220.371 439.409L19.7388 628.809L48.2194 637.182L241.468 492.552C235.022 474.581 228.152 456.8 220.371 439.409Z" fill="#F8AB9D"/>
<path opacity="0.2" d="M220.371 439.409L57.0612 594.772C63.5578 602.06 70.4853 609.339 76.7001 617.041L241.469 492.543C235.022 474.572 228.152 456.792 220.371 439.4V439.409Z" fill="#201829"/>
<path d="M50.6308 636.196L27.3209 619.733L9.64587 631.02L68.2976 704.445C68.2976 704.445 72.1425 693.762 50.6308 636.188V636.196Z" fill="#F6EC19"/>
<path d="M68.2976 704.445L9.64584 631.02L3.75415 634.78L64.2869 706.598L68.2976 704.445Z" fill="#2B2238"/>
<path d="M53.8376 643.567C49.6695 643.211 45.5594 644.105 41.4328 644.536C41.0847 644.569 41.0847 645.124 41.4328 645.082C45.5594 644.66 49.6695 643.757 53.8376 644.114C54.1857 644.147 54.1857 643.592 53.8376 643.567Z" fill="#2B2238"/>
<path d="M56.3568 649.174C52.1887 648.817 48.0786 649.712 43.9519 650.143C43.6039 650.176 43.6039 650.731 43.9519 650.689C48.0786 650.267 52.1887 649.364 56.3568 649.72C56.7048 649.753 56.7048 649.198 56.3568 649.174Z" fill="#2B2238"/>
<path d="M58.9009 655.509C54.7328 655.153 50.6227 656.047 46.496 656.478C46.148 656.511 46.148 657.066 46.496 657.025C50.6227 656.602 54.7328 655.7 58.9009 656.056C59.2489 656.089 59.2489 655.534 58.9009 655.509Z" fill="#2B2238"/>
<path d="M212.499 235.822L150.806 316.145L191.476 434.398L129.054 490.117L128.888 490.158V490.274L62.2485 549.753L104.766 628.577C104.766 628.577 110.932 622.706 121.265 612.991V613.091C121.265 613.091 250.65 509.628 270.132 475.55C289.613 441.479 212.499 235.813 212.499 235.813V235.822Z" fill="#2B2238"/>
<path d="M164.471 355.864L191.485 434.406L129.062 490.125L128.897 490.167V490.283L62.2568 549.761L104.775 628.585C104.775 628.585 110.94 622.714 121.273 612.999V613.099C121.273 613.099 250.658 509.637 270.14 475.558C283.448 452.278 251.678 348.932 230.207 285.768C207.569 308.451 185.154 331.35 164.471 355.855V355.864Z" fill="#131015"/>
<path d="M148.337 490.084L262.226 725.075L278.36 700.164L205.306 484.991C186.231 486.059 167.222 487.574 148.329 490.084H148.337Z" fill="#F8AB9D"/>
<path opacity="0.2" d="M148.337 490.084L240.209 679.633C249.051 675.484 258 670.913 267.157 667.153L205.315 484.991C186.239 486.059 167.23 487.574 148.337 490.084V490.084Z" fill="#201829"/>
<path d="M278.103 697.571L255.68 715.219L261.481 735.369L348.605 700.064C348.605 700.064 339.448 693.339 278.103 697.571Z" fill="#F6EC19"/>
<path d="M348.605 700.056L261.481 735.36L263.411 742.077L349.525 704.52L348.605 700.056Z" fill="#2B2238"/>
<path d="M286.092 696.602C284.567 700.495 284.26 704.685 283.49 708.76C283.423 709.108 283.954 709.248 284.02 708.909C284.782 704.834 285.089 700.644 286.622 696.751C286.755 696.42 286.224 696.279 286.092 696.602Z" fill="#2B2238"/>
<path d="M292.182 695.782C290.657 699.675 290.351 703.865 289.58 707.94C289.514 708.288 290.044 708.429 290.111 708.089C290.881 704.014 291.179 699.824 292.712 695.932C292.845 695.6 292.315 695.459 292.182 695.782Z" fill="#2B2238"/>
<path d="M298.985 695.145C297.452 699.037 297.146 703.228 296.383 707.302C296.317 707.65 296.847 707.791 296.914 707.451C297.676 703.377 297.983 699.186 299.516 695.294C299.648 694.963 299.118 694.822 298.985 695.145Z" fill="#2B2238"/>
<path d="M51.0785 557.662L102.256 635.989L128.35 614.076L69.2342 543.575L51.0785 557.662Z" fill="#2B2238"/>
<path d="M277.929 156.906L310.909 95.6637C311.382 86.5208 317.58 71.2744 321.11 67.3489C327.109 60.6739 329.223 69.469 329.223 69.469C335.429 65.1791 335.504 72.5249 335.504 72.5249C340.592 66.7775 342.332 75.3986 342.332 75.3986C350.37 70.1729 351.588 81.7341 343.45 94.6782C340.426 99.4898 336.581 101.436 332.951 101.991C327.25 120.74 307.263 179.515 295.24 190.538C275.824 208.327 188.932 164.915 188.932 164.915L204.345 129.014L277.929 156.906V156.906Z" fill="url(#paint32_linear_3_1353)"/>
<path d="M316.503 80.0281C317.621 79.4898 318.757 78.8935 319.892 78.3055C329.421 80.0612 339.017 81.6099 347.784 85.6348C346.873 88.4174 345.447 91.5064 343.45 94.6866C340.426 99.4982 336.581 101.444 332.951 101.999C332.57 103.266 332.081 104.815 331.543 106.488C325.27 100.542 318.699 94.786 311.92 89.171C312.567 86.3718 313.486 83.4319 314.497 80.6078C315.135 80.5416 315.807 80.3677 316.503 80.0281V80.0281Z" fill="url(#paint33_linear_3_1353)"/>
<path d="M320.704 74.4793C320.704 74.4793 314.323 68.5994 308.142 75.2992C301.96 81.999 307.23 96.1192 316.768 97.5271C326.297 98.9349 320.704 74.4793 320.704 74.4793Z" fill="url(#paint34_linear_3_1353)"/>
<path d="M313.967 72.2516C313.967 72.2516 329.587 71.9866 337.351 82.6284C342.439 89.5933 323.803 85.9328 319.071 82.0984C314.332 78.2723 313.967 72.2516 313.967 72.2516Z" fill="url(#paint35_linear_3_1353)"/>
<path d="M342.332 75.3986C342.332 75.3986 344.287 71.0176 347.975 72.8147C351.671 74.6118 348 95.1585 341.453 94.0074C334.907 92.8479 342.332 75.3986 342.332 75.3986Z" fill="url(#paint36_linear_3_1353)"/>
<path d="M321.93 67.2412C321.93 67.2412 323.886 62.8603 327.573 64.6574C331.269 66.4545 327.598 87.0012 321.052 85.85C314.506 84.6906 321.93 67.2412 321.93 67.2412Z" fill="url(#paint37_linear_3_1353)"/>
<path d="M335.073 73.1045C335.073 73.1045 337.111 68.5413 340.807 70.3467C344.503 72.1521 340.467 93.4441 333.888 92.3509C327.308 91.2578 335.073 73.1045 335.073 73.1045V73.1045Z" fill="url(#paint38_linear_3_1353)"/>
<path d="M328.411 70.6201C328.411 70.6201 330.449 66.0569 334.145 67.8623C337.841 69.6594 333.805 90.9597 327.226 89.8666C320.646 88.7734 328.411 70.6201 328.411 70.6201V70.6201Z" fill="url(#paint39_linear_3_1353)"/>
<path d="M215.225 200.484L208.48 287.913L100.076 273.561L131.656 218.538L215.225 200.484Z" fill="#2B2238"/>
<path d="M205.654 667.691L277.606 635.708L165.407 334.572C137.084 350.464 108.81 366.448 80.4705 382.282C114.843 465.272 205.654 667.7 205.654 667.7V667.691Z" fill="#2B2238"/>
<path d="M278.252 605.165L195.155 654.374L202.878 672.561L287.823 642.813L278.252 605.165Z" fill="#2B2238"/>
<path opacity="0.2" d="M125.4 229.445L131.656 218.538L215.225 200.484L212.499 235.822C188.278 237.801 153.847 238.232 125.4 229.437V229.445Z" fill="#201829"/>
<path d="M177.646 120.832C177.646 120.832 203.467 114.14 240.914 138.786L227.216 166.165L177.646 120.832V120.832Z" fill="#F6EC19"/>
<path d="M118.539 242.836C118.539 242.836 10.7813 299.424 124.928 481.951L170.28 331.971L118.53 242.836H118.539Z" fill="#2B2238"/>
<path d="M38.3671 232.037L79.5095 288.128C87.564 292.485 98.6761 304.634 100.698 309.503C104.145 317.785 95.2952 315.913 95.2952 315.913C96.5051 323.358 89.8345 320.269 89.8345 320.269C92.8342 327.334 84.3074 325.197 84.3074 325.197C85.5752 334.696 74.6039 330.828 66.4086 317.917C63.3674 313.122 63.2597 308.816 64.3204 305.304C49.8356 292.087 5.33719 248.782 0.547599 233.188C-7.1754 208.02 69.4 148.285 69.4 148.285L95.2041 177.627L38.3671 232.029V232.037Z" fill="url(#paint40_linear_3_1353)"/>
<path d="M76.7499 290.638C76.7499 290.638 91.3672 286.671 102.181 293.412C109.266 297.834 90.5137 299.35 84.7961 297.387C79.0784 295.425 76.7499 290.638 76.7499 290.638V290.638Z" fill="#FABCAD"/>
<path d="M84.3071 325.189C84.3071 325.189 87.4228 328.833 84.2077 331.392C80.9925 333.951 64.0052 321.801 67.8667 316.394C71.7282 310.986 84.2988 325.189 84.2988 325.189H84.3071Z" fill="#FABCAD"/>
<path d="M100.449 310.29C100.449 310.29 103.565 313.934 100.35 316.493C97.1346 319.052 80.1473 306.903 84.0088 301.495C87.8703 296.087 100.441 310.29 100.441 310.29H100.449Z" fill="#FABCAD"/>
<path d="M89.5029 319.632C89.5029 319.632 92.743 323.433 89.5278 325.992C86.3126 328.551 68.8116 315.756 72.6234 310.282C76.4352 304.816 89.5029 319.632 89.5029 319.632V319.632Z" fill="#FABCAD"/>
<path d="M94.6156 314.688C94.6156 314.688 97.8556 318.489 94.6405 321.048C91.4253 323.607 73.9243 310.812 77.7361 305.346C81.5478 299.88 94.6156 314.696 94.6156 314.696V314.688Z" fill="#FABCAD"/>
<path d="M158.653 106.397C158.653 106.397 163.244 120.194 167.015 119.995C176.577 119.49 194.567 118.993 202.373 121.825C213.253 125.776 230.066 160.368 234.019 175.192C237.972 190.016 238.966 212.749 238.966 212.749C238.966 212.749 150.955 241.412 117.329 224.608L100.516 180.136L80.7357 195.946L48.1035 161.353C48.1035 161.353 73.8165 130.711 98.5351 128.74L129.311 123.44L128.151 106.397C133.065 106.181 141.335 111.332 158.653 106.397V106.397Z" fill="#F6EC19"/>
<path d="M190.248 69.835C190.248 69.835 202.053 139.915 179.313 170.766C156.574 201.617 159.282 207.022 159.282 207.022" stroke="white" stroke-miterlimit="10"/>
<path d="M105.597 73.327C105.597 73.327 102.106 124.836 135.461 158.856C150.523 171.284 164.699 204.315 156.574 218.923C148.449 233.531 132.208 227.045 131.671 255.18C131.126 283.324 113.267 262.211 102.979 281.697" stroke="white" stroke-miterlimit="10"/>
<path d="M103.166 277.153L97.9301 283.595L101.614 286.587L106.85 280.144L103.166 277.153Z" fill="#E2E2E2"/>
<path d="M72.9666 335.41C71.5454 336.759 69.2929 336.705 67.9342 335.284L51.5947 318.103C50.245 316.683 50.2986 314.431 51.7198 313.073L91.6748 275.101C93.096 273.752 95.3485 273.806 96.7072 275.226L113.047 292.407C114.396 293.828 114.343 296.08 112.922 297.438L72.9666 335.41Z" fill="#E2E2E2"/>
<path d="M79.5093 288.128L38.3669 232.037L62.7126 208.741C53.5312 198.372 45.2199 187.407 37.5797 175.954C17.5762 195.018 -3.70353 219.333 0.547434 233.188C5.33702 248.782 49.8354 292.087 64.3202 305.296C63.2595 308.816 63.359 313.114 66.4084 317.917C74.6037 330.828 85.575 334.696 84.3072 325.197C84.3072 325.197 92.8423 327.333 89.8343 320.269C89.8343 320.269 96.5049 323.358 95.2951 315.913C95.2951 315.913 104.153 317.793 100.698 309.503C98.6677 304.634 87.5555 292.484 79.5093 288.128V288.128Z" fill="url(#paint41_linear_3_1353)"/>
<path d="M76.75 290.638C76.75 290.638 91.3674 286.671 102.181 293.412C109.266 297.834 90.5138 299.35 84.7962 297.387C79.0785 295.425 76.75 290.638 76.75 290.638V290.638Z" fill="url(#paint42_linear_3_1353)"/>
<path d="M84.3072 325.189C84.3072 325.189 87.423 328.832 84.2078 331.391C80.9927 333.95 64.0054 321.801 67.8669 316.393C71.7284 310.986 84.299 325.189 84.299 325.189H84.3072Z" fill="url(#paint43_linear_3_1353)"/>
<path d="M100.449 310.29C100.449 310.29 103.565 313.934 100.35 316.493C97.1346 319.052 80.1473 306.903 84.0088 301.495C87.8703 296.087 100.441 310.29 100.441 310.29H100.449Z" fill="url(#paint44_linear_3_1353)"/>
<path d="M89.5027 319.632C89.5027 319.632 92.7427 323.433 89.5276 325.992C86.3124 328.551 68.8114 315.756 72.6231 310.282C76.4349 304.816 89.5027 319.632 89.5027 319.632V319.632Z" fill="url(#paint45_linear_3_1353)"/>
<path d="M94.6156 314.687C94.6156 314.687 97.8556 318.489 94.6405 321.048C91.4253 323.607 73.9243 310.812 77.7361 305.346C81.5478 299.88 94.6156 314.696 94.6156 314.696V314.687Z" fill="url(#paint46_linear_3_1353)"/>
<path d="M118.804 108.898C117.113 111.076 112.954 109.502 110.401 103.142C109.697 101.386 108.96 99.6802 108.23 97.9411C104.932 90.1315 101.643 81.7505 101.179 66.7277C100.441 42.7607 111.686 24.9635 111.86 24.6902C108.868 31.8041 109.167 45.9988 110.6 58.9761C111.702 69.0217 113.492 78.3385 114.951 83.1004C118.307 94.0073 120.958 106.123 118.804 108.898Z" fill="url(#paint47_linear_3_1353)"/>
<ellipse cx="190.248" cy="68.9619" rx="1.74539" ry="2.61909" fill="white"/>
<path d="M169.447 18.9687C168.577 19.2999 171.784 24.625 175.91 27.4076C176.739 27.9625 179.25 25.5525 181.761 27.3C184.271 29.0391 184.821 37.042 187.63 55.8661C188.994 65.0062 185.561 101.221 185.885 103.01C186.2 104.799 194.364 105.561 195.765 100.369C197.173 95.1678 196.784 75.5155 196.975 65.0062C197.165 54.4968 189.508 24.8983 186.111 20.8155C182.713 16.7409 175.455 16.6829 169.447 18.9687Z" fill="url(#paint48_linear_3_1353)"/>
<defs>
<linearGradient id="paint0_linear_3_1353" x1="190.573" y1="74.9347" x2="103.09" y2="132.1" gradientUnits="userSpaceOnUse">
<stop stop-color="#31111B"/>
<stop offset="1" stop-color="#1A0F21"/>
</linearGradient>
<linearGradient id="paint1_linear_3_1353" x1="199.904" y1="75.531" x2="149.382" y2="108.544" gradientUnits="userSpaceOnUse">
<stop stop-color="#31111B"/>
<stop offset="1" stop-color="#1A0F21"/>
</linearGradient>
<linearGradient id="paint2_linear_3_1353" x1="210.121" y1="74.9763" x2="152.235" y2="112.805" gradientUnits="userSpaceOnUse">
<stop stop-color="#731F24"/>
<stop offset="1" stop-color="#4F0A36"/>
</linearGradient>
<linearGradient id="paint3_linear_3_1353" x1="199.365" y1="81.7092" x2="148.272" y2="115.095" gradientUnits="userSpaceOnUse">
<stop stop-color="#731F24"/>
<stop offset="1" stop-color="#4F0A36"/>
</linearGradient>
<linearGradient id="paint4_linear_3_1353" x1="82.0453" y1="116.343" x2="99.459" y2="107.1" gradientUnits="userSpaceOnUse">
<stop stop-color="#84153C"/>
<stop offset="1" stop-color="#36112D"/>
</linearGradient>
<linearGradient id="paint5_linear_3_1353" x1="128.151" y1="56.5414" x2="128.151" y2="136.881" gradientUnits="userSpaceOnUse">
<stop stop-color="#5C0E13"/>
<stop offset="1" stop-color="#4F0A36"/>
</linearGradient>
<linearGradient id="paint6_linear_3_1353" x1="128.151" y1="94.9764" x2="128.151" y2="104.898" gradientUnits="userSpaceOnUse">
<stop stop-color="#817EBC"/>
<stop offset="1" stop-color="white"/>
</linearGradient>
<linearGradient id="paint7_linear_3_1353" x1="114.57" y1="56.5412" x2="114.57" y2="136.881" gradientUnits="userSpaceOnUse">
<stop stop-color="#5C0E13"/>
<stop offset="1" stop-color="#4F0A36"/>
</linearGradient>
<linearGradient id="paint8_linear_3_1353" x1="134.498" y1="67.0672" x2="75.0639" y2="105.907" gradientUnits="userSpaceOnUse">
<stop stop-color="#31111B"/>
<stop offset="1" stop-color="#1A0F21"/>
</linearGradient>
<linearGradient id="paint9_linear_3_1353" x1="180.049" y1="44.4088" x2="178.005" y2="102.405" gradientUnits="userSpaceOnUse">
<stop stop-color="#B484BB"/>
<stop offset="1" stop-color="white"/>
</linearGradient>
<linearGradient id="paint10_linear_3_1353" x1="178.889" y1="91.1088" x2="178.889" y2="100.45" gradientUnits="userSpaceOnUse">
<stop stop-color="#817EBC"/>
<stop offset="1" stop-color="white"/>
</linearGradient>
<linearGradient id="paint11_linear_3_1353" x1="195.934" y1="85.6181" x2="195.934" y2="56.8395" gradientUnits="userSpaceOnUse">
<stop stop-color="#F7A190"/>
<stop offset="0.43" stop-color="#F3A592"/>
<stop offset="0.51" stop-color="#F39F8D"/>
<stop offset="0.76" stop-color="#F49383"/>
<stop offset="1" stop-color="#F58F80"/>
</linearGradient>
<linearGradient id="paint12_linear_3_1353" x1="195.94" y1="78.1316" x2="195.94" y2="58.322" gradientUnits="userSpaceOnUse">
<stop stop-color="#F7A190"/>
<stop offset="0.43" stop-color="#F3A592"/>
<stop offset="0.51" stop-color="#F39F8D"/>
<stop offset="0.76" stop-color="#F49383"/>
<stop offset="1" stop-color="#F58F80"/>
</linearGradient>
<linearGradient id="paint13_linear_3_1353" x1="193.503" y1="70.8603" x2="193.503" y2="62.2475" gradientUnits="userSpaceOnUse">
<stop stop-color="#F7A190"/>
<stop offset="0.43" stop-color="#F3A592"/>
<stop offset="0.51" stop-color="#F39F8D"/>
<stop offset="0.76" stop-color="#F49383"/>
<stop offset="1" stop-color="#F58F80"/>
</linearGradient>
<linearGradient id="paint14_linear_3_1353" x1="186.711" y1="71.4236" x2="196.125" y2="71.4236" gradientUnits="userSpaceOnUse">
<stop stop-color="#F7A190"/>
<stop offset="0.43" stop-color="#F3A592"/>
<stop offset="0.51" stop-color="#F39F8D"/>
<stop offset="0.76" stop-color="#F49383"/>
<stop offset="1" stop-color="#F58F80"/>
</linearGradient>
<linearGradient id="paint15_linear_3_1353" x1="108.015" y1="115.664" x2="186.886" y2="115.664" gradientUnits="userSpaceOnUse">
<stop stop-color="#F9AC97"/>
<stop offset="0.18" stop-color="#F79B8D"/>
<stop offset="0.45" stop-color="#F48781"/>
<stop offset="0.73" stop-color="#F37B7A"/>
<stop offset="1" stop-color="#F37778"/>
</linearGradient>
<linearGradient id="paint16_linear_3_1353" x1="102.927" y1="54.678" x2="189.33" y2="54.678" gradientUnits="userSpaceOnUse">
<stop stop-color="#F7A190"/>
<stop offset="0.43" stop-color="#F3A592"/>
<stop offset="0.51" stop-color="#F39F8D"/>
<stop offset="0.76" stop-color="#F49383"/>
<stop offset="1" stop-color="#F58F80"/>
</linearGradient>
<linearGradient id="paint17_linear_3_1353" x1="102.927" y1="92.7735" x2="102.927" y2="55.8126" gradientUnits="userSpaceOnUse">
<stop stop-color="#F7A190"/>
<stop offset="0.43" stop-color="#F3A592"/>
<stop offset="0.51" stop-color="#F39F8D"/>
<stop offset="0.76" stop-color="#F49383"/>
<stop offset="1" stop-color="#F58F80"/>
</linearGradient>
<linearGradient id="paint18_linear_3_1353" x1="102.918" y1="83.1584" x2="102.918" y2="57.7173" gradientUnits="userSpaceOnUse">
<stop stop-color="#F7A190"/>
<stop offset="0.43" stop-color="#F3A592"/>
<stop offset="0.51" stop-color="#F39F8D"/>
<stop offset="0.76" stop-color="#F49383"/>
<stop offset="1" stop-color="#F58F80"/>
</linearGradient>
<linearGradient id="paint19_linear_3_1353" x1="106.987" y1="73.8086" x2="106.987" y2="62.7609" gradientUnits="userSpaceOnUse">
<stop stop-color="#F7A190"/>
<stop offset="0.43" stop-color="#F3A592"/>
<stop offset="0.51" stop-color="#F39F8D"/>
<stop offset="0.76" stop-color="#F49383"/>
<stop offset="1" stop-color="#F58F80"/>
</linearGradient>
<linearGradient id="paint20_linear_3_1353" x1="95.7839" y1="74.5374" x2="111.462" y2="74.5374" gradientUnits="userSpaceOnUse">
<stop stop-color="#F7A190"/>
<stop offset="0.43" stop-color="#F3A592"/>
<stop offset="0.51" stop-color="#F39F8D"/>
<stop offset="0.76" stop-color="#F49383"/>
<stop offset="1" stop-color="#F58F80"/>
</linearGradient>
<linearGradient id="paint21_linear_3_1353" x1="165.425" y1="55.8875" x2="184.589" y2="54.5803" gradientUnits="userSpaceOnUse">
<stop stop-color="#F7A190"/>
<stop offset="0.43" stop-color="#F3A592"/>
<stop offset="0.51" stop-color="#F39F8D"/>
<stop offset="0.76" stop-color="#F49383"/>
<stop offset="1" stop-color="#F58F80"/>
</linearGradient>
<linearGradient id="paint22_linear_3_1353" x1="143.127" y1="55.9049" x2="123.964" y2="54.5977" gradientUnits="userSpaceOnUse">
<stop stop-color="#F7A190"/>
<stop offset="0.43" stop-color="#F3A592"/>
<stop offset="0.51" stop-color="#F39F8D"/>
<stop offset="0.76" stop-color="#F49383"/>
<stop offset="1" stop-color="#F58F80"/>
</linearGradient>
<linearGradient id="paint23_linear_3_1353" x1="155.231" y1="76.4836" x2="155.231" y2="64.9225" gradientUnits="userSpaceOnUse">
<stop stop-color="#F37B7F"/>
<stop offset="0.4" stop-color="#F3817F"/>
<stop offset="1" stop-color="#F48680"/>
</linearGradient>
<linearGradient id="paint24_linear_3_1353" x1="162.192" y1="72.7486" x2="162.192" y2="66.38" gradientUnits="userSpaceOnUse">
<stop stop-color="#FBE3D4"/>
<stop offset="0.99" stop-color="#AE7CB7"/>
</linearGradient>
<linearGradient id="paint25_linear_3_1353" x1="148.453" y1="72.7486" x2="148.453" y2="66.38" gradientUnits="userSpaceOnUse">
<stop stop-color="#FBE3D4"/>
<stop offset="0.99" stop-color="#AE7CB7"/>
</linearGradient>
<linearGradient id="paint26_linear_3_1353" x1="177.325" y1="7.10696" x2="170.55" y2="17.6465" gradientUnits="userSpaceOnUse">
<stop stop-color="#84153C"/>
<stop offset="1" stop-color="#36112D"/>
</linearGradient>
<linearGradient id="paint27_linear_3_1353" x1="144.331" y1="-6.10037" x2="154.05" y2="10.5" gradientUnits="userSpaceOnUse">
<stop stop-color="#731F24"/>
<stop offset="1" stop-color="#4F0A36"/>
</linearGradient>
<linearGradient id="paint28_linear_3_1353" x1="168.441" y1="36.7286" x2="57.2598" y2="19.6873" gradientUnits="userSpaceOnUse">
<stop stop-color="#731F24"/>
<stop offset="1" stop-color="#4F0A36"/>
</linearGradient>
<linearGradient id="paint29_linear_3_1353" x1="134.89" y1="13.023" x2="124.064" y2="68.0616" gradientUnits="userSpaceOnUse">
<stop stop-color="#270E0E"/>
<stop offset="1" stop-color="#340F37"/>
</linearGradient>
<linearGradient id="paint30_linear_3_1353" x1="127.687" y1="19.4861" x2="113.017" y2="89.5532" gradientUnits="userSpaceOnUse">
<stop stop-color="#731F24"/>
<stop offset="1" stop-color="#4F0A36"/>
</linearGradient>
<linearGradient id="paint31_linear_3_1353" x1="191.862" y1="29.763" x2="170.654" y2="45.6134" gradientUnits="userSpaceOnUse">
<stop stop-color="#31111B"/>
<stop offset="1" stop-color="#1A0F21"/>
</linearGradient>
<linearGradient id="paint32_linear_3_1353" x1="188.924" y1="129.834" x2="348.986" y2="129.834" gradientUnits="userSpaceOnUse">
<stop stop-color="#F7A190"/>
<stop offset="0.43" stop-color="#F3A592"/>
<stop offset="0.51" stop-color="#F39F8D"/>
<stop offset="0.76" stop-color="#F49383"/>
<stop offset="1" stop-color="#F58F80"/>
</linearGradient>
<linearGradient id="paint33_linear_3_1353" x1="311.92" y1="92.3926" x2="347.776" y2="92.3926" gradientUnits="userSpaceOnUse">
<stop stop-color="#F7A190"/>
<stop offset="0.43" stop-color="#F3A592"/>
<stop offset="0.51" stop-color="#F39F8D"/>
<stop offset="0.76" stop-color="#F49383"/>
<stop offset="1" stop-color="#F58F80"/>
</linearGradient>
<linearGradient id="paint34_linear_3_1353" x1="305.482" y1="84.8396" x2="322.336" y2="84.8396" gradientUnits="userSpaceOnUse">
<stop stop-color="#F7A190"/>
<stop offset="0.43" stop-color="#F3A592"/>
<stop offset="0.51" stop-color="#F39F8D"/>
<stop offset="0.76" stop-color="#F49383"/>
<stop offset="1" stop-color="#F58F80"/>
</linearGradient>
<linearGradient id="paint35_linear_3_1353" x1="313.967" y1="79.3986" x2="338.23" y2="79.3986" gradientUnits="userSpaceOnUse">
<stop stop-color="#F7A190"/>
<stop offset="0.43" stop-color="#F3A592"/>
<stop offset="0.51" stop-color="#F39F8D"/>
<stop offset="0.76" stop-color="#F49383"/>
<stop offset="1" stop-color="#F58F80"/>
</linearGradient>
<linearGradient id="paint36_linear_3_1353" x1="338.752" y1="83.2247" x2="349.45" y2="83.2247" gradientUnits="userSpaceOnUse">
<stop stop-color="#F7A190"/>
<stop offset="0.43" stop-color="#F3A592"/>
<stop offset="0.51" stop-color="#F39F8D"/>
<stop offset="0.76" stop-color="#F49383"/>
<stop offset="1" stop-color="#F58F80"/>
</linearGradient>
<linearGradient id="paint37_linear_3_1353" x1="318.351" y1="75.0591" x2="329.04" y2="75.0591" gradientUnits="userSpaceOnUse">
<stop stop-color="#F7A190"/>
<stop offset="0.43" stop-color="#F3A592"/>
<stop offset="0.51" stop-color="#F39F8D"/>
<stop offset="0.76" stop-color="#F49383"/>
<stop offset="1" stop-color="#F58F80"/>
</linearGradient>
<linearGradient id="paint38_linear_3_1353" x1="331.236" y1="81.1542" x2="342.207" y2="81.1542" gradientUnits="userSpaceOnUse">
<stop stop-color="#F7A190"/>
<stop offset="0.43" stop-color="#F3A592"/>
<stop offset="0.51" stop-color="#F39F8D"/>
<stop offset="0.76" stop-color="#F49383"/>
<stop offset="1" stop-color="#F58F80"/>
</linearGradient>
<linearGradient id="paint39_linear_3_1353" x1="324.574" y1="78.6698" x2="335.545" y2="78.6698" gradientUnits="userSpaceOnUse">
<stop stop-color="#F7A190"/>
<stop offset="0.43" stop-color="#F3A592"/>
<stop offset="0.51" stop-color="#F39F8D"/>
<stop offset="0.76" stop-color="#F49383"/>
<stop offset="1" stop-color="#F58F80"/>
</linearGradient>
<linearGradient id="paint40_linear_3_1353" x1="0.000691524" y1="239.375" x2="101.502" y2="239.375" gradientUnits="userSpaceOnUse">
<stop stop-color="#F7A190"/>
<stop offset="0.43" stop-color="#F3A592"/>
<stop offset="0.51" stop-color="#F39F8D"/>
<stop offset="0.76" stop-color="#F49383"/>
<stop offset="1" stop-color="#F58F80"/>
</linearGradient>
<linearGradient id="paint41_linear_3_1353" x1="0.000526267" y1="253.205" x2="101.502" y2="253.205" gradientUnits="userSpaceOnUse">
<stop stop-color="#F7A190"/>
<stop offset="0.43" stop-color="#F3A592"/>
<stop offset="0.51" stop-color="#F39F8D"/>
<stop offset="0.76" stop-color="#F49383"/>
<stop offset="1" stop-color="#F58F80"/>
</linearGradient>
<linearGradient id="paint42_linear_3_1353" x1="103.756" y1="293.859" x2="76.75" y2="293.859" gradientUnits="userSpaceOnUse">
<stop stop-color="#F7A190"/>
<stop offset="0.43" stop-color="#F3A592"/>
<stop offset="0.51" stop-color="#F39F8D"/>
<stop offset="0.76" stop-color="#F49383"/>
<stop offset="1" stop-color="#F58F80"/>
</linearGradient>
<linearGradient id="paint43_linear_3_1353" x1="85.6662" y1="323.458" x2="67.3034" y2="323.458" gradientUnits="userSpaceOnUse">
<stop stop-color="#F7A190"/>
<stop offset="0.43" stop-color="#F3A592"/>
<stop offset="0.51" stop-color="#F39F8D"/>
<stop offset="0.76" stop-color="#F49383"/>
<stop offset="1" stop-color="#F58F80"/>
</linearGradient>
<linearGradient id="paint44_linear_3_1353" x1="101.808" y1="308.559" x2="83.4454" y2="308.559" gradientUnits="userSpaceOnUse">
<stop stop-color="#F7A190"/>
<stop offset="0.43" stop-color="#F3A592"/>
<stop offset="0.51" stop-color="#F39F8D"/>
<stop offset="0.76" stop-color="#F49383"/>
<stop offset="1" stop-color="#F58F80"/>
</linearGradient>
<linearGradient id="paint45_linear_3_1353" x1="90.9528" y1="317.702" x2="72.0845" y2="317.702" gradientUnits="userSpaceOnUse">
<stop stop-color="#F7A190"/>
<stop offset="0.43" stop-color="#F3A592"/>
<stop offset="0.51" stop-color="#F39F8D"/>
<stop offset="0.76" stop-color="#F49383"/>
<stop offset="1" stop-color="#F58F80"/>
</linearGradient>
<linearGradient id="paint46_linear_3_1353" x1="96.0575" y1="312.758" x2="77.1974" y2="312.758" gradientUnits="userSpaceOnUse">
<stop stop-color="#F7A190"/>
<stop offset="0.43" stop-color="#F3A592"/>
<stop offset="0.51" stop-color="#F39F8D"/>
<stop offset="0.76" stop-color="#F49383"/>
<stop offset="1" stop-color="#F58F80"/>
</linearGradient>
<linearGradient id="paint47_linear_3_1353" x1="118.159" y1="69.9522" x2="152.089" y2="93.6774" gradientUnits="userSpaceOnUse">
<stop stop-color="#731F24"/>
<stop offset="1" stop-color="#4F0A36"/>
</linearGradient>
<linearGradient id="paint48_linear_3_1353" x1="172.682" y1="23.5754" x2="208.355" y2="119.963" gradientUnits="userSpaceOnUse">
<stop stop-color="#731F24"/>
<stop offset="1" stop-color="#4F0A36"/>
</linearGradient>
</defs>
</svg>
