<svg width="233" height="743" viewBox="0 0 233 743" fill="none" xmlns="http://www.w3.org/2000/svg">
<g style="mix-blend-mode:multiply">
<path d="M147.932 62.118C147.916 61.1116 147.916 60.1133 147.924 59.1394C137.973 59.1394 128.022 59.18 118.079 59.18H73.5027C71.0556 59.18 68.6085 59.1881 66.1614 59.1638C64.5029 59.1394 62.8362 59.1313 61.1858 59.2774C63.0395 68.0994 66.1045 101.237 66.0963 103.055C66.0801 105.895 67.6492 122.054 66.0963 125.658C64.5516 129.261 66.4622 137.937 66.4622 137.937C70.7141 140.396 73.0474 136.914 73.0474 136.914C71.9906 130.917 73.771 125.877 73.6653 122.095C73.5596 118.321 73.0474 108.079 73.0474 108.079C73.3076 111.357 75.1938 117.534 74.7547 121.616C74.3157 125.698 74.4295 131.874 74.4295 131.874C74.5352 133.652 79.5026 135.892 80.1205 133.952C81.1205 130.787 81.1124 123.474 81.1124 123.474C81.1124 123.474 81.4294 126.201 81.1124 130.462C80.7953 134.723 81.9823 138.327 81.9823 138.327C84.1692 140.729 87.3399 138.546 87.3399 138.546C87.3399 138.497 87.3399 134.812 87.9984 131.452C88.657 128.068 87.9984 120.009 87.9984 120.009C87.9984 120.009 88.657 123.702 88.9009 127.743C89.1448 131.785 88.9009 136.533 88.9009 136.533C92.1284 137.588 95.982 136.923 95.982 136.923C98.169 131.477 97.291 115.837 97.291 115.837C97.291 115.837 97.8763 118.832 98.4942 122.712C99.1121 126.591 98.4942 136.914 98.4942 136.914C102.429 138.018 105.242 136.354 105.242 136.354C105.104 131.55 105.998 117.688 105.998 117.688C105.998 117.688 108.559 123.255 108.99 128.717C109.429 134.179 108.884 137.564 108.99 139.317C109.258 143.667 114.169 138.432 114.169 138.432C117.079 133.92 117.86 117.688 117.86 117.688C118.421 121.616 119.6 131.769 119.6 131.769C122.99 133.295 125.429 131.769 125.429 131.769C126.705 130.933 127.486 125.146 127.559 124.603C127.112 128.742 128.242 134.058 128.242 134.058C132.152 137.669 133.673 134.731 133.673 134.731C133.998 128.693 134.981 121.705 134.583 118.004C134.038 112.875 136.689 108.614 136.689 108.614C136.689 108.614 137.144 112.283 136.843 116.438C136.534 120.585 137.705 124.879 137.705 124.879C142.209 126.526 144.42 124.002 144.42 124.002C144.38 119.977 143.469 118.037 143.876 114.539C144.274 111.049 148.063 69.4791 147.949 62.118H147.932Z" fill="#010101"/>
<g style="mix-blend-mode:multiply">
<path d="M145.469 94.0623C146.892 84.8832 147.486 66.7765 147.933 62.118C148.03 61.1197 147.916 60.1214 147.925 59.1394C137.973 59.1394 128.022 59.18 118.079 59.18H73.4948C71.0477 59.18 68.6006 59.1881 66.1534 59.1638C64.4949 59.1475 62.8283 59.1313 61.1779 59.2774C62.2836 64.5446 63.9746 84.7452 65.0315 89.1765C68.9339 79.5266 70.5518 88.8275 71.5273 102.13C71.8932 107.072 71.2021 122.59 70.7062 126.234C70.2022 129.87 66.3973 130.308 65.6656 127.151C64.9665 131.217 66.4542 137.929 66.4542 137.929C70.7062 140.388 73.0395 136.906 73.0395 136.906C71.9826 130.909 73.7631 125.869 73.6574 122.087C73.5517 118.313 73.0395 108.07 73.0395 108.07C73.2997 111.349 75.1858 117.525 74.7468 121.608C74.3078 125.69 74.4216 131.866 74.4216 131.866C74.5273 133.644 79.4947 135.884 80.1126 133.944C81.1126 130.779 81.1044 123.466 81.1044 123.466C81.1044 123.466 81.4215 126.193 81.1044 130.454C80.7874 134.715 81.9743 138.319 81.9743 138.319C84.1613 140.721 87.332 138.538 87.332 138.538C87.332 138.489 87.332 134.804 87.9905 131.444C88.649 128.06 87.9905 120.001 87.9905 120.001C87.9905 120.001 88.649 123.694 88.8929 127.735C89.1368 131.777 88.8929 136.525 88.8929 136.525C92.1205 137.58 95.9741 136.914 95.9741 136.914C98.1611 131.469 97.283 115.829 97.283 115.829C97.283 115.829 97.8684 118.824 98.4863 122.703C99.1042 126.583 98.4863 136.906 98.4863 136.906C102.421 138.01 105.234 136.346 105.234 136.346C105.096 131.542 105.99 117.68 105.99 117.68C105.99 117.68 108.551 123.247 108.982 128.709C109.421 134.171 108.876 137.556 108.982 139.309C109.25 143.659 114.161 138.424 114.161 138.424C117.071 133.912 117.852 117.68 117.852 117.68C118.413 121.608 119.592 131.761 119.592 131.761C122.982 133.287 125.421 131.761 125.421 131.761C126.697 130.925 127.478 125.138 127.551 124.594C127.104 128.734 128.234 134.05 128.234 134.05C132.144 137.661 133.665 134.723 133.665 134.723C133.99 128.685 134.974 121.697 134.575 117.996C134.03 112.867 136.681 108.606 136.681 108.606C136.681 108.606 137.136 112.274 136.835 116.43C136.526 120.577 137.697 124.87 137.697 124.87C142.201 126.518 144.412 123.994 144.412 123.994C144.38 120.626 143.738 118.719 143.77 116.138C143.77 116.138 141.648 120.066 140.77 118.613C139.892 117.16 139.608 111.228 140.193 106.423C140.778 101.618 145.477 94.0542 145.477 94.0542L145.469 94.0623ZM76.6167 129.691C75.8606 128.928 76.0395 124.343 75.7143 121.356C74.9988 114.88 73.3241 99.8652 74.2265 100.092C75.1045 100.312 78.9663 106.959 79.2345 108.16C79.5028 109.361 79.1126 124.124 79.1126 125.869C79.1126 127.614 77.3647 130.454 76.6086 129.691H76.6167ZM133.039 127.614C132.933 130.016 130.299 134.139 129.9 133.043C129.51 131.948 128.405 114.003 128.291 110.181C128.185 106.358 131.087 95.4907 132.689 93.7701C133.974 92.3904 133.136 125.203 133.03 127.605L133.039 127.614Z" fill="#010101"/>
</g>
</g>
<path d="M30.9101 197.435L30.6012 248.557C30.6012 248.557 6.69095 331.859 23.7476 409.667C40.8124 487.483 57.1373 197.557 57.1373 197.557L30.9101 197.427V197.435Z" fill="url(#paint0_linear_2_958)"/>
<path d="M105.275 397.112L187.314 723.129L219.753 719.388L201.038 685.763L150.38 372.65L105.275 397.112Z" fill="url(#paint1_linear_2_958)"/>
<path opacity="0.2" d="M196.021 654.785L150.38 372.65L105.275 397.112L171.363 659.76C179.566 658.007 187.786 656.367 196.021 654.793V654.785Z" fill="#201829"/>
<path d="M93.7465 379.954L84.2588 705.663L60.6738 690.43L29.6336 364.891L93.7465 379.954Z" fill="url(#paint2_linear_2_958)"/>
<path opacity="0.2" d="M85.649 657.966L93.7465 379.954L29.6255 364.891L57.5438 657.625C66.9095 657.325 76.4053 657.804 85.649 657.958V657.966Z" fill="#201829"/>
<path d="M40.7229 208.034L47.1049 290.663L149.681 277.101L119.795 225.094L40.7229 208.034Z" fill="url(#paint3_linear_2_958)"/>
<path d="M43.7555 240.92C43.7555 240.92 74.9664 253.711 129.787 244.296C129.787 244.296 179.209 289.372 186.696 346.663C191.948 386.877 215.346 639.072 215.346 639.072L141.047 644.696L73.1534 323.005L106.844 352.896L96.8603 641.856L19.081 647.935C19.081 647.935 -7.95106 390.262 43.7555 240.92Z" fill="#ED1C59"/>
<path d="M154.786 184.807L190.314 215.412L153.786 258.102C153.786 258.102 140.412 247.867 136.843 250.757C127.608 258.248 118.258 285.85 135.957 259.222C135.957 259.222 117.421 302.407 142.193 261.437C142.193 261.437 129.705 301.498 148.233 267.386C148.233 267.386 140.559 301.473 152.412 271.404C152.412 271.404 156.859 278.895 163.941 273.644C171.022 268.393 226.923 225.605 232.175 212.725C237.427 199.854 181.152 159.12 181.152 159.12L154.778 184.807H154.786Z" fill="url(#paint4_linear_2_958)"/>
<path opacity="0.2" d="M84.6898 342.93C60.6007 329.985 42.0319 314.288 28.1785 299.672C-1.75602 449.232 19.0729 647.935 19.0729 647.935L96.8522 641.856L102.982 464.376L106.169 479.496C93.9986 408.36 84.6817 342.93 84.6817 342.93H84.6898Z" fill="#201829"/>
<path opacity="0.2" d="M125.722 235.401L119.803 225.094L40.7311 208.034L43.3083 241.432C66.2266 243.298 98.8033 243.712 125.722 235.401Z" fill="#201829"/>
<path d="M76.2834 132.751C76.2834 132.751 58.3487 130.478 49.0887 136.314C37.3816 143.699 29.6093 167.584 29.6337 183.346C29.6581 197.849 43.3083 241.431 43.3083 241.431C43.3083 241.431 93.9091 251.276 125.722 235.401L149.274 188.8L167.989 203.749L198.867 171.058C198.867 171.058 174.534 142.1 151.144 140.234L129.624 137.434C129.624 137.434 80.0313 159.85 76.2834 132.759V132.751Z" fill="#FDEFE6"/>
<path d="M59.8853 688.093L86.0881 694.634L88.8929 714.25L0 717.521C0 717.521 5.2926 708.179 59.8853 688.093Z" fill="white"/>
<path d="M0 717.521L88.9011 714.25L89.836 720.792L0.934945 721.725L0 717.521Z" fill="#2B2238"/>
<path d="M52.2349 690.706C55.0479 693.449 56.9259 696.931 59.1535 700.128C59.3486 700.412 59.8202 700.145 59.6169 699.861C57.3649 696.63 55.4625 693.108 52.617 690.333C52.3731 690.089 51.991 690.47 52.2349 690.714V690.706Z" fill="#2B2238"/>
<path d="M46.6578 692.353C49.4708 695.097 51.3488 698.578 53.5764 701.776C53.7715 702.06 54.243 701.792 54.0398 701.508C51.7878 698.278 49.8854 694.756 47.0399 691.98C46.796 691.737 46.4139 692.118 46.6578 692.361V692.353Z" fill="#2B2238"/>
<path d="M40.536 694.439C43.349 697.182 45.227 700.664 47.4546 703.862C47.6497 704.146 48.1213 703.878 47.918 703.594C45.666 700.364 43.7636 696.841 40.9181 694.066C40.6742 693.822 40.2921 694.204 40.536 694.447V694.439Z" fill="#2B2238"/>
<path d="M176.387 679.692L182.94 714.721C182.94 714.721 194.639 748.816 217.566 740.878C240.492 732.941 200.72 680.626 200.72 680.626C200.72 680.626 189.021 690.438 176.387 679.692Z" fill="white"/>
<path d="M217.566 735.271C195.55 740.765 184.769 715.565 181.851 708.877L182.94 714.721C182.94 714.721 194.639 748.816 217.566 740.879C222.907 739.028 224.818 734.759 224.647 729.313C223.403 731.115 221.305 734.337 217.566 735.271Z" fill="#2B2238"/>
<path d="M189.9 689.87C193.208 687.743 197.021 686.688 200.639 685.236C200.956 685.106 200.818 684.586 200.493 684.716C196.834 686.193 192.973 687.257 189.623 689.407C189.33 689.594 189.599 690.057 189.891 689.87H189.9Z" fill="#2B2238"/>
<path d="M192.371 695.924C195.753 693.92 199.607 693.011 203.273 691.688C203.598 691.574 203.46 691.055 203.127 691.168C199.412 692.507 195.517 693.433 192.095 695.454C191.794 695.632 192.07 696.095 192.363 695.916L192.371 695.924Z" fill="#2B2238"/>
<path d="M195.859 701.719C199.086 699.439 202.875 698.213 206.444 696.59C206.761 696.444 206.485 695.981 206.176 696.127C202.607 697.75 198.818 698.976 195.59 701.257C195.314 701.451 195.582 701.922 195.859 701.719Z" fill="#2B2238"/>
<path d="M90.9417 99.2402L85.8686 132.564L69.7875 132.313L63.0966 132.499L90.7059 170.92L138.177 138.53L117.071 135.583L119.836 90.3533L90.9417 99.2402Z" fill="url(#paint5_linear_2_958)"/>
<g style="mix-blend-mode:multiply">
<path d="M86.4701 123.539C86.4701 123.539 99.7382 136.387 117.583 132.369L118.909 114.084C118.909 114.084 109.275 120.131 86.8766 113.11L86.4701 123.539Z" fill="#CE488A"/>
</g>
<path d="M157.754 75.7771C157.477 76.7916 157.184 77.7006 156.884 78.5122C156.884 78.5284 156.876 78.5365 156.867 78.5527C154.689 84.3475 151.827 85.573 150.55 88.1783C149.445 90.4264 145.364 94.8252 141.884 89.7933C141.876 89.7933 141.868 89.7771 141.868 89.7771C141.868 89.7771 144.803 70.3313 146.453 66.8577C146.453 66.8577 148.843 61.6472 152.632 61.0629C157.502 60.3081 160.16 66.7927 157.754 75.7771Z" fill="url(#paint6_linear_2_958)"/>
<path style="mix-blend-mode:multiply" opacity="0.6" d="M143.876 77.7332C143.876 77.7332 152.038 67.2636 155.681 66.7604C159.323 66.2573 156.973 75.4039 156.071 78.4474C155.168 81.4909 153.973 83.2439 153.973 83.2439C153.973 83.2439 155.095 79.6567 155.445 76.7187C155.949 72.4984 154.811 68.7894 153.282 69.0491C151.754 69.3089 149.404 74.5112 149.242 75.1036C149.071 75.7042 150.144 76.8486 149.884 80.1355C149.624 83.4225 147.843 86.8961 146.99 86.7987C146.136 86.7094 146.664 84.0636 146.843 80.9958C147.022 77.928 144.583 78.3825 143.404 80.3141L143.868 77.7251L143.876 77.7332Z" fill="url(#paint7_linear_2_958)"/>
<path style="mix-blend-mode:multiply" opacity="0.6" d="M143.412 80.3139C143.412 80.3139 145.518 77.5058 146.599 78.9017C147.681 80.2977 146.632 83.9255 147.494 84.4206C148.355 84.9156 149.721 82.0101 149.648 79.2751C149.575 76.54 148.64 74.0403 147.071 74.4055L143.868 77.733L143.404 80.322L143.412 80.3139Z" fill="url(#paint8_linear_2_958)"/>
<g style="mix-blend-mode:multiply">
<path d="M156.859 78.5608C154.681 84.3556 151.819 85.5811 150.542 88.1863C149.437 90.4344 145.355 94.8333 141.876 89.8014C142.087 89.9962 144.169 91.8953 146.421 91.2217C148.803 90.5075 149.672 88.3811 150.762 86.7498C151.835 85.1185 154.437 84.1121 156.859 78.5608Z" fill="#CE488A"/>
</g>
<path d="M51.3243 69.5521C51.4788 70.5909 51.6658 71.5324 51.869 72.3764L51.8853 72.417C53.3731 78.4309 56.0722 79.9811 57.0397 82.708C57.8689 85.0617 61.4136 89.9069 65.4623 85.3214C65.4704 85.3214 65.4786 85.3051 65.4786 85.3051C65.4786 85.3051 64.8363 65.6483 63.6005 62.0124C63.6005 62.0124 61.8363 56.5585 58.1372 55.5359C53.3893 54.213 49.991 60.3486 51.3243 69.5521Z" fill="url(#paint9_linear_2_958)"/>
<path style="mix-blend-mode:multiply" opacity="0.6" d="M64.8769 73.1068C64.8769 73.1068 57.9908 61.7607 54.4299 60.8355C50.869 59.9103 52.1291 69.268 52.6738 72.3926C53.2185 75.5173 54.1941 77.4002 54.1941 77.4002C54.1941 77.4002 53.5031 73.7074 53.4949 70.7532C53.4949 66.5086 55.0478 62.9538 56.5437 63.3839C58.0396 63.8141 59.755 69.2599 59.8526 69.8686C59.9501 70.4854 58.755 71.4999 58.6249 74.7868C58.4949 78.0738 59.8607 81.7341 60.7143 81.7422C61.568 81.7503 61.3566 79.0639 61.5436 75.9961C61.7306 72.9283 64.0883 73.6587 65.0395 75.7202L64.8769 73.0987V73.1068Z" fill="url(#paint10_linear_2_958)"/>
<path style="mix-blend-mode:multiply" opacity="0.6" d="M65.0314 75.7284C65.0314 75.7284 63.2672 72.693 62.0314 73.951C60.7957 75.2089 61.4136 78.9423 60.4949 79.3318C59.5762 79.7214 58.5599 76.6779 58.9583 73.9672C59.3486 71.2565 60.5762 68.8866 62.0884 69.4304L64.8769 73.1069L65.0395 75.7284H65.0314Z" fill="url(#paint11_linear_2_958)"/>
<g style="mix-blend-mode:multiply">
<path d="M51.8852 72.4168C53.373 78.4307 56.0721 79.9809 57.0396 82.7078C57.8688 85.0615 61.4135 89.9067 65.4622 85.3212C65.2264 85.4916 62.9419 87.131 60.7794 86.1977C58.4948 85.2156 57.877 82.9919 56.9908 81.2551C56.1128 79.5101 53.6494 78.2116 51.8933 72.4087L51.8852 72.4168Z" fill="#CE488A"/>
</g>
<path d="M143.965 82.9353C143.941 83.0327 143.9 83.2031 143.835 83.4385C142.559 88.6408 141.144 95.6368 140.152 98.2501C136.282 108.436 118.917 118.353 101.893 117.363C84.8685 116.365 68.7793 104.491 66.137 93.9243C65.8281 92.6826 65.4948 91.0675 65.1696 89.1603C64.0233 82.4971 63.0395 69.6982 62.6005 59.813C62.1046 48.5886 62.5192 37.6971 64.8363 32.6165C66.4622 29.0536 70.2345 25.0199 75.5841 21.5626C83.5108 16.4252 94.9252 12.5457 107.998 13.3086C129.908 14.591 145.632 28.2663 148.607 37.5185C151.29 45.8698 147.615 67.8478 143.957 82.9434L143.965 82.9353Z" fill="url(#paint12_linear_2_958)"/>
<g style="mix-blend-mode:multiply">
<path d="M143.843 83.4387C142.567 88.641 141.152 95.637 140.16 98.2503C136.29 108.436 118.925 118.354 101.901 117.363C84.8766 116.365 68.7874 104.491 66.1452 93.9245C65.8363 92.6828 65.5029 91.0677 65.1777 89.1605L64.5842 85.0781C64.5842 85.0781 65.6411 93.1048 70.4297 100.296C75.2182 107.478 88.6408 114.92 102.006 115.7C115.364 116.479 130.291 109.361 135.469 103.85C139.998 99.0294 143.16 86.0764 143.843 83.4387Z" fill="#CE488A"/>
</g>
<path style="mix-blend-mode:multiply" opacity="0.6" d="M71.2833 47.266C69.4785 52.3953 62.8282 59.5617 62.6087 59.797C62.1127 48.5808 62.5274 37.6892 64.8444 32.6086C66.4704 29.0457 70.2427 25.0121 75.5922 21.5547C70.763 29.0376 73.1207 42.0637 71.2914 47.266H71.2833Z" fill="url(#paint13_linear_2_958)"/>
<path style="mix-blend-mode:multiply" opacity="0.6" d="M140.502 51.3158C141.697 56.6155 147.461 64.5204 147.656 64.772C149.461 53.6856 150.323 42.8265 148.616 37.5025C147.42 33.7772 144.144 29.3297 139.234 25.2717C143.16 33.2659 139.29 45.9268 140.502 51.3077V51.3158Z" fill="url(#paint14_linear_2_958)"/>
<path style="mix-blend-mode:multiply" opacity="0.6" d="M116.25 51.0476C116.25 51.0476 115.706 73.545 119.096 77.1729C122.478 80.8007 132.665 80.2163 139.274 75.8662C145.884 71.5161 145.225 55.4465 145.225 55.4465C145.225 55.4465 139.299 48.5804 129.104 49.5137C118.917 50.4471 116.25 51.0476 116.25 51.0476Z" fill="url(#paint15_linear_2_958)"/>
<path style="mix-blend-mode:multiply" opacity="0.6" d="M98.0147 51.0476C98.0147 51.0476 98.5594 73.545 95.1692 77.1729C91.7871 80.8007 81.6003 80.2163 74.9907 75.8662C68.381 71.5161 69.0395 55.4465 69.0395 55.4465C69.0395 55.4465 74.9663 48.5804 85.1612 49.5137C95.3481 50.4471 98.0147 51.0476 98.0147 51.0476Z" fill="url(#paint16_linear_2_958)"/>
<path d="M117.608 85.2889C117.608 85.2889 117.421 85.8651 115.218 85.9382C113.023 86.0274 110.974 87.9347 107.25 87.9347C103.527 87.9347 101.665 86.0193 99.4619 85.9382C97.2668 85.857 96.8928 85.2889 96.8928 85.2889C96.5676 83.8605 96.7709 82.4645 97.1774 81.2715C97.1774 81.2715 97.1855 81.239 97.1855 81.2228C97.9091 79.1289 99.2099 77.6599 99.2099 77.6599C104.437 75.144 110.047 75.144 115.275 77.6599C115.275 77.6599 116.112 78.6014 116.811 80.0541V80.0703C117.486 81.4744 118.039 83.3411 117.592 85.2889H117.608Z" fill="url(#paint17_linear_2_958)"/>
<path d="M112.624 86.6443C112.624 86.6443 114.315 85.1996 116.405 85.8245L112.624 86.6443Z" fill="#822852"/>
<path d="M98.3399 85.8327C98.3399 85.8327 100.47 85.1996 102.608 86.8959L98.3399 85.8327Z" fill="#822852"/>
<g style="mix-blend-mode:multiply" opacity="0.6">
<path d="M117.608 85.2888C117.608 85.2888 117.421 85.865 115.218 85.9381C113.023 86.0274 110.974 87.9346 107.25 87.9346C103.527 87.9346 101.665 86.0192 99.4619 85.9381C97.2668 85.8569 96.8929 85.2888 96.8929 85.2888C96.5677 83.8604 96.7709 82.4645 97.1774 81.2714C97.0961 81.6204 96.6327 83.8847 97.5107 84.4366C98.4619 85.0291 103.86 84.6801 107.25 84.6801C110.641 84.6801 116.405 84.6882 117.055 83.7955C117.673 82.9352 116.901 80.3218 116.828 80.0784C117.502 81.4824 118.055 83.3491 117.608 85.2969V85.2888Z" fill="#CC77B1"/>
</g>
<path style="mix-blend-mode:multiply" opacity="0.6" d="M115.283 77.6598C115.283 77.6598 114.071 81.3931 114.218 84.0064C114.218 84.0064 113.315 81.458 114.51 77.3108L115.283 77.6598Z" fill="url(#paint18_linear_2_958)"/>
<path style="mix-blend-mode:multiply" opacity="0.6" d="M99.4132 77.6598C99.4132 77.6598 100.625 81.3931 100.478 84.0064C100.478 84.0064 101.381 81.458 100.186 77.3108L99.4132 77.6598Z" fill="url(#paint19_linear_2_958)"/>
<g style="mix-blend-mode:multiply">
<path d="M97.5189 84.4286C97.5189 84.4286 97.0067 84.9967 96.901 85.2889C96.7953 85.5811 101.722 90.2153 107.259 90.2153C112.795 90.2153 117.51 85.8489 117.616 85.2889C117.714 84.7208 116.811 84.0066 116.811 84.0066C116.811 84.0066 112.486 84.6721 107.259 84.6721C102.031 84.6721 97.5189 84.4286 97.5189 84.4286Z" fill="#C38ABD"/>
</g>
<g style="mix-blend-mode:multiply">
<path d="M96.5432 53.0767C96.5432 53.0767 94.4457 52.0947 89.3807 51.908C87.8767 51.8512 86.1125 51.8674 84.0719 51.9973C75.1208 52.5654 68.812 54.3347 68.812 54.3347C68.8689 54.1642 71.3322 49.944 74.4948 48.0611C74.4704 48.1016 74.0802 48.824 74.1289 49.6031C74.1289 49.6031 77.7549 46.6002 82.7711 45.3828C83.706 45.1556 84.6898 44.9932 85.706 44.9202C92.1774 44.4657 95.2343 49.6274 95.2343 49.6274C95.2343 49.6274 95.0798 48.2883 94.3888 47.4848C94.3888 47.4848 96.4944 48.97 96.5432 53.0767Z" fill="#311312"/>
<g style="mix-blend-mode:multiply">
<path d="M89.3808 51.908C87.8768 51.8512 86.1126 51.8675 84.072 51.9973C75.1209 52.5654 68.8121 54.3347 68.8121 54.3347C68.869 54.1643 71.3323 49.944 74.4949 48.0611C74.4705 48.1017 74.0803 48.824 74.129 49.6031C74.129 49.6031 77.755 46.6002 82.7712 45.3828C80.9989 46.3324 77.1453 48.4831 74.9177 51.7701C74.9177 51.7701 79.755 49.9359 89.389 51.908H89.3808Z" fill="#311312"/>
</g>
<path d="M116.925 53.0767C116.925 53.0767 119.023 52.0947 124.088 51.908C125.592 51.8512 127.356 51.8674 129.397 51.9973C138.348 52.5654 144.656 54.3347 144.656 54.3347C144.6 54.1642 142.136 49.944 138.974 48.0611C138.998 48.1016 139.388 48.824 139.339 49.6031C139.339 49.6031 135.713 46.6002 130.697 45.3828C129.762 45.1556 128.779 44.9932 127.762 44.9202C121.291 44.4657 118.234 49.6274 118.234 49.6274C118.234 49.6274 118.389 48.2883 119.08 47.4848C119.08 47.4848 116.974 48.97 116.925 53.0767Z" fill="#311312"/>
<g style="mix-blend-mode:multiply">
<path d="M124.088 51.908C125.592 51.8512 127.356 51.8675 129.396 51.9973C138.348 52.5654 144.656 54.3347 144.656 54.3347C144.6 54.1643 142.136 49.944 138.974 48.0611C138.998 48.1017 139.388 48.824 139.339 49.6031C139.339 49.6031 135.713 46.6002 130.697 45.3828C132.47 46.3324 136.323 48.4831 138.551 51.7701C138.551 51.7701 133.713 49.9359 124.079 51.908H124.088Z" fill="#311312"/>
</g>
</g>
<path d="M141.258 66.4921C141.258 66.4921 139.599 69.9982 134.356 71.4672C129.112 72.9362 123.502 72.9849 120.079 71.5727C120.079 71.5727 120.226 70.3959 120.827 68.7971C121.876 66.0295 124.323 62.004 129.803 60.6649C137.412 58.8145 140.486 64.7229 141.128 66.1756C141.209 66.3785 141.258 66.4921 141.258 66.4921Z" fill="url(#paint20_linear_2_958)"/>
<path d="M129.201 72.6034C133.256 72.6034 136.543 69.3223 136.543 65.2747C136.543 61.2272 133.256 57.946 129.201 57.946C125.147 57.946 121.86 61.2272 121.86 65.2747C121.86 69.3223 125.147 72.6034 129.201 72.6034Z" fill="url(#paint21_linear_2_958)"/>
<path style="mix-blend-mode:multiply" d="M129.201 69.414C131.491 69.414 133.347 67.5609 133.347 65.2749C133.347 62.9889 131.491 61.1357 129.201 61.1357C126.911 61.1357 125.055 62.9889 125.055 65.2749C125.055 67.5609 126.911 69.414 129.201 69.414Z" fill="url(#paint22_linear_2_958)"/>
<g style="mix-blend-mode:multiply" opacity="0.6">
<path d="M141.136 66.1756C139.234 64.7147 135.884 63.262 131.201 63.262C125.413 63.262 121.039 68.3426 120.836 68.7971C121.884 66.0295 124.331 62.004 129.811 60.6649C137.421 58.8145 140.494 64.7229 141.136 66.1756Z" fill="#CC77B1"/>
</g>
<path d="M121.535 67.2145C121.535 67.2145 121.949 60.251 128.193 57.6539C135.998 54.4075 140.234 64.5443 140.234 64.5443C140.234 64.5443 130.795 53.9611 121.535 67.2145Z" fill="#AF1E52"/>
<path d="M123.356 72.4086C123.99 72.4816 134.356 70.7935 140.331 67.8312C140.494 67.7501 138.112 71.2724 133.534 72.3843C127.266 73.9101 123.356 72.4086 123.356 72.4086Z" fill="#86152F"/>
<path d="M120.836 68.7971C120.836 68.7971 118.974 71.2968 119.177 71.9948C119.388 72.6847 121.86 72.1409 121.86 72.1409C121.86 72.1409 120.502 71.4267 120.51 70.9884C120.518 70.5502 120.836 68.8052 120.836 68.8052V68.7971Z" fill="#86152F"/>
<path d="M140.916 65.7213C140.916 65.7213 140.29 62.5317 139.599 61.5821C138.908 60.6326 134.559 58.6847 129.624 59.4395C124.689 60.1943 122.169 65.145 120.998 68.3752C120.998 68.3752 125.128 61.0789 131.64 61.2007C138.152 61.3305 140.925 65.7131 140.925 65.7131L140.916 65.7213Z" fill="#2B101F"/>
<path d="M131.844 64.3901C131.616 64.4631 131.575 65.1205 131.844 65.0556C132.112 64.9907 132.616 64.9663 132.616 64.7229C132.616 64.4794 132.144 64.2927 131.844 64.3901Z" fill="white"/>
<path d="M72.4215 66.5085C72.4215 66.5085 74.08 70.0146 79.3239 71.4836C84.5677 72.9526 90.1774 73.0013 93.6001 71.5891C93.6001 71.5891 93.4537 70.4123 92.8521 68.8134C91.8033 66.0459 89.3562 62.0204 83.8766 60.6812C76.267 58.8308 73.1939 64.7392 72.5516 66.192C72.4703 66.3949 72.4215 66.5085 72.4215 66.5085Z" fill="url(#paint23_linear_2_958)"/>
<path d="M89.6712 70.4742C92.5382 67.6121 92.5381 62.9719 89.6712 60.1098C86.8042 57.2478 82.1559 57.2478 79.2889 60.1098C76.422 62.9719 76.422 67.6121 79.2889 70.4742C82.1559 73.3362 86.8042 73.3362 89.6712 70.4742Z" fill="url(#paint24_linear_2_958)"/>
<path style="mix-blend-mode:multiply" d="M87.4119 68.2188C89.0311 66.6024 89.0311 63.9816 87.4119 62.3652C85.7927 60.7487 83.1674 60.7487 81.5482 62.3652C79.929 63.9816 79.929 66.6024 81.5482 68.2188C83.1674 69.8352 85.7927 69.8352 87.4119 68.2188Z" fill="url(#paint25_linear_2_958)"/>
<g style="mix-blend-mode:multiply" opacity="0.6">
<path d="M72.5516 66.192C74.4541 64.7311 77.8036 63.2784 82.4865 63.2784C88.275 63.2784 92.6489 68.3589 92.8521 68.8134C91.8034 66.0459 89.3563 62.0204 83.8767 60.6812C76.267 58.8308 73.1939 64.7392 72.5516 66.192Z" fill="#CC77B1"/>
</g>
<path d="M92.1448 67.2306C92.1448 67.2306 91.7302 60.2671 85.4864 57.67C77.6816 54.4236 73.4459 64.5605 73.4459 64.5605C73.4459 64.5605 82.8848 53.9773 92.1448 67.2306Z" fill="#AF1E52"/>
<path d="M90.3318 72.425C89.6977 72.498 79.332 70.8099 73.3565 67.8476C73.1939 67.7664 75.5759 71.2887 80.1531 72.4006C86.4213 73.9264 90.3318 72.425 90.3318 72.425Z" fill="#86152F"/>
<path d="M92.8521 68.8135C92.8521 68.8135 94.7139 71.3132 94.5106 72.0112C94.2992 72.701 91.8277 72.1572 91.8277 72.1572C91.8277 72.1572 93.1854 71.443 93.1773 71.0048C93.1692 70.5665 92.8521 68.8216 92.8521 68.8216V68.8135Z" fill="#86152F"/>
<path d="M72.763 65.7374C72.763 65.7374 73.389 62.5478 74.0801 61.5982C74.7711 60.6487 79.1207 58.7008 84.0555 59.4556C88.9904 60.2104 91.5107 65.1611 92.6814 68.3913C92.6814 68.3913 88.5514 61.095 82.0393 61.2168C75.5272 61.3466 72.7549 65.7292 72.7549 65.7292L72.763 65.7374Z" fill="#2B101F"/>
<path d="M81.836 64.4065C82.0637 64.4795 82.1043 65.1369 81.836 65.072C81.5677 65.007 81.0637 64.9827 81.0637 64.7392C81.0637 64.4957 81.5352 64.3091 81.836 64.4065Z" fill="white"/>
<g style="mix-blend-mode:multiply">
<path d="M94.8847 104.499C94.8847 104.499 100.381 110.229 105.047 110.667C109.714 111.106 116.86 104.134 116.86 104.134C116.86 104.134 106.12 113.654 94.8847 104.499Z" fill="#C38ABD"/>
</g>
<path d="M87.4296 93.3318C87.4296 93.3318 92.6165 108.744 105.649 108.744C118.681 108.744 123.868 93.3886 123.868 93.3886L105.893 100.344L87.4296 93.3318Z" fill="#AE4666"/>
<path d="M105.649 96.1236C94.8848 96.3022 86.1613 91.9358 86.1613 91.9358C86.1613 91.9358 91.0555 103.493 105.649 103.493C120.242 103.493 125.136 91.9358 125.136 91.9358C125.136 91.9358 116.421 96.3022 105.649 96.1236Z" fill="#541020"/>
<path d="M113.811 93.1126C109.283 92.4552 102.023 92.4552 97.4945 93.1126C92.9661 93.77 87.4378 92.5039 87.4378 92.5039C87.4378 92.5039 95.8848 96.4564 105.657 96.1236C115.429 96.4645 123.876 92.5039 123.876 92.5039C123.876 92.5039 118.348 93.7781 113.819 93.1126H113.811Z" fill="#7B1B43"/>
<path d="M90.771 93.7861C90.771 93.7861 96.9986 99.4998 105.25 99.4998C113.502 99.4998 119.909 93.989 119.909 93.989C119.909 93.989 114.023 96.4887 105.584 96.4887C97.1449 96.4887 90.771 93.7861 90.771 93.7861Z" fill="#FBDCEA"/>
<path d="M123.071 90.8239C123.071 90.8239 126.128 92.6338 126.722 94.3219C126.722 94.3219 126.275 91.2297 125.25 90.4425C124.226 89.6552 123.071 90.8239 123.071 90.8239Z" fill="url(#paint26_linear_2_958)"/>
<path d="M88.4945 90.8239C88.4945 90.8239 85.4377 92.6338 84.8442 94.3219C84.8442 94.3219 85.2913 91.2297 86.3157 90.4425C87.3401 89.6552 88.4945 90.8239 88.4945 90.8239Z" fill="url(#paint27_linear_2_958)"/>
<g style="mix-blend-mode:soft-light">
<path d="M111.706 103.493C111.706 103.493 112.86 104.24 113.437 105.635L114.38 105.149C114.38 105.149 114.494 104.361 113.047 103.03L111.714 103.493H111.706Z" fill="#FBDCEA"/>
</g>
<g style="mix-blend-mode:soft-light">
<path d="M113.559 103.03C113.559 103.03 114.681 103.607 114.803 104.905L115.08 104.605C115.08 104.605 114.779 103.225 113.689 103.03H113.567H113.559Z" fill="#FBDCEA"/>
</g>
<path d="M96.1855 101.561C96.1855 101.561 104.234 104.329 114.803 101.561C114.803 101.561 106.998 106.025 96.1855 101.561Z" fill="#FBDCEA"/>
<g style="mix-blend-mode:multiply">
<path d="M152.689 30.3683C152.29 31.8859 151.25 33.5254 151.25 33.5254C152.64 37.9729 152.193 42.2743 152.193 43.021C152.193 44.1329 150.615 45.6506 150.615 45.6506C151.542 48.6859 152.502 55.8199 152.502 55.8199L149.209 58.1816L146.957 68.0993C146.957 68.0993 146.461 60.3972 146.453 52.7114C146.453 45.0338 141.803 33.5091 141.803 33.5091C121.38 21.7816 92.5432 24.0135 92.5432 24.0135L94.3318 19.9717C90.3969 21.181 81.4377 21.5868 81.4377 21.5868L85.3807 16.5143C82.3889 17.8941 77.2914 20.6859 77.1288 20.7752C77.828 17.5451 80.5434 14.7126 80.5434 14.7126C75.3484 16.5306 75.9744 24.9062 75.9744 24.9062C72.9256 24.9062 69.6574 23.2019 69.6574 23.2019C71.9419 24.9062 73.7061 26.2372 73.7061 26.2372C70.9013 26.5375 69.5273 26.992 69.5273 26.992C72.3484 27.4465 75.3077 29.5729 75.3077 29.5729C75.3077 29.5729 67.2509 38.3625 66.3892 43.2158C65.5274 48.0691 63.3811 63.7248 63.3811 63.7248L59.6088 56.3312C59.2267 53.8315 60.2185 46.7057 60.2185 46.7057C58.0478 42.3149 57.3893 35.0349 58.6007 32.9085C59.812 30.7822 61.3811 31.188 61.3811 31.188C60.6657 26.8459 62.5437 21.4894 64.2429 19.4685C64.4786 19.1926 64.7144 18.9572 64.9583 18.7625C66.4542 17.5288 67.942 17.7561 67.942 17.7561C67.942 17.7561 67.6493 15.4268 68.9013 13.3085C69.2509 12.7161 69.6493 12.1885 70.0802 11.7178C73.0639 8.43898 77.6004 7.91956 78.3077 7.74912C79.1125 7.56246 80.454 8.45521 80.454 8.45521C83.4377 4.24304 86.9498 2.55492 89.4051 1.8326C89.4051 1.8326 89.4132 1.8326 89.4213 1.8326C89.5758 1.79202 89.7221 1.75144 89.8685 1.71086C89.8847 1.71086 89.8929 1.71086 89.9091 1.70275C90.1937 1.6297 90.4538 1.57289 90.6977 1.52419C90.714 1.52419 90.7384 1.52419 90.7546 1.51608C91.3237 1.40246 91.779 1.34564 92.0798 1.31318C95.0554 0.931731 95.7708 3.1068 95.7708 3.1068C101.315 0.274339 108.844 -0.228849 109.649 0.0795567C110.454 0.387963 111.299 2.37637 111.348 2.49811C114.551 1.71898 116.876 1.41057 118.551 1.34564C120.754 1.26448 121.811 1.59724 122.185 1.84072C123.437 2.63608 123.657 3.44767 123.616 3.98333C123.592 4.38101 123.437 4.61637 123.437 4.61637C125.299 4.41347 126.941 4.39724 128.372 4.49463C133.396 4.84362 135.811 6.64535 136.16 7.1242C136.608 7.73289 137.112 10.9874 137.112 10.9874C139.242 11.0117 140.925 11.2877 142.266 11.7097C146.266 12.9839 147.217 15.6216 147.827 17.0662C148.168 17.8941 148.055 21.8952 148.055 21.8952C151.998 23.4129 152.933 29.3538 152.672 30.3601L152.689 30.3683Z" fill="#010101"/>
<g style="mix-blend-mode:multiply">
<path d="M137.12 10.9874C137.12 10.9874 115.649 10.3787 94.3319 19.9798C90.397 21.1891 81.4378 21.5949 81.4378 21.5949C81.4378 21.5949 96.2587 15.7839 108.486 12.9027C120.714 10.0216 130.339 8.52825 132.535 7.59492C133.591 7.14854 128.526 4.56767 128.38 4.49463C133.404 4.84361 135.819 6.64535 136.169 7.12419C136.616 7.73289 137.12 10.9874 137.12 10.9874Z" fill="#010101"/>
</g>
<g style="mix-blend-mode:multiply">
<path d="M152.689 30.3683C152.29 31.886 151.25 33.5254 151.25 33.5254C152.64 37.9729 152.193 42.2744 152.193 43.021C152.193 44.1329 150.616 45.6506 150.616 45.6506C151.542 48.686 152.502 55.8199 152.502 55.8199L149.209 58.1816L146.957 68.0993C146.957 68.0993 146.461 60.3973 146.453 52.7115C146.453 45.0338 141.803 33.5091 141.803 33.5091C121.38 21.7816 92.5433 24.0135 92.5433 24.0135C100.828 21.2297 137.998 26.4239 144.469 28.81C145.29 29.1103 149.047 29.719 149.99 28.81C149.99 28.81 148.933 24.2813 142.876 22.301C136.819 20.3207 120.169 18.3486 112.511 18.657C112.511 18.657 127.827 15.5973 139.38 16.5225C150.803 17.4396 142.469 11.8315 142.274 11.7097C146.274 12.9839 147.225 15.6216 147.835 17.0662C148.177 17.8941 148.063 21.8952 148.063 21.8952C152.006 23.4129 152.941 29.3538 152.681 30.3602L152.689 30.3683Z" fill="#010101"/>
</g>
<g style="mix-blend-mode:multiply">
<path d="M109.649 0.0795898C108.413 2.2222 90.519 11.1092 89.9581 11.3932H89.9418C89.9418 11.3932 89.9418 11.3932 89.9581 11.3932C90.4459 11.2147 104.047 6.17466 111.348 2.50626L109.641 0.0795898H109.649Z" fill="#010101"/>
</g>
<g style="mix-blend-mode:multiply">
<path d="M123.624 3.98347L123.445 4.61651C111.039 8.35796 85.3809 16.5226 85.3809 16.5226C82.3891 17.9023 77.2916 20.6942 77.129 20.7835C77.3241 20.5319 88.7548 5.61477 90.4865 3.88608C91.9987 2.37651 88.893 2.13303 89.4133 1.84086C89.4133 1.84086 89.4215 1.84086 89.4296 1.84086C89.5109 1.80028 89.6491 1.7597 89.8767 1.71912C89.893 1.71912 89.9011 1.71912 89.9174 1.711C89.9255 1.711 89.9418 1.711 89.958 1.711C90.145 1.67854 90.4052 1.62173 90.7141 1.54057C90.7304 1.54057 90.7548 1.54057 90.771 1.53245C91.3401 1.41883 91.7954 1.36202 92.0962 1.32956C95.0718 0.948106 95.7872 3.12318 95.7872 3.12318C90.5353 6.6455 85.8931 12.351 83.3972 15.7354C84.1614 15.1267 84.8606 14.5748 85.3971 14.1609C87.8117 12.3185 116.697 4.58405 118.982 3.67506C121.267 2.76608 118.567 1.3539 118.567 1.3539C120.771 1.27274 121.827 1.6055 122.201 1.84898C123.453 2.64434 123.673 3.45593 123.632 3.99159L123.624 3.98347Z" fill="#010101"/>
</g>
<g style="mix-blend-mode:multiply">
<path d="M75.9745 24.9224C75.9745 24.9224 71.0559 20.483 67.9421 17.756C67.9421 17.756 67.6494 15.4268 68.9015 13.3085C69.251 12.716 69.6494 12.1885 70.0803 11.7178C69.2592 16.3926 75.9745 24.9224 75.9745 24.9224Z" fill="#010101"/>
</g>
<g style="mix-blend-mode:multiply">
<path d="M75.2997 29.5892C75.2997 29.5892 67.2429 38.3788 66.3812 43.2321C65.5194 48.0855 63.3731 63.7411 63.3731 63.7411L59.6008 56.3475C59.2187 53.8478 60.2105 46.722 60.2105 46.722C58.0398 42.3313 57.3813 35.0513 58.5927 32.9249C59.804 30.7985 61.3731 31.2043 61.3731 31.2043C60.6577 26.8623 62.5357 21.5058 64.2348 19.4849C64.4706 19.209 64.7064 18.9736 64.9503 18.7788C64.869 18.9736 62.9828 23.7052 64.9503 24.9307C66.9665 26.1805 73.6981 26.2536 73.6981 26.2536C70.8933 26.5539 69.5193 27.0084 69.5193 27.0084C72.3404 27.4629 75.2997 29.5892 75.2997 29.5892Z" fill="#010101"/>
</g>
<g style="mix-blend-mode:soft-light">
<path d="M108.454 9.25058C108.454 9.25058 115.193 8.43898 118.153 10.7764L109.275 12.7242C109.275 12.7242 107.462 9.55087 102.779 11.028L108.454 9.25058Z" fill="#010101"/>
</g>
<g style="mix-blend-mode:soft-light">
<path d="M112.031 14.0309C112.031 14.0309 116.275 13.0083 119.575 12.5051C119.575 12.5051 124.966 12.7243 126.307 16.7579L122.64 17.1312C122.64 17.1312 119.966 14.0228 112.031 14.0309Z" fill="#010101"/>
</g>
<g style="mix-blend-mode:soft-light">
<path d="M127.844 19.5821C127.844 19.5821 132.193 20.8644 133.681 26.4887L130.331 25.9531C130.331 25.9531 127.592 21.0998 124.34 19.2087L127.844 19.5821Z" fill="#010101"/>
</g>
<g style="mix-blend-mode:soft-light">
<path d="M101.226 8.84476L97.1042 10.0622C97.1042 10.0622 92.9986 9.97288 86.8117 11.3932L88.8604 9.11259C88.8604 9.11259 93.3319 7.40824 101.218 8.84476H101.226Z" fill="#010101"/>
</g>
<g style="mix-blend-mode:soft-light">
<path d="M85.6247 9.83496C85.6247 9.83496 78.5273 9.83496 71.2022 17.1393L71.942 18.6732C71.942 18.6732 74.9013 11.1984 84.6817 11.0361L85.6247 9.83496Z" fill="#010101"/>
</g>
</g>
<defs>
<linearGradient id="paint0_linear_2_958" x1="17.6095" y1="310.19" x2="57.1455" y2="310.19" gradientUnits="userSpaceOnUse">
<stop stop-color="#7B1228"/>
<stop offset="0.21" stop-color="#811528"/>
<stop offset="0.5" stop-color="#921D2B"/>
<stop offset="0.83" stop-color="#AE2B30"/>
<stop offset="1" stop-color="#C03533"/>
</linearGradient>
<linearGradient id="paint1_linear_2_958" x1="105.275" y1="547.89" x2="219.753" y2="547.89" gradientUnits="userSpaceOnUse">
<stop stop-color="#7B1228"/>
<stop offset="0.21" stop-color="#811528"/>
<stop offset="0.5" stop-color="#921D2B"/>
<stop offset="0.83" stop-color="#AE2B30"/>
<stop offset="1" stop-color="#C03533"/>
</linearGradient>
<linearGradient id="paint2_linear_2_958" x1="29.6336" y1="535.277" x2="93.7465" y2="535.277" gradientUnits="userSpaceOnUse">
<stop stop-color="#7B1228"/>
<stop offset="0.21" stop-color="#811528"/>
<stop offset="0.5" stop-color="#921D2B"/>
<stop offset="0.83" stop-color="#AE2B30"/>
<stop offset="1" stop-color="#C03533"/>
</linearGradient>
<linearGradient id="paint3_linear_2_958" x1="40.7229" y1="249.345" x2="149.681" y2="249.345" gradientUnits="userSpaceOnUse">
<stop stop-color="#F58D8D"/>
<stop offset="1" stop-color="#EF3E6D"/>
</linearGradient>
<linearGradient id="paint4_linear_2_958" x1="125.957" y1="221.466" x2="232.525" y2="221.466" gradientUnits="userSpaceOnUse">
<stop stop-color="#7B1228"/>
<stop offset="0.21" stop-color="#811528"/>
<stop offset="0.5" stop-color="#921D2B"/>
<stop offset="0.83" stop-color="#AE2B30"/>
<stop offset="1" stop-color="#C03533"/>
</linearGradient>
<linearGradient id="paint5_linear_2_958" x1="63.0966" y1="130.633" x2="138.177" y2="130.633" gradientUnits="userSpaceOnUse">
<stop stop-color="#7B1228"/>
<stop offset="0.21" stop-color="#811528"/>
<stop offset="0.5" stop-color="#921D2B"/>
<stop offset="0.83" stop-color="#AE2B30"/>
<stop offset="1" stop-color="#C03533"/>
</linearGradient>
<linearGradient id="paint6_linear_2_958" x1="148.976" y1="101.86" x2="150.941" y2="68.2282" gradientUnits="userSpaceOnUse">
<stop stop-color="#771027"/>
<stop offset="0.23" stop-color="#7B1128"/>
<stop offset="0.47" stop-color="#87172B"/>
<stop offset="0.7" stop-color="#9B2031"/>
<stop offset="0.94" stop-color="#B72D39"/>
<stop offset="1" stop-color="#C0323C"/>
</linearGradient>
<linearGradient id="paint7_linear_2_958" x1="149.497" y1="93.1107" x2="150.85" y2="69.9547" gradientUnits="userSpaceOnUse">
<stop stop-color="#FEE6D7"/>
<stop offset="0.99" stop-color="#AF7DB7"/>
</linearGradient>
<linearGradient id="paint8_linear_2_958" x1="146.287" y1="84.3866" x2="146.874" y2="74.3318" gradientUnits="userSpaceOnUse">
<stop stop-color="#FEE6D7"/>
<stop offset="0.99" stop-color="#AF7DB7"/>
</linearGradient>
<linearGradient id="paint9_linear_2_958" x1="62.9528" y1="-4.9605" x2="62.9528" y2="-4.9605" gradientUnits="userSpaceOnUse">
<stop stop-color="#771027"/>
<stop offset="0.23" stop-color="#7B1128"/>
<stop offset="0.47" stop-color="#87172B"/>
<stop offset="0.7" stop-color="#9B2031"/>
<stop offset="0.94" stop-color="#B72D39"/>
<stop offset="1" stop-color="#C0323C"/>
</linearGradient>
<linearGradient id="paint10_linear_2_958" x1="57.5098" y1="87.7267" x2="58.8629" y2="64.5707" gradientUnits="userSpaceOnUse">
<stop stop-color="#FEE6D7"/>
<stop offset="0.99" stop-color="#AF7DB7"/>
</linearGradient>
<linearGradient id="paint11_linear_2_958" x1="61.7177" y1="79.4364" x2="62.3052" y2="69.3816" gradientUnits="userSpaceOnUse">
<stop stop-color="#FEE6D7"/>
<stop offset="0.99" stop-color="#AF7DB7"/>
</linearGradient>
<linearGradient id="paint12_linear_2_958" x1="108.009" y1="13.2983" x2="101.929" y2="117.354" gradientUnits="userSpaceOnUse">
<stop stop-color="#C23C31"/>
<stop offset="0.4" stop-color="#AF2739"/>
<stop offset="0.42" stop-color="#AE263A"/>
<stop offset="0.69" stop-color="#BE3243"/>
<stop offset="0.9" stop-color="#C53847"/>
<stop offset="1" stop-color="#C23F3B"/>
</linearGradient>
<linearGradient id="paint13_linear_2_958" x1="67.5269" y1="60.086" x2="69.7985" y2="21.2118" gradientUnits="userSpaceOnUse">
<stop stop-color="#FEE6D7"/>
<stop offset="0.99" stop-color="#AF7DB7"/>
</linearGradient>
<linearGradient id="paint14_linear_2_958" x1="142.741" y1="64.4919" x2="145.012" y2="25.6177" gradientUnits="userSpaceOnUse">
<stop stop-color="#FEE6D7"/>
<stop offset="0.99" stop-color="#AF7DB7"/>
</linearGradient>
<linearGradient id="paint15_linear_2_958" x1="130.73" y1="79.5508" x2="130.73" y2="49.4244" gradientUnits="userSpaceOnUse">
<stop stop-color="white"/>
<stop offset="0.99" stop-color="#672F86"/>
</linearGradient>
<linearGradient id="paint16_linear_2_958" x1="87.4539" y1="80.319" x2="87.4539" y2="42.7786" gradientUnits="userSpaceOnUse">
<stop stop-color="white"/>
<stop offset="0.99" stop-color="#672F86"/>
</linearGradient>
<linearGradient id="paint17_linear_2_958" x1="107.25" y1="76.1503" x2="107.25" y2="87.8616" gradientUnits="userSpaceOnUse">
<stop stop-color="#CC394D"/>
<stop offset="0.47" stop-color="#CA3749"/>
<stop offset="0.65" stop-color="#C33345"/>
<stop offset="0.9" stop-color="#B32A3D"/>
<stop offset="1" stop-color="#AA2639"/>
</linearGradient>
<linearGradient id="paint18_linear_2_958" x1="114.592" y1="83.9983" x2="114.592" y2="77.3027" gradientUnits="userSpaceOnUse">
<stop stop-color="#FEE6D7"/>
<stop offset="0.99" stop-color="#AF7DB7"/>
</linearGradient>
<linearGradient id="paint19_linear_2_958" x1="100.104" y1="83.9983" x2="100.104" y2="77.3027" gradientUnits="userSpaceOnUse">
<stop stop-color="#FEE6D7"/>
<stop offset="0.99" stop-color="#AF7DB7"/>
</linearGradient>
<linearGradient id="paint20_linear_2_958" x1="130.673" y1="72.6034" x2="130.673" y2="60.3078" gradientUnits="userSpaceOnUse">
<stop stop-color="#E9DDED"/>
<stop offset="1" stop-color="#BCC4E3"/>
</linearGradient>
<linearGradient id="paint21_linear_2_958" x1="136.543" y1="65.2747" x2="121.852" y2="65.2747" gradientUnits="userSpaceOnUse">
<stop stop-color="#5F451A"/>
<stop offset="1" stop-color="#451A0E"/>
</linearGradient>
<linearGradient id="paint22_linear_2_958" x1="129.201" y1="68.2128" x2="129.201" y2="61.8175" gradientUnits="userSpaceOnUse">
<stop stop-color="#5F451A"/>
<stop offset="1" stop-color="#451A0E"/>
</linearGradient>
<linearGradient id="paint23_linear_2_958" x1="83.0149" y1="72.6198" x2="83.0149" y2="60.3241" gradientUnits="userSpaceOnUse">
<stop stop-color="#E9DDED"/>
<stop offset="1" stop-color="#BCC4E3"/>
</linearGradient>
<linearGradient id="paint24_linear_2_958" x1="77.1373" y1="65.294" x2="91.82" y2="65.294" gradientUnits="userSpaceOnUse">
<stop stop-color="#5F451A"/>
<stop offset="1" stop-color="#451A0E"/>
</linearGradient>
<linearGradient id="paint25_linear_2_958" x1="84.4786" y1="68.2401" x2="84.4786" y2="61.8366" gradientUnits="userSpaceOnUse">
<stop stop-color="#5F451A"/>
<stop offset="1" stop-color="#451A0E"/>
</linearGradient>
<linearGradient id="paint26_linear_2_958" x1="123.071" y1="92.2442" x2="126.722" y2="92.2442" gradientUnits="userSpaceOnUse">
<stop stop-color="#9B2033"/>
<stop offset="1" stop-color="#9B2033"/>
</linearGradient>
<linearGradient id="paint27_linear_2_958" x1="84.8442" y1="-0.00159436" x2="88.4945" y2="-0.00159436" gradientUnits="userSpaceOnUse">
<stop stop-color="#9B2033"/>
<stop offset="1" stop-color="#9B2033"/>
</linearGradient>
</defs>
</svg>
