<svg width="287" height="743" viewBox="0 0 287 743" fill="none" xmlns="http://www.w3.org/2000/svg">
<path d="M57.2656 136.931C57.2656 136.931 62.3594 125.529 66.6397 131.574C70.9298 137.609 58.1081 144.022 57.2656 136.931Z" fill="url(#paint0_linear_17_6040)"/>
<path d="M31.1866 146.309L28.5525 80.9746C31.9129 73.0597 32.9588 57.6174 31.5933 52.8511C29.2788 44.7424 23.8751 51.3107 23.8751 51.3107C20.3986 45.1299 17.3094 51.3107 17.3094 51.3107C15.3823 44.3549 10.3563 50.9232 10.3563 50.9232C5.737 43.1924 -0.0540344 52.4636 1.49541 66.753C2.06676 72.0619 4.50713 75.2879 7.35423 77.2545C4.44903 95.4481 -3.68554 162.061 1.93119 176.331C10.9954 199.359 92.9899 168.184 92.9899 168.184L94.7524 131.506L31.1963 146.309H31.1866Z" fill="url(#paint1_linear_17_6040)"/>
<path d="M30.2666 65.4549C29.5403 64.5346 28.8334 63.5658 28.1168 62.6067C19.3431 60.1751 10.6081 57.5303 1.55355 57.3269C1.17588 60.0492 1.10809 63.2461 1.48576 66.7531C2.05712 72.062 4.49749 75.288 7.34459 77.2546C7.15091 78.485 6.91849 79.9963 6.68608 81.6335C14.4333 79.1825 22.3451 77.0318 30.3828 75.0749C30.9929 72.4398 31.4287 69.5819 31.7289 66.7822C31.2157 66.4625 30.7218 66.0362 30.2763 65.4646L30.2666 65.4549Z" fill="url(#paint2_linear_17_6040)"/>
<path d="M48.2982 142.318C52.4333 154.359 56.6168 166.392 60.7615 178.424C78.3477 173.735 92.9802 168.174 92.9802 168.174L94.7427 131.496L48.2982 142.318Z" fill="#F8AEA0"/>
<path opacity="0.1" d="M284.114 723.573C284.114 733.794 221.526 742.077 144.315 742.077C67.1046 742.077 4.51685 733.794 4.51685 723.573C4.51685 713.353 67.1046 705.07 144.315 705.07C221.526 705.07 284.114 713.353 284.114 723.573Z" fill="#1C1C1B"/>
<path d="M130.544 392.204L202.671 708.17L222.697 688.755L190.062 365.146L130.544 392.204Z" fill="#F8AEA0"/>
<path opacity="0.2" d="M192.106 661.891L130.535 392.204L190.053 365.146L219.405 656.146C210.225 657.658 201.073 659.963 192.106 661.891Z" fill="#201829"/>
<path d="M223.007 686.324L198.759 697.755L199.814 717.441L286.999 703.491C286.999 703.491 280.036 695.401 223.007 686.334V686.324Z" fill="#2B2238"/>
<path d="M286.999 703.49L199.814 717.441L200.163 723.999L286.902 707.772L286.999 703.49Z" fill="#2B2238"/>
<path d="M230.464 687.08C228.237 690.315 227.075 694.093 225.516 697.668C225.351 698.046 225.903 698.366 226.068 697.988C227.627 694.423 228.789 690.635 231.016 687.399C231.248 687.06 230.696 686.74 230.464 687.08Z" fill="#2B2238"/>
<path d="M236.216 687.622C233.999 690.858 232.827 694.636 231.268 698.211C231.103 698.589 231.655 698.908 231.82 698.53C233.379 694.965 234.541 691.187 236.768 687.942C237.001 687.603 236.449 687.283 236.216 687.622Z" fill="#2B2238"/>
<path d="M242.579 688.475C240.361 691.71 239.189 695.488 237.63 699.063C237.466 699.441 238.018 699.761 238.182 699.383C239.741 695.818 240.903 692.04 243.131 688.794C243.363 688.455 242.811 688.135 242.579 688.475Z" fill="#2B2238"/>
<path d="M94.2876 130.712C74.6 134.248 52.8303 138.152 52.8303 138.152L63.1922 186.426L127.949 137.038C127.949 137.038 113.975 127.176 94.2876 130.721V130.712Z" fill="#254756"/>
<path d="M122.381 385.451L112.968 709.41L89.5617 694.258L58.7472 370.474L122.381 385.451Z" fill="#F8AEA0"/>
<path opacity="0.2" d="M114.353 661.959L122.391 385.441L58.757 370.464L86.4629 661.63C95.7596 661.329 105.192 661.814 114.363 661.959H114.353Z" fill="#201829"/>
<path d="M69.7579 214.453L76.0913 296.634L177.899 283.149L148.237 231.416L69.7579 214.453Z" fill="#5EA845"/>
<path d="M72.76 247.158C72.76 247.158 103.739 259.878 158.144 250.52C158.144 250.52 207.193 295.355 214.631 352.338C219.85 392.339 243.073 643.175 243.073 643.175L169.329 648.774L101.938 328.807L135.377 358.539L125.47 645.945L48.2692 651.99C48.2692 651.99 21.4445 395.701 72.76 247.168V247.158Z" fill="#5EA845"/>
<path d="M163.092 638.224L246.927 617.851L250.539 649.656L166.337 659.566L163.092 638.224Z" fill="#5EA845"/>
<path opacity="0.2" d="M113.394 348.628C89.4843 335.753 71.0557 320.136 57.3044 305.605C27.5938 454.36 48.2692 651.99 48.2692 651.99L125.47 645.945L131.552 469.425L134.718 484.46C122.642 413.701 113.394 348.628 113.394 348.628Z" fill="#201829"/>
<path d="M43.2722 619.633L132.094 638.079L130.777 656.602L46.2355 656.021L43.2722 619.633Z" fill="#528B3F"/>
<path opacity="0.2" d="M154.115 241.675L148.237 231.426L69.7579 214.453L72.3145 247.672C95.0622 249.532 127.397 249.939 154.115 241.675Z" fill="#201829"/>
<path d="M117.442 131.855C117.442 131.855 103.361 128.193 92.8543 130.993C82.3472 133.792 63.7055 165.481 58.7763 179.034C53.8471 192.587 72.4336 245.322 72.4336 245.322C72.4336 245.322 121.619 252.154 154.467 239.211L179.478 209.928C179.478 209.928 221.787 164.173 181.763 145.292L168.341 142.104C168.341 142.104 118.769 159.019 117.442 131.845V131.855Z" fill="#254756"/>
<path d="M88.7774 691.933L114.779 698.433L117.568 717.945L29.3369 721.2C29.3369 721.2 34.5953 711.909 88.7774 691.933Z" fill="#2B2238"/>
<path d="M29.3369 721.2L117.568 717.954L118.498 724.455L30.2666 725.385L29.3369 721.2Z" fill="#2B2238"/>
<path d="M81.1464 694.568C83.9354 697.29 85.7947 700.759 88.0026 703.926C88.2351 704.266 88.7967 703.946 88.5546 703.607C86.3176 700.391 84.4292 696.883 81.5918 694.113C81.3013 693.822 80.8462 694.278 81.1367 694.568H81.1464Z" fill="#2B2238"/>
<path d="M75.6071 696.205C78.3961 698.928 80.2554 702.396 82.4633 705.564C82.6958 705.903 83.2574 705.583 83.0153 705.244C80.7783 702.028 78.8899 698.521 76.0525 695.75C75.762 695.459 75.3069 695.915 75.5974 696.205H75.6071Z" fill="#2B2238"/>
<path d="M69.5352 698.279C72.3241 701.001 74.1835 704.469 76.3914 707.637C76.6238 707.976 77.1855 707.656 76.9434 707.317C74.7064 704.101 72.818 700.594 69.9806 697.823C69.6901 697.533 69.235 697.988 69.5255 698.279H69.5352Z" fill="#2B2238"/>
<path d="M143.957 181.669L107.419 198.71L87.1408 136.999C80.6138 137.706 74.3192 143.965 67.9858 145.582C72.3533 164.667 84.2647 228.829 92.5251 237.616C101.986 247.691 162.076 213.774 162.076 213.774L143.947 181.669H143.957Z" fill="url(#paint3_linear_17_6040)"/>
<path d="M77.7182 159.31C77.7182 159.31 60.0449 161.596 60.839 136.999C60.839 136.999 60.839 133.54 63.2115 131.283C65.3227 129.278 66.6397 131.574 66.6397 131.574C66.6397 131.574 66.6397 128.716 69.5449 128.997C72.4501 129.288 72.973 131.283 72.973 131.283C72.973 131.283 73.2345 128.706 75.6071 128.425C77.9797 128.135 78.5123 131.002 78.5123 131.002C78.5123 131.002 78.7738 127.001 83.2575 128.144C87.7411 129.288 96.0597 154.117 87.0923 154.979L77.7182 159.32V159.31Z" fill="url(#paint4_linear_17_6040)"/>
<path d="M29.0077 59.0417C29.0077 59.0417 36.813 56.6973 39.2727 64.9028C41.7325 73.1083 31.4674 82.8736 22.839 80.1416C14.2105 77.4097 28.998 59.0417 28.998 59.0417H29.0077Z" fill="url(#paint5_linear_17_6040)"/>
<path d="M10.366 50.9233C10.366 50.9233 10.5209 46.4185 6.65699 46.4185C2.79307 46.4185 -2.56219 65.2902 3.4419 67.0146C9.44598 68.7294 10.366 50.933 10.366 50.933V50.9233Z" fill="url(#paint6_linear_17_6040)"/>
<path d="M30.9541 52.4247C30.9541 52.4247 31.109 47.9199 27.2451 47.9199C23.3812 47.9199 18.0259 66.7917 24.03 68.5161C30.0341 70.2308 30.9541 52.4344 30.9541 52.4344V52.4247Z" fill="url(#paint7_linear_17_6040)"/>
<path d="M17.4449 51.9599C17.4449 51.9599 17.5999 47.271 13.736 47.271C9.87205 47.271 4.51679 66.9275 10.5209 68.7197C16.525 70.5022 17.4449 51.9696 17.4449 51.9696V51.9599Z" fill="url(#paint8_linear_17_6040)"/>
<path d="M24.0881 52.6088C24.0881 52.6088 24.2431 47.9199 20.3792 47.9199C16.5152 47.9199 11.16 67.5764 17.1641 69.3686C23.1682 71.1512 24.0881 52.6185 24.0881 52.6185V52.6088Z" fill="url(#paint9_linear_17_6040)"/>
<path d="M199.698 96.3974C199.698 96.3974 203.746 73.5827 203.155 73.2437C206.061 61.8605 190.828 41.1481 187.428 36.6142C169 12.0461 154.164 8.82008 123.553 27.8565C99.4008 42.8725 96.1567 81.1198 96.1567 83.8227C90.4625 85.2952 93.0385 94.3339 98.6068 94.7408C98.6068 94.7408 95.779 99.1778 100.059 102.636C104.34 106.095 106.354 104.768 106.354 104.768C106.354 104.768 101.648 109.146 108.107 112.867C108.107 112.867 104.543 113.932 108.775 117.139C113.007 120.346 119.001 113.787 119.001 113.787C119.001 113.787 116.861 119.571 121.025 122.273C125.18 124.976 131.968 120.597 131.968 120.597C131.968 120.597 134.941 128.59 139.386 129.113C143.831 129.636 147.879 125.18 147.879 125.18C147.879 125.18 146.388 128.793 150.775 129.384C154.755 129.927 156.081 123.407 156.294 122.177C156.101 123.426 155.152 130.188 157.766 130.208C162.889 130.237 162.889 125.616 163.402 127.166C163.925 128.716 168.477 128.774 172.748 127.108C176.64 125.587 176.156 120.849 176.156 120.849C176.156 120.849 179.062 122.913 182.267 119.512C182.267 119.512 180.921 125.528 185.724 124.027C189.927 122.709 187.68 114.61 187.68 114.61C187.68 114.61 190.063 117.769 194.275 116.335C197.655 115.192 194.323 110.561 194.323 110.561C194.323 110.561 199.262 113.438 201.528 111.239C203.794 109.04 199.698 96.3877 199.698 96.3877V96.3974Z" fill="url(#paint10_linear_17_6040)"/>
<path d="M138.137 101.377L129.615 132.504L106.257 129.937L119.092 157.406C121.32 162.173 126.861 164.399 131.767 162.496L178.267 144.468L158.89 138.84L166.55 96.136L138.137 101.377Z" fill="url(#paint11_linear_17_6040)"/>
<path d="M158.057 26.1419C158.057 26.1419 122.071 23.2355 111.138 64.4279C100.204 105.62 129.605 119.571 149.845 118.486C170.084 117.401 185.734 97.4534 189.859 85.2856C193.984 73.1178 190.518 30.3657 158.057 26.1322V26.1419Z" fill="url(#paint12_linear_17_6040)"/>
<path d="M210.912 65.7551C209.702 70.289 206.661 64.8542 206.661 64.8542C205.441 71.8003 200.463 72.4203 200.463 72.4203C200.463 72.4203 205.237 74.7163 204.947 79.4924C204.656 84.2684 195.902 83.474 195.902 83.474C195.902 83.474 197.742 92.1543 193.549 93.1327C189.346 94.1112 189.927 90.3523 189.927 90.3523C184.804 92.2124 187.351 86.7873 187.351 86.7873C185.647 85.0338 190.353 79.783 190.353 79.783C187.729 79.318 188.436 74.0769 188.436 74.0769C187.467 76.4504 187.545 76.9154 187.545 76.9154C187.545 76.9154 186.935 80.6258 183.903 80.0833C180.863 79.5505 177.599 65.4451 177.599 65.4451C174.742 64.3117 178.171 52.1148 178.171 52.1148C178.171 52.1148 175.963 53.5582 174.665 52.4054C173.396 51.2719 175.081 46.7284 175.139 46.554C175.081 46.6606 174.074 48.3365 169.571 47.9006C165.01 47.4646 165.029 40.1504 165.078 40.0535C161.01 41.6811 156.779 38.581 156.779 38.581C156.779 38.581 155.297 42.5142 153.486 42.3011C151.675 42.0879 145.991 35.7037 145.991 35.7037C142.359 37.0794 138.631 35.7425 138.631 35.7425C139.047 35.9943 135.648 43.483 132.549 42.582C129.567 41.7198 128.976 40.4507 128.927 40.3635C128.927 40.4991 129.063 43.4539 126.768 48.9275C124.415 54.5367 120.192 52.1632 120.192 52.1632C120.192 52.1632 121.248 58.2374 120.483 60.6884C119.718 63.1394 118.188 65.1642 118.188 65.1642C118.188 65.1642 117.675 70.7153 115.467 69.9402C113.259 69.1555 113.326 67.1405 113.191 66.5398C113.055 65.9489 112.155 68.3999 109.017 69.6399C105.879 70.88 106.499 66.7336 106.499 66.7336C105.211 68.9908 102.432 68.3321 102.432 68.3321C102.432 68.3321 103.129 74.8713 101.551 77.1189C97.9482 82.2534 94.8784 73.5635 94.8784 73.5635C91.5761 72.7109 92.9706 68.3611 92.9706 68.3611C92.9706 68.3611 92.1669 69.4074 90.1138 67.7605C88.0608 66.1136 87.7413 58.9253 89.6587 55.9414C91.4309 53.1804 92.0797 55.5636 92.1669 55.9221C92.1669 55.9511 92.1669 55.9705 92.1669 55.9705C92.1669 55.9705 86.5211 52.9188 86.5501 50.3128C86.5792 47.7068 88.913 42.9695 88.913 42.9695C88.913 42.9695 85.8723 40.4798 85.4655 37.5541C85.0588 34.6284 85.6398 27.6822 88.3804 27.5369C91.0435 27.3916 91.5955 29.4939 91.6246 29.707C91.6246 29.707 92.3024 24.9503 93.4064 23.4003C94.123 22.4024 96.912 20.678 98.0063 20.5327C100.679 20.1742 102.606 21.5305 102.606 21.5305C105.066 19.6802 107.332 16.1054 107.332 16.1054C107.332 16.1054 105.192 14.8363 106.46 12.4047C109.22 7.09576 119.34 3.24003 124.405 1.5253C131.3 -0.809449 135.425 2.74596 135.367 2.81377C142.301 1.11841 147.724 2.05813 147.724 2.05813C147.724 2.05813 147.579 1.11841 150.348 0.27558C153.002 -0.528504 154.91 0.469335 157.04 2.71689L157.079 2.75565C157.079 2.75565 158.948 0.83747 162.231 2.42626C166.133 4.31537 169.561 11.0774 169.445 20.5714C170.627 20.7071 171.285 20.8524 172.767 21.3561C186.237 13.4316 187.651 24.4853 187.651 24.4853C187.651 24.4853 189.898 23.7199 194.072 24.4368C198.129 25.1344 198.149 25.8997 198.061 27.3335C197.974 28.806 195.098 29.2904 195.098 29.2904C204.037 32.3421 202.671 32.2258 202.671 32.2258C206.031 34.1924 206.303 36.469 206.235 37.4959C206.206 37.8447 206.148 38.0481 206.148 38.0481C206.148 38.0481 211.677 40.8382 211.619 43.638C211.561 46.4377 207.988 45.6143 207.988 45.6143C208.772 47.8328 208.462 50.5163 208.065 52.357C207.794 53.6454 207.484 54.5173 207.484 54.5173C207.484 54.5173 212.152 61.2116 210.932 65.7551H210.912Z" fill="url(#paint13_linear_17_6040)"/>
<path style="mix-blend-mode:multiply" d="M210.912 65.7551C209.702 70.289 206.661 64.8542 206.661 64.8542C205.441 71.8003 200.463 72.4203 200.463 72.4203C200.463 72.4203 205.237 74.7163 204.947 79.4924C204.656 84.2684 195.902 83.474 195.902 83.474C195.902 83.474 197.742 92.1543 193.549 93.1327C189.346 94.1112 189.927 90.3524 189.927 90.3524C184.804 92.2124 187.351 86.7873 187.351 86.7873C185.647 85.0338 190.353 79.783 190.353 79.783C187.729 79.318 188.436 74.0769 188.436 74.0769C187.467 76.4504 183.187 74.7551 183.187 74.7551C183.187 74.7551 186.944 80.6258 183.903 80.093C180.863 79.5602 177.599 65.4548 177.599 65.4548C174.742 64.3214 178.17 52.1245 178.17 52.1245C178.17 52.1245 175.963 53.5679 174.665 52.4151C173.367 51.2623 175.149 46.554 175.149 46.554C175.149 46.554 174.219 48.3462 169.581 47.9103C165.02 47.4743 165.039 40.1601 165.087 40.0632C161.02 41.6908 156.788 38.5907 156.788 38.5907C156.788 38.5907 155.307 42.5239 153.496 42.3108C151.685 42.0976 146 35.7134 146 35.7134C142.369 37.0891 138.64 35.7522 138.64 35.7522C139.057 36.004 135.658 43.4927 132.559 42.5917C129.576 41.7295 128.985 40.4604 128.937 40.3732C128.937 40.5089 129.073 43.4636 126.777 48.9372C124.424 54.5464 120.202 52.1729 120.202 52.1729C120.202 52.1729 121.258 58.2471 120.493 60.6981C119.727 63.1491 118.197 65.1739 118.197 65.1739C118.197 65.1739 117.684 70.725 115.476 69.9499C113.268 69.1652 113.336 67.1502 113.2 66.5495C113.065 65.9586 112.164 68.4096 109.027 69.6496C105.889 70.8897 106.509 66.7433 106.509 66.7433C105.221 69.0005 102.442 68.3418 102.442 68.3418C102.442 68.3418 103.139 74.881 101.56 77.1286C97.9578 82.2631 94.888 73.5732 94.888 73.5732C91.5857 72.7206 92.9802 68.3708 92.9802 68.3708C92.9802 68.3708 92.1765 69.4171 90.1235 67.7702C88.0704 66.1233 87.7509 58.935 89.6683 55.9511C91.5857 52.9673 92.1861 55.9802 92.1861 55.9802C92.1861 55.9802 86.5404 52.9286 86.5694 50.3225C86.5985 47.7165 88.9323 42.9792 88.9323 42.9792C88.9323 42.9792 85.8915 40.4895 85.4848 37.5638C85.0781 34.6381 85.6591 27.6919 88.3997 27.5466C91.0628 27.4013 91.6148 29.5036 91.6438 29.7167C92.8156 33.1365 111.206 30.2883 111.206 30.2883C111.206 30.2883 108.213 34.1827 114.508 33.8534C122.4 33.4368 128.056 25.8513 128.056 25.8513C128.056 25.8513 136.035 28.6413 141.652 27.4401C158.125 23.9234 167.596 18.8567 169.097 14.9719L169.465 20.5618L172.786 21.3465C172.786 21.3465 168.603 23.4971 168.932 29.1257C169.077 31.5864 178.277 33.0396 179.129 30.453C179.129 30.453 179.187 35.8587 184.891 35.045C184.891 35.045 180.611 37.0503 182.703 41.9717C184.794 46.8931 205.489 44.9071 206.157 38.0288C206.157 38.0288 211.687 40.8189 211.629 43.6186C211.571 46.4184 207.997 45.5949 207.997 45.5949C209.324 49.3635 207.503 54.4883 207.503 54.4883C207.503 54.4883 212.171 61.1825 210.951 65.7261L210.912 65.7551Z" fill="url(#paint14_linear_17_6040)"/>
<path style="mix-blend-mode:multiply" d="M210.912 65.7551C209.702 70.289 206.661 64.8542 206.661 64.8542C205.441 71.8003 200.463 72.4203 200.463 72.4203C200.463 72.4203 205.237 74.7163 204.947 79.4924C204.656 84.2684 195.902 83.4741 195.902 83.4741C195.902 83.4741 197.742 92.1543 193.549 93.1327C189.346 94.1112 189.927 90.3524 189.927 90.3524C184.804 92.2124 187.351 86.7873 187.351 86.7873C185.647 85.0338 190.353 79.783 190.353 79.783C187.729 79.318 188.436 74.0769 188.436 74.0769C187.467 76.4504 183.187 74.7551 183.187 74.7551C183.187 74.7551 186.944 80.6259 183.903 80.093C180.863 79.5602 177.599 65.4548 177.599 65.4548C174.742 64.3214 178.17 52.1245 178.17 52.1245C178.17 52.1245 175.963 53.5679 174.665 52.4151C173.396 51.2816 175.081 46.7381 175.139 46.5637C175.081 46.6703 174.074 48.3462 169.571 47.9103C165.01 47.4743 165.029 40.1601 165.078 40.0632C161.01 41.6908 156.778 38.5907 156.778 38.5907C156.778 38.5907 155.297 42.5239 153.486 42.3108C151.675 42.0976 145.991 35.7134 145.991 35.7134C142.359 37.0891 138.631 35.7522 138.631 35.7522C139.047 36.004 135.648 43.4927 132.549 42.5917C129.566 41.7295 128.976 40.4604 128.927 40.3732C128.927 40.5088 129.063 43.4636 126.768 48.9372C124.415 54.5464 120.192 52.1729 120.192 52.1729C120.192 52.1729 121.248 58.2471 120.483 60.6981C119.718 63.1491 118.188 65.1739 118.188 65.1739C118.188 65.1739 117.674 70.725 115.467 69.9499C113.259 69.1652 113.326 67.1502 113.191 66.5495C113.055 65.9586 112.155 68.4096 109.017 69.6496C105.879 70.8897 106.499 66.7433 106.499 66.7433C105.211 69.0005 102.432 68.3418 102.432 68.3418C102.432 68.3418 103.129 74.881 101.551 77.1286C97.9482 82.2631 94.8783 73.5732 94.8783 73.5732C91.5761 72.7206 92.9706 68.3708 92.9706 68.3708C92.9706 68.3708 92.1668 69.4171 90.1138 67.7702C88.0608 66.1233 87.7412 58.935 89.6586 55.9511C91.4308 53.1901 92.0796 55.5733 92.1668 55.9318C92.1668 55.9608 92.1668 55.9802 92.1668 55.9802C92.1765 60.795 95.9629 56.4258 95.9629 56.4258C95.9629 56.4258 96.4374 59.3128 99.3523 57.8984C99.1877 57.9952 97.0766 59.1772 99.6429 59.865C102.316 60.5819 104.291 55.9027 104.291 55.9027C104.291 55.9027 105.647 58.2665 108.756 57.9274C108.756 57.9274 105.724 59.8747 109.521 60.3203C113.317 60.7659 111.099 53.5873 111.099 53.5873C111.099 53.5873 113.491 55.3699 115.515 52.7057C117.539 50.0319 116.416 44.9943 116.416 44.9943C116.416 44.9943 117.936 48.385 121.858 47.1353C125.78 45.8952 127.533 38.271 127.533 38.271C127.533 38.271 129.266 39.7241 131.174 39.976C133.082 40.2279 133.798 34.0956 133.798 34.0956C133.798 34.0956 134.263 36.2559 138.311 33.9212C138.311 33.9212 138.021 35.4906 141.032 35.1418C144.034 34.7931 147.278 30.5983 147.278 30.5983C147.278 30.5983 147.821 36.44 150.29 37.1278C152.76 37.8156 152.12 29.5617 152.12 29.5617C152.12 29.5617 155.336 33.214 157.882 31.6058C160.429 29.9976 160.836 27.3335 160.836 27.3335C160.836 27.3335 160.129 31.6058 163.402 31.567C166.54 31.5283 167.692 29.1645 167.789 28.961C167.663 29.3195 165.262 36.13 170.123 37.3313C169.542 37.1956 165.02 36.2075 166.327 38.9007C167.731 41.7683 172.263 38.7941 172.263 38.7941C172.263 38.7941 170.743 41.3226 173.135 42.708C175.333 43.9771 176.282 42.4948 176.418 42.243C176.214 42.6789 174.336 46.9125 178.984 48.4141C178.752 48.3656 175.759 47.7262 176.728 49.47C177.744 51.2719 181.424 51.2041 181.424 51.2041C181.424 51.2041 178.761 53.8973 180.427 55.3989C181.085 55.9899 181.986 55.9414 182.838 55.6605C180.417 57.2299 177.405 59.9619 179.594 62.9263C182.102 66.3267 185.259 63.6335 186.741 61.9866C185.811 63.3138 184.659 65.6001 186.596 67.0533C189.443 69.1943 192.542 62.7326 192.542 62.7326C192.542 62.7326 192.774 65.9683 196.464 64.9995C196.464 64.9995 192.774 68.5743 195.505 69.6981C198.236 70.8218 205.334 68.5452 202.971 65.1545C202.971 65.1545 205.605 62.6551 203.514 60.5044C203.514 60.5044 208.23 59.7875 207.455 54.5173C207.455 54.5173 212.123 61.2116 210.902 65.7551H210.912Z" fill="url(#paint15_linear_17_6040)"/>
<path style="mix-blend-mode:soft-light" opacity="0.5" d="M142.698 19.5445C142.698 19.5445 145.468 20.7167 142.882 21.7436C140.296 22.7705 135.725 21.2108 135.725 21.2108C127.775 23.1483 125.131 21.6273 126.119 18.1494C126.119 18.1494 120.309 12.0461 128.133 10.9417C130.109 10.6608 129.286 12.5499 129.257 12.5887C133.285 11.5521 132.869 13.6834 132.869 13.6834C132.869 13.6834 137.846 9.97296 139.502 9.61452C156.333 5.95254 150.6 12.2302 150.6 12.2302C167.905 16.8706 142.698 19.5638 142.698 19.5638V19.5445Z" fill="url(#paint16_linear_17_6040)"/>
<path d="M132.849 79.2597C133.837 79.095 130.68 71.0154 124.87 69.0585C117.849 66.6947 115.515 73.0208 115.399 74.348C115.283 75.6752 128.104 80.0541 132.849 79.2597Z" fill="url(#paint17_linear_17_6040)"/>
<path d="M129.665 74.1091C129.788 71.4689 127.787 69.2309 125.195 69.1105C122.604 68.99 120.404 71.0328 120.282 73.673C120.159 76.3133 122.16 78.5512 124.751 78.6717C127.343 78.7921 129.542 76.7494 129.665 74.1091Z" fill="url(#paint18_linear_17_6040)"/>
<path d="M129.394 74.0965C129.51 71.6113 127.624 69.5046 125.182 69.3911C122.741 69.2776 120.668 71.2003 120.553 73.6856C120.437 76.1708 122.323 78.2775 124.764 78.391C127.206 78.5045 129.279 76.5818 129.394 74.0965Z" fill="url(#paint19_linear_17_6040)"/>
<path style="mix-blend-mode:multiply" d="M122.11 73.5535C121.926 75.1617 123.059 76.6052 124.628 76.7892C126.197 76.9733 127.63 75.8205 127.814 74.2123C127.998 72.6041 126.865 71.1606 125.296 70.9766C123.717 70.7925 122.294 71.9454 122.11 73.5535Z" fill="url(#paint20_linear_17_6040)"/>
<path d="M132.782 77.6904C132.782 77.6904 131.048 66.6851 124.599 64.9704C118.149 63.2556 115.815 72.9143 115.815 72.9143C115.815 72.9143 117.946 67.9445 124.124 69.0005C130.293 70.0564 132.782 77.6904 132.782 77.6904Z" fill="url(#paint21_linear_17_6040)"/>
<path d="M132.917 78.1458L131.707 79.3567C131.707 79.3567 133.024 79.6377 133.198 79.2792C133.382 78.9208 132.907 78.1458 132.907 78.1458H132.917Z" fill="#D66C7C"/>
<path d="M130.806 79.3759C130.806 79.3759 125.567 79.5697 121.229 78.1553C116.89 76.7409 115.602 74.7258 115.602 74.7258C115.602 74.7258 122.284 78.2522 130.806 79.3759Z" fill="#D66C7C"/>
<path d="M121.781 72.6044C122.032 72.895 120.715 72.7981 119.786 72.2944C118.953 71.839 118.594 71.219 118.691 71.1318C118.788 71.0446 120.783 71.4709 121.781 72.6044Z" fill="white"/>
<path d="M122.497 72.9433C122.885 72.8561 123.291 73.108 123.291 73.3114C123.291 73.5149 122.797 73.7086 122.594 73.6021C122.391 73.4955 122.284 72.9917 122.497 72.9433Z" fill="white"/>
<g style="mix-blend-mode:multiply" opacity="0.6">
<path d="M132.917 78.1457C132.917 78.1457 129.547 72.2846 124.502 70.6765C119.456 69.078 116.629 71.7615 116.629 71.7615C116.629 71.7615 117.781 68.0123 124.482 69.3008C131.184 70.5893 132.917 78.1457 132.917 78.1457Z" fill="#C978B1"/>
</g>
<path d="M132.917 78.1458C132.917 78.1458 130.612 70.6572 123.688 69.33C117.5 68.148 115.583 73.5538 115.583 73.5538C115.583 73.5538 115.486 68.6131 119.902 67.964C124.105 67.344 130.854 70.3665 132.917 78.1458Z" fill="#401432"/>
<path d="M152.217 81.2941C151.162 80.7903 157.301 72.7688 164.429 72.4394C173.048 72.0519 173.638 79.8796 173.338 81.4103C173.038 82.9313 157.272 83.716 152.217 81.2941Z" fill="url(#paint22_linear_17_6040)"/>
<path d="M168.108 79.0906C168.82 76.0923 167.01 73.094 164.065 72.3938C161.12 71.6935 158.155 73.5564 157.443 76.5547C156.73 79.553 158.54 82.5513 161.485 83.2516C164.43 83.9519 167.395 82.0889 168.108 79.0906Z" fill="url(#paint23_linear_17_6040)"/>
<path d="M167.792 79.0056C168.462 76.1842 166.756 73.3628 163.983 72.7038C161.209 72.0449 158.418 73.7979 157.748 76.6194C157.078 79.4408 158.784 82.2622 161.557 82.9212C164.331 83.5801 167.122 81.8271 167.792 79.0056Z" fill="url(#paint24_linear_17_6040)"/>
<path style="mix-blend-mode:multiply" d="M166.075 78.3686C165.765 80.2286 164.032 81.4881 162.211 81.1877C160.391 80.8874 159.161 79.1339 159.471 77.2836C159.781 75.4235 161.514 74.1641 163.335 74.4644C165.155 74.7648 166.385 76.5182 166.075 78.3686Z" fill="url(#paint25_linear_17_6040)"/>
<path d="M152.798 79.56C152.798 79.56 158.279 67.7894 166.046 67.9444C173.813 68.0994 173.328 79.6666 173.328 79.6666C173.328 79.6666 172.544 73.4083 165.291 72.6042C158.037 71.8001 152.798 79.56 152.798 79.56Z" fill="url(#paint26_linear_17_6040)"/>
<path d="M152.508 80.0249L153.467 81.7687C153.467 81.7687 151.907 81.6621 151.82 81.2068C151.733 80.7515 152.508 80.0249 152.508 80.0249Z" fill="#D66C7C"/>
<path d="M154.464 82.0787C154.464 82.0787 160.265 83.9775 165.581 83.7935C170.898 83.6094 172.98 81.759 172.98 81.759C172.98 81.759 164.361 83.5513 154.464 82.0787Z" fill="#D66C7C"/>
<path d="M166.753 77.3997C166.375 77.6418 167.876 77.9616 169.087 77.7C170.171 77.4578 170.762 76.8862 170.685 76.7506C170.607 76.6149 168.235 76.4503 166.743 77.3997H166.753Z" fill="white"/>
<path d="M165.843 77.545C165.436 77.3222 164.894 77.4675 164.836 77.7C164.778 77.9326 165.262 78.3104 165.523 78.2523C165.785 78.1941 166.065 77.671 165.833 77.545H165.843Z" fill="white"/>
<g style="mix-blend-mode:multiply" opacity="0.6">
<path d="M152.508 80.0249C152.508 80.0249 158.173 74.5417 164.332 74.3673C170.491 74.1929 172.796 78.1067 172.796 78.1067C172.796 78.1067 172.709 73.5438 164.797 72.8269C156.885 72.11 152.508 80.0249 152.508 80.0249Z" fill="#C978B1"/>
</g>
<path d="M152.508 80.0251C152.508 80.0251 157.495 72.3815 165.678 73.1177C172.989 73.7765 173.396 80.4611 173.396 80.4611C173.396 80.4611 175.091 74.9584 170.355 72.8077C165.852 70.7636 157.311 71.9746 152.508 80.0251Z" fill="#401432"/>
<path d="M131.697 88.8799C131.697 88.8799 131.794 89.3934 133.663 89.6937C135.522 90.0037 137.062 91.8637 140.238 92.2706C143.415 92.6775 145.216 91.2437 147.095 91.4084C148.973 91.5828 149.361 91.1275 149.361 91.1275C149.796 89.9359 149.767 88.7249 149.554 87.6592C149.554 87.6592 149.554 87.6302 149.554 87.6205C149.167 85.7508 148.218 84.3557 148.218 84.3557C144.035 81.6335 139.251 81.0231 134.525 82.6022C134.525 82.6022 133.711 83.3191 132.956 84.4817V84.4913C132.23 85.6151 131.552 87.1555 131.716 88.8605L131.697 88.8799Z" fill="url(#paint27_linear_17_6040)"/>
<path d="M135.793 90.5849C135.793 90.5849 134.515 89.1705 132.656 89.4708L135.793 90.5849Z" fill="#812852"/>
<path d="M148.053 91.4569C148.053 91.4569 146.301 90.6819 144.306 91.8929L148.053 91.4569Z" fill="#812852"/>
<g style="mix-blend-mode:multiply" opacity="0.6">
<path d="M131.697 88.88C131.697 88.88 131.794 89.3935 133.663 89.6938C135.522 90.0038 137.062 91.8638 140.238 92.2707C143.415 92.6776 145.216 91.2438 147.095 91.4085C148.973 91.5829 149.361 91.1276 149.361 91.1276C149.796 89.936 149.767 88.725 149.554 87.6594C149.583 87.9694 149.738 89.9457 148.925 90.3235C148.044 90.7304 143.482 89.8391 140.597 89.471C137.701 89.1028 132.791 88.4828 132.336 87.64C131.9 86.8359 132.849 84.6852 132.937 84.4915C132.21 85.6152 131.532 87.1556 131.697 88.8606V88.88Z" fill="#C978B1"/>
</g>
<path style="mix-blend-mode:multiply" opacity="0.6" d="M134.505 82.6216C134.505 82.6216 135.125 85.9445 134.718 88.163C134.718 88.163 135.764 86.0801 135.203 82.4084L134.505 82.6216Z" fill="url(#paint28_linear_17_6040)"/>
<path style="mix-blend-mode:multiply" opacity="0.6" d="M148.044 84.3461C148.044 84.3461 146.61 87.4074 146.446 89.655C146.446 89.655 145.962 87.3784 147.424 83.9683L148.044 84.3558V84.3461Z" fill="url(#paint29_linear_17_6040)"/>
<g style="mix-blend-mode:multiply" opacity="0.6">
<path d="M148.915 90.3428C148.915 90.3428 149.293 90.8853 149.351 91.1469C149.409 91.4084 144.703 94.8379 139.987 94.2276C135.27 93.6172 131.716 89.3837 131.697 88.8896C131.668 88.3955 132.52 87.8821 132.52 87.8821C132.52 87.8821 136.132 88.9284 140.587 89.4999C145.042 90.0715 148.915 90.3525 148.915 90.3525V90.3428Z" fill="#C978B1"/>
</g>
<path d="M136.965 87.9209C137.682 87.6206 136.646 86.3708 136.316 86.3708C135.997 86.3708 135.726 87.0684 135.842 87.5528C135.958 88.0371 136.655 88.0468 136.955 87.9209H136.965Z" fill="#FBC9B8"/>
<path d="M135.871 61.9382C135.871 61.9382 134.021 60.8628 129.324 60.1459C127.93 59.9328 126.283 59.7584 124.366 59.6422C115.97 59.1578 109.908 59.9813 109.908 59.9813C109.976 59.8359 112.697 56.484 115.834 55.2052C115.805 55.2439 115.369 55.8155 115.34 56.484C115.34 56.484 119.02 54.3042 123.814 53.8005C124.705 53.7036 125.644 53.6745 126.593 53.723C132.665 54.0427 134.999 58.809 134.999 58.809C134.999 58.809 134.989 57.6368 134.428 56.8812C134.428 56.8812 136.239 58.3828 135.871 61.9285V61.9382Z" fill="url(#paint30_linear_17_6040)"/>
<path style="mix-blend-mode:multiply" opacity="0.6" d="M129.315 60.1555C127.92 59.9424 126.274 59.768 124.356 59.6518C115.96 59.1674 109.898 59.9908 109.898 59.9908C109.966 59.8455 112.687 56.4936 115.825 55.2148C115.796 55.2535 115.36 55.8251 115.331 56.4936C115.331 56.4936 119.011 54.3138 123.804 53.8101C122.061 54.4301 118.255 55.8639 115.844 58.4408C115.844 58.4408 120.541 57.3945 129.305 60.1362L129.315 60.1555Z" fill="url(#paint31_linear_17_6040)"/>
<path d="M154.851 64.1664C154.851 64.1664 156.904 63.5464 161.64 63.9436C163.044 64.0599 164.69 64.2633 166.579 64.6024C174.859 66.0652 180.562 68.274 180.562 68.274C180.533 68.119 178.655 64.2246 175.904 62.2579C175.924 62.2967 176.214 62.9555 176.088 63.6239C176.088 63.6239 173.009 60.6498 168.467 59.061C167.615 58.7607 166.724 58.5185 165.775 58.3441C159.79 57.2494 156.43 61.3473 156.43 61.3473C156.43 61.3473 156.711 60.2138 157.427 59.6035C157.427 59.6035 155.316 60.6498 154.851 64.1761V64.1664Z" fill="url(#paint32_linear_17_6040)"/>
<path style="mix-blend-mode:multiply" opacity="0.6" d="M161.64 63.9437C163.044 64.0599 164.69 64.2634 166.579 64.6024C174.859 66.0653 180.563 68.2741 180.563 68.2741C180.534 68.1191 178.655 64.2246 175.905 62.258C175.924 62.2967 176.214 62.9555 176.089 63.624C176.089 63.624 173.009 60.6498 168.467 59.061C170.026 60.0686 173.396 62.3452 175.14 65.4065C175.14 65.4065 170.82 63.3043 161.65 63.9437H161.64Z" fill="url(#paint33_linear_17_6040)"/>
<g style="mix-blend-mode:multiply" opacity="0.6">
<path d="M130.883 104.632C130.883 104.632 134.651 109.651 139.812 110.251C145.254 110.891 148.915 106.599 148.915 106.599C148.915 106.599 143.066 110.009 130.883 104.623V104.632Z" fill="#CC77B1"/>
</g>
<path d="M157.243 99.8077L158.018 99.1102C158.018 99.1102 157.805 98.7517 157.495 98.7033L157.214 99.4105C156.41 99.6818 155.316 99.953 154.503 99.7689C152.217 98.9745 147.346 97.4826 141.207 96.7561C135.222 96.0585 130.254 96.3492 127.765 96.5914C126.884 96.6979 125.741 96.1167 124.957 95.6323L125.015 94.8669C125.015 94.8669 124.366 94.8669 124.327 95.2254L124.841 96.0101C128.617 103.499 135.58 107.403 140.18 107.945C145.264 108.536 150.387 107.015 157.253 99.8077H157.243Z" fill="#822852"/>
<path d="M130.031 103.005C130.031 103.005 139.938 98.7711 147.908 106.347C147.908 106.347 143.531 108.498 138.33 107.287C133.13 106.076 131.358 105.388 130.021 102.995L130.031 103.005Z" fill="#DC4D6C"/>
<path d="M131.435 96.4848C131.435 96.4848 135.648 100.331 141.236 100.544C146 100.728 150.6 98.5773 150.6 98.5773C150.6 98.5773 141.7 95.4385 131.445 96.4848H131.435Z" fill="#FBDDEA"/>
<path d="M141.361 95.4386C135.144 94.712 127.726 96.6011 127.726 96.6011C137.207 96.3976 141.158 97.2114 141.158 97.2114C141.158 97.2114 145.187 97.3374 154.367 99.7302C154.367 99.7302 147.588 96.1748 141.361 95.4482V95.4386Z" fill="#DC4D6C"/>
<path d="M133.082 105.204C133.082 105.204 137.197 105.291 140.509 105.63C143.821 105.969 146.833 106.783 146.833 106.783C146.833 106.783 143.482 107.975 139.938 107.568C135.425 107.045 133.082 105.204 133.082 105.204Z" fill="#FBDDEA"/>
<path d="M139.986 107.18C133.411 106.405 129.102 101.997 129.102 101.997C131.619 107.558 139.802 108.73 139.802 108.73C139.802 108.73 147.898 109.602 151.772 104.652C151.772 104.652 146.562 107.955 139.986 107.18Z" fill="#ED7072"/>
<path d="M193.704 88.599C193.336 89.4999 192.958 90.2943 192.59 91.0112L192.571 91.05C189.908 96.1167 187.138 96.9111 185.676 99.1393C184.407 101.067 180.165 104.632 177.56 99.6236L177.551 99.6043C177.551 99.6043 182.49 82.1082 184.397 79.1244C184.397 79.1244 187.186 74.6292 190.721 74.5227C195.263 74.387 196.948 80.655 193.704 88.6087V88.599Z" fill="url(#paint34_linear_17_6040)"/>
<path style="mix-blend-mode:multiply" opacity="0.6" d="M180.785 88.783C180.785 88.783 189.472 80.1318 192.861 80.0834C196.251 80.0446 193.045 88.163 191.864 90.8465C190.682 93.53 189.394 95.0025 189.394 95.0025C189.394 95.0025 190.837 91.8443 191.496 89.1899C192.445 85.3826 191.835 81.8466 190.401 81.9047C188.968 81.9628 186.228 86.4579 186.005 86.9908C185.782 87.5236 186.625 88.6958 186.005 91.6796C185.385 94.6635 183.351 97.6376 182.586 97.4535C181.821 97.2695 182.606 94.9153 183.119 92.1156C183.642 89.3158 181.357 89.4611 180.049 91.0887L180.775 88.7733L180.785 88.783Z" fill="url(#paint35_linear_17_6040)"/>
<path style="mix-blend-mode:multiply" opacity="0.6" d="M180.059 91.108C180.059 91.108 182.306 88.7733 183.138 90.178C183.971 91.5827 182.586 94.7894 183.322 95.3416C184.058 95.8938 185.647 93.3847 185.889 90.8755C186.14 88.3567 185.569 85.9542 184.097 86.1092L180.785 88.7927L180.059 91.108Z" fill="url(#paint36_linear_17_6040)"/>
<path style="mix-blend-mode:multiply" d="M192.571 91.05C189.908 96.1167 187.138 96.9111 185.676 99.1393C184.407 101.067 180.165 104.632 177.56 99.6237C177.735 99.8272 179.41 101.803 181.56 101.455C183.826 101.077 184.862 99.2265 186.053 97.8605C187.225 96.4946 189.724 95.8649 192.58 91.0597L192.571 91.05Z" fill="url(#paint37_linear_17_6040)"/>
<defs>
<linearGradient id="paint0_linear_17_6040" x1="57.2656" y1="134.926" x2="67.521" y2="134.926" gradientUnits="userSpaceOnUse">
<stop stop-color="#F8A795"/>
<stop offset="0.43" stop-color="#F8A997"/>
<stop offset="0.52" stop-color="#F7A290"/>
<stop offset="0.76" stop-color="#F69684"/>
<stop offset="1" stop-color="#F69280"/>
</linearGradient>
<linearGradient id="paint1_linear_17_6040" x1="-0.00561445" y1="116.461" x2="94.7524" y2="116.461" gradientUnits="userSpaceOnUse">
<stop stop-color="#F8A795"/>
<stop offset="0.43" stop-color="#F8A997"/>
<stop offset="0.52" stop-color="#F7A290"/>
<stop offset="0.76" stop-color="#F69684"/>
<stop offset="1" stop-color="#F69280"/>
</linearGradient>
<linearGradient id="paint2_linear_17_6040" x1="1.24366" y1="69.4754" x2="31.7289" y2="69.4754" gradientUnits="userSpaceOnUse">
<stop stop-color="#F8A795"/>
<stop offset="0.43" stop-color="#F8A997"/>
<stop offset="0.52" stop-color="#F7A290"/>
<stop offset="0.76" stop-color="#F69684"/>
<stop offset="1" stop-color="#F69280"/>
</linearGradient>
<linearGradient id="paint3_linear_17_6040" x1="67.9858" y1="188.247" x2="162.076" y2="188.247" gradientUnits="userSpaceOnUse">
<stop stop-color="#F8A795"/>
<stop offset="0.43" stop-color="#F8A997"/>
<stop offset="0.52" stop-color="#F7A290"/>
<stop offset="0.76" stop-color="#F69684"/>
<stop offset="1" stop-color="#F69280"/>
</linearGradient>
<linearGradient id="paint4_linear_17_6040" x1="60.8099" y1="143.645" x2="91.0918" y2="143.645" gradientUnits="userSpaceOnUse">
<stop stop-color="#F8A795"/>
<stop offset="0.43" stop-color="#F8A997"/>
<stop offset="0.52" stop-color="#F7A290"/>
<stop offset="0.76" stop-color="#F69684"/>
<stop offset="1" stop-color="#F69280"/>
</linearGradient>
<linearGradient id="paint5_linear_17_6040" x1="20.1371" y1="69.6692" x2="39.6407" y2="69.6692" gradientUnits="userSpaceOnUse">
<stop stop-color="#F8A795"/>
<stop offset="0.43" stop-color="#F8A997"/>
<stop offset="0.52" stop-color="#F7A290"/>
<stop offset="0.76" stop-color="#F69684"/>
<stop offset="1" stop-color="#F69280"/>
</linearGradient>
<linearGradient id="paint6_linear_17_6040" x1="0.759428" y1="56.765" x2="10.3756" y2="56.765" gradientUnits="userSpaceOnUse">
<stop stop-color="#F8A795"/>
<stop offset="0.43" stop-color="#F8A997"/>
<stop offset="0.52" stop-color="#F7A290"/>
<stop offset="0.76" stop-color="#F69684"/>
<stop offset="1" stop-color="#F69280"/>
</linearGradient>
<linearGradient id="paint7_linear_17_6040" x1="21.3379" y1="58.2664" x2="30.9541" y2="58.2664" gradientUnits="userSpaceOnUse">
<stop stop-color="#F8A795"/>
<stop offset="0.43" stop-color="#F8A997"/>
<stop offset="0.52" stop-color="#F7A290"/>
<stop offset="0.76" stop-color="#F69684"/>
<stop offset="1" stop-color="#F69280"/>
</linearGradient>
<linearGradient id="paint8_linear_17_6040" x1="7.82872" y1="58.0535" x2="17.4449" y2="58.0535" gradientUnits="userSpaceOnUse">
<stop stop-color="#F8A795"/>
<stop offset="0.43" stop-color="#F8A997"/>
<stop offset="0.52" stop-color="#F7A290"/>
<stop offset="0.76" stop-color="#F69684"/>
<stop offset="1" stop-color="#F69280"/>
</linearGradient>
<linearGradient id="paint9_linear_17_6040" x1="14.4816" y1="58.7024" x2="24.0978" y2="58.7024" gradientUnits="userSpaceOnUse">
<stop stop-color="#F8A795"/>
<stop offset="0.43" stop-color="#F8A997"/>
<stop offset="0.52" stop-color="#F7A290"/>
<stop offset="0.76" stop-color="#F69684"/>
<stop offset="1" stop-color="#F69280"/>
</linearGradient>
<linearGradient id="paint10_linear_17_6040" x1="144.159" y1="127.687" x2="150.209" y2="76.0563" gradientUnits="userSpaceOnUse">
<stop stop-color="#31111B"/>
<stop offset="1" stop-color="#1A0F21"/>
</linearGradient>
<linearGradient id="paint11_linear_17_6040" x1="106.494" y1="127.937" x2="179.209" y2="136.45" gradientUnits="userSpaceOnUse">
<stop stop-color="#F9AF9C"/>
<stop offset="0.2" stop-color="#F69B8E"/>
<stop offset="0.47" stop-color="#F48781"/>
<stop offset="0.73" stop-color="#F37B79"/>
<stop offset="1" stop-color="#F37777"/>
</linearGradient>
<linearGradient id="paint12_linear_17_6040" x1="110.004" y1="67.4735" x2="191.299" y2="76.991" gradientUnits="userSpaceOnUse">
<stop stop-color="#F8A795"/>
<stop offset="0.43" stop-color="#F8A997"/>
<stop offset="0.52" stop-color="#F7A290"/>
<stop offset="0.76" stop-color="#F69684"/>
<stop offset="1" stop-color="#F69280"/>
</linearGradient>
<linearGradient id="paint13_linear_17_6040" x1="154.882" y1="-7.37773" x2="143.018" y2="93.883" gradientUnits="userSpaceOnUse">
<stop stop-color="#010101"/>
<stop offset="0.35" stop-color="#010101"/>
<stop offset="1" stop-color="#1A0F21"/>
</linearGradient>
<linearGradient id="paint14_linear_17_6040" x1="84.3456" y1="42.872" x2="211.904" y2="57.8058" gradientUnits="userSpaceOnUse">
<stop stop-color="#31111B"/>
<stop offset="1" stop-color="#1A0F21"/>
</linearGradient>
<linearGradient id="paint15_linear_17_6040" x1="153.141" y1="33.6483" x2="145.862" y2="95.7672" gradientUnits="userSpaceOnUse">
<stop stop-color="#31111B"/>
<stop offset="1" stop-color="#1A0F21"/>
</linearGradient>
<linearGradient id="paint16_linear_17_6040" x1="124.082" y1="13.5156" x2="156.458" y2="17.3059" gradientUnits="userSpaceOnUse">
<stop stop-color="#31111B"/>
<stop offset="1" stop-color="#1A0F21"/>
</linearGradient>
<linearGradient id="paint17_linear_17_6040" x1="124.243" y1="79.2516" x2="124.552" y2="68.7159" gradientUnits="userSpaceOnUse">
<stop stop-color="#E6DBEC"/>
<stop offset="1" stop-color="#B8C1E2"/>
</linearGradient>
<linearGradient id="paint18_linear_17_6040" x1="124.461" y1="78.4757" x2="125.558" y2="68.9575" gradientUnits="userSpaceOnUse">
<stop stop-color="#48204B"/>
<stop offset="1" stop-color="#301138"/>
</linearGradient>
<linearGradient id="paint19_linear_17_6040" x1="124.493" y1="78.2062" x2="125.525" y2="69.2463" gradientUnits="userSpaceOnUse">
<stop stop-color="#57345B"/>
<stop offset="1" stop-color="#301138"/>
</linearGradient>
<linearGradient id="paint20_linear_17_6040" x1="124.685" y1="76.8503" x2="125.354" y2="71.0373" gradientUnits="userSpaceOnUse">
<stop stop-color="#A093B6"/>
<stop offset="0.99" stop-color="#734B61"/>
</linearGradient>
<linearGradient id="paint21_linear_17_6040" x1="133.5" y1="71.9064" x2="116.221" y2="69.9202" gradientUnits="userSpaceOnUse">
<stop stop-color="#F7A190"/>
<stop offset="0.43" stop-color="#F3A592"/>
<stop offset="0.51" stop-color="#F39F8D"/>
<stop offset="0.76" stop-color="#F49383"/>
<stop offset="1" stop-color="#F58F80"/>
</linearGradient>
<linearGradient id="paint22_linear_17_6040" x1="162.078" y1="83.8473" x2="165.122" y2="71.9466" gradientUnits="userSpaceOnUse">
<stop stop-color="#E6DBEC"/>
<stop offset="1" stop-color="#B8C1E2"/>
</linearGradient>
<linearGradient id="paint23_linear_17_6040" x1="161.89" y1="83.2494" x2="163.724" y2="72.2506" gradientUnits="userSpaceOnUse">
<stop stop-color="#48204B"/>
<stop offset="1" stop-color="#301138"/>
</linearGradient>
<linearGradient id="paint24_linear_17_6040" x1="161.934" y1="83.112" x2="163.659" y2="72.7532" gradientUnits="userSpaceOnUse">
<stop stop-color="#57345B"/>
<stop offset="1" stop-color="#301138"/>
</linearGradient>
<linearGradient id="paint25_linear_17_6040" x1="162.244" y1="81.0774" x2="163.363" y2="74.3597" gradientUnits="userSpaceOnUse">
<stop stop-color="#A093B6"/>
<stop offset="0.99" stop-color="#734B61"/>
</linearGradient>
<linearGradient id="paint26_linear_17_6040" x1="153.958" y1="72.7034" x2="173.952" y2="76.0335" gradientUnits="userSpaceOnUse">
<stop stop-color="#F7A190"/>
<stop offset="0.43" stop-color="#F3A592"/>
<stop offset="0.51" stop-color="#F39F8D"/>
<stop offset="0.76" stop-color="#F49383"/>
<stop offset="1" stop-color="#F58F80"/>
</linearGradient>
<linearGradient id="paint27_linear_17_6040" x1="140.23" y1="92.1274" x2="141.56" y2="81.7301" gradientUnits="userSpaceOnUse">
<stop stop-color="#F37B7F"/>
<stop offset="0.4" stop-color="#F3817F"/>
<stop offset="1" stop-color="#F48680"/>
</linearGradient>
<linearGradient id="paint28_linear_17_6040" x1="134.406" y1="87.9638" x2="135.138" y2="82.2462" gradientUnits="userSpaceOnUse">
<stop stop-color="#FBE3D4"/>
<stop offset="0.99" stop-color="#AE7CB7"/>
</linearGradient>
<linearGradient id="paint29_linear_17_6040" x1="146.759" y1="89.5237" x2="147.491" y2="83.8061" gradientUnits="userSpaceOnUse">
<stop stop-color="#FBE3D4"/>
<stop offset="0.99" stop-color="#AE7CB7"/>
</linearGradient>
<linearGradient id="paint30_linear_17_6040" x1="123.617" y1="54.7985" x2="122.913" y2="60.8122" gradientUnits="userSpaceOnUse">
<stop stop-color="#31111B"/>
<stop offset="1" stop-color="#1A0F21"/>
</linearGradient>
<linearGradient id="paint31_linear_17_6040" x1="110.356" y1="56.1416" x2="129.525" y2="58.3858" gradientUnits="userSpaceOnUse">
<stop stop-color="#31111B"/>
<stop offset="1" stop-color="#1A0F21"/>
</linearGradient>
<linearGradient id="paint32_linear_17_6040" x1="168.444" y1="59.9006" x2="167.74" y2="65.9143" gradientUnits="userSpaceOnUse">
<stop stop-color="#31111B"/>
<stop offset="1" stop-color="#1A0F21"/>
</linearGradient>
<linearGradient id="paint33_linear_17_6040" x1="161.852" y1="62.1753" x2="181.022" y2="64.4195" gradientUnits="userSpaceOnUse">
<stop stop-color="#31111B"/>
<stop offset="1" stop-color="#1A0F21"/>
</linearGradient>
<linearGradient id="paint34_linear_17_6040" x1="182.655" y1="111.47" x2="188.36" y2="80.8509" gradientUnits="userSpaceOnUse">
<stop stop-color="#F7A190"/>
<stop offset="0.43" stop-color="#F3A592"/>
<stop offset="0.51" stop-color="#F39F8D"/>
<stop offset="0.76" stop-color="#F49383"/>
<stop offset="1" stop-color="#F58F80"/>
</linearGradient>
<linearGradient id="paint35_linear_17_6040" x1="184.139" y1="103.498" x2="188.064" y2="82.4316" gradientUnits="userSpaceOnUse">
<stop stop-color="#F7A190"/>
<stop offset="0.43" stop-color="#F3A592"/>
<stop offset="0.51" stop-color="#F39F8D"/>
<stop offset="0.76" stop-color="#F49383"/>
<stop offset="1" stop-color="#F58F80"/>
</linearGradient>
<linearGradient id="paint36_linear_17_6040" x1="182.218" y1="95.1385" x2="183.924" y2="85.9862" gradientUnits="userSpaceOnUse">
<stop stop-color="#F7A190"/>
<stop offset="0.43" stop-color="#F3A592"/>
<stop offset="0.51" stop-color="#F39F8D"/>
<stop offset="0.76" stop-color="#F49383"/>
<stop offset="1" stop-color="#F58F80"/>
</linearGradient>
<linearGradient id="paint37_linear_17_6040" x1="191.375" y1="97.4647" x2="178.408" y2="95.0506" gradientUnits="userSpaceOnUse">
<stop stop-color="#F7A190"/>
<stop offset="0.43" stop-color="#F3A592"/>
<stop offset="0.51" stop-color="#F39F8D"/>
<stop offset="0.76" stop-color="#F49383"/>
<stop offset="1" stop-color="#F58F80"/>
</linearGradient>
</defs>
</svg>
