<svg width="231" height="746" viewBox="0 0 231 746" fill="none" xmlns="http://www.w3.org/2000/svg">
<path d="M137.998 86.1841L140.096 118.708L163.715 120.929L132.24 155.253L90.9515 125.127L109.849 119.006L110.964 75.2083L137.998 86.1841Z" fill="url(#paint0_linear_18_6421)"/>
<path d="M133.627 7.71984C133.627 7.71984 169.816 12.1804 172.229 55.1444C174.652 98.1083 142.729 105.923 122.936 100.725C103.143 95.5268 91.7239 72.6092 90.1265 59.7367C88.5202 46.8642 100.659 5.28759 133.627 7.71984Z" fill="url(#paint1_linear_18_6421)"/>
<path d="M147.732 65.3914C146.793 65.0227 151.559 57.682 157.703 56.9356C165.128 56.0312 166.155 62.7572 165.997 64.1007C165.839 65.4353 152.27 67.1564 147.732 65.4002V65.3914Z" fill="url(#paint2_linear_18_6421)"/>
<path d="M162.688 64.2412C162.636 64.8558 162.451 65.4266 162.171 65.9271C162.109 66.0412 154.815 66.6471 154.754 66.5768C154.052 65.7251 153.674 64.6275 153.779 63.4597C153.999 61.0625 156.167 59.2888 158.625 59.5084C161.082 59.7279 162.899 61.844 162.688 64.2412Z" fill="url(#paint3_linear_18_6421)"/>
<path style="mix-blend-mode:multiply" d="M161.126 64.1095C160.986 65.6637 159.581 66.814 157.984 66.6735C156.386 66.533 155.21 65.1544 155.351 63.6002C155.491 62.0461 156.895 60.8958 158.493 61.0363C160.09 61.1768 161.267 62.5553 161.126 64.1095Z" fill="url(#paint4_linear_18_6421)"/>
<path d="M148.127 63.8547C148.127 63.8547 152.085 53.3267 158.809 52.9403C165.532 52.5628 165.875 62.5815 165.875 62.5815C165.875 62.5815 164.777 57.2253 158.458 57.0146C152.138 56.7951 148.127 63.846 148.127 63.846V63.8547Z" fill="url(#paint5_linear_18_6421)"/>
<path d="M147.899 64.2673L148.847 65.7161C148.847 65.7161 147.486 65.7249 147.381 65.3386C147.275 64.9434 147.899 64.2673 147.899 64.2673Z" fill="#D66C7C"/>
<path d="M149.724 65.9182C149.724 65.9182 154.859 67.1739 159.441 66.6646C164.023 66.1553 165.699 64.4167 165.699 64.4167C165.699 64.4167 158.37 66.5417 149.716 65.9182H149.724Z" fill="#D66C7C"/>
<path d="M160.038 61.0624C159.73 61.2995 161.047 61.4751 162.074 61.1678C162.996 60.8868 163.47 60.3512 163.399 60.237C163.32 60.1317 161.258 60.1405 160.038 61.0624Z" fill="white"/>
<path d="M159.257 61.247C158.897 61.0801 158.431 61.247 158.396 61.4489C158.361 61.6509 158.8 61.9494 159.028 61.8792C159.257 61.8177 159.458 61.3435 159.257 61.247Z" fill="white"/>
<g style="mix-blend-mode:multiply" opacity="0.6">
<path d="M147.899 64.2675C147.899 64.2675 152.428 59.1571 157.738 58.5951C163.048 58.0419 165.304 61.2645 165.304 61.2645C165.304 61.2645 164.927 57.3219 158.045 57.2253C151.155 57.1288 147.899 64.2587 147.899 64.2587V64.2675Z" fill="#C978B1"/>
</g>
<path d="M147.899 64.2674C147.899 64.2674 151.699 57.3306 158.818 57.4272C165.172 57.515 165.971 63.2576 165.971 63.2576C165.971 63.2576 167.077 58.3843 162.838 56.8477C158.809 55.3813 151.515 56.9882 147.89 64.2674H147.899Z" fill="#401432"/>
<path d="M128.167 63.4598C129.308 63.1788 124.885 53.9854 117.889 52.2117C109.445 50.0692 107.269 57.6997 107.251 59.2714C107.233 60.8432 122.664 64.8208 128.167 63.4598Z" fill="url(#paint6_linear_18_6421)"/>
<path d="M116.695 60.1407C116.643 61.5017 117.196 62.7485 118.1 63.6091C118.231 63.732 123.945 63.7934 124.095 63.653C124.946 62.8715 125.499 61.7475 125.543 60.4831C125.631 57.9982 123.726 55.8996 121.286 55.803C118.846 55.7064 116.783 57.647 116.695 60.1319V60.1407Z" fill="url(#paint7_linear_18_6421)"/>
<path style="mix-blend-mode:multiply" d="M118.249 60.2021C118.187 61.8178 119.425 63.1788 121.014 63.2402C122.602 63.3017 123.937 62.0461 123.989 60.4304C124.051 58.8148 122.813 57.4538 121.224 57.3923C119.636 57.3308 118.302 58.5865 118.249 60.2021Z" fill="url(#paint8_linear_18_6421)"/>
<path d="M127.939 61.6246C127.939 61.6246 124.92 48.8662 117.204 47.4437C109.489 46.0125 107.62 57.5503 107.62 57.5503C107.62 57.5503 109.674 51.5268 117.011 52.2117C124.349 52.8966 127.948 61.6334 127.948 61.6334L127.939 61.6246Z" fill="url(#paint9_linear_18_6421)"/>
<path d="M128.141 62.1426L126.833 63.6792C126.833 63.6792 128.404 63.8899 128.58 63.4597C128.755 63.0206 128.141 62.1514 128.141 62.1514V62.1426Z" fill="#D66C7C"/>
<path d="M125.789 63.7759C125.789 63.7759 119.662 64.4783 114.448 63.2051C109.235 61.9407 107.541 59.6841 107.541 59.6841C107.541 59.6841 115.695 63.2139 125.789 63.7671V63.7759Z" fill="#D66C7C"/>
<path d="M123.033 61.2471C123.48 61.1153 123.981 61.3612 123.989 61.5983C123.998 61.8354 123.445 62.1163 123.199 62.0022C122.954 61.8968 122.787 61.3173 123.033 61.2383V61.2471Z" fill="white"/>
<g style="mix-blend-mode:multiply" opacity="0.6">
<path d="M128.141 62.1425C128.141 62.1425 123.656 55.5658 117.599 54.1433C111.543 52.7209 108.462 56.119 108.462 56.119C108.462 56.119 109.472 51.6233 117.45 52.5277C125.42 53.4321 128.141 62.1513 128.141 62.1513V62.1425Z" fill="#C978B1"/>
</g>
<path d="M128.141 62.1425C128.141 62.1425 124.77 53.5638 116.52 52.633C109.156 51.7989 107.391 58.3229 107.391 58.3229C107.391 58.3229 106.838 52.5277 111.956 51.3774C116.827 50.2798 125.025 53.2126 128.132 62.1513L128.141 62.1425Z" fill="#401432"/>
<path d="M147.012 76.0335C147.012 76.0335 146.872 76.3936 145.476 76.3497C144.08 76.3145 142.702 77.4472 140.35 77.298C137.989 77.1487 136.883 75.8579 135.496 75.7174C134.109 75.577 133.89 75.1994 133.89 75.1994C133.741 74.2774 133.925 73.3993 134.232 72.6618C134.232 72.6618 134.232 72.6442 134.241 72.6354C134.785 71.3359 135.672 70.4578 135.672 70.4578C139.086 69.0705 142.641 69.2988 145.854 71.1076C145.854 71.1076 146.345 71.7398 146.731 72.6881V72.6969C147.1 73.6189 147.381 74.8218 147.012 76.0423V76.0335Z" fill="url(#paint10_linear_18_6421)"/>
<path d="M143.8 76.7009C143.8 76.7009 144.932 75.8491 146.231 76.3321L143.8 76.7009Z" fill="#812852"/>
<path d="M134.785 75.6033C134.785 75.6033 136.163 75.2872 137.445 76.4463L134.785 75.6033Z" fill="#812852"/>
<g style="mix-blend-mode:multiply" opacity="0.6">
<path d="M147.012 76.0336C147.012 76.0336 146.872 76.3937 145.476 76.3498C144.08 76.3146 142.702 77.4473 140.35 77.2981C137.989 77.1488 136.883 75.858 135.496 75.7176C134.109 75.5771 133.89 75.1995 133.89 75.1995C133.741 74.2775 133.925 73.3994 134.232 72.6619C134.171 72.8814 133.785 74.2951 134.311 74.6814C134.891 75.0941 138.323 75.0941 140.473 75.2346C142.623 75.3751 146.275 75.6122 146.722 75.0678C147.153 74.5497 146.766 72.855 146.722 72.697C147.091 73.619 147.372 74.8219 147.003 76.0424L147.012 76.0336Z" fill="#C978B1"/>
</g>
<path style="mix-blend-mode:multiply" opacity="0.6" d="M145.845 71.0989C145.845 71.0989 144.932 73.417 144.914 75.0853C144.914 75.0853 144.449 73.4258 145.371 70.8442L145.845 71.0989Z" fill="url(#paint11_linear_18_6421)"/>
<path style="mix-blend-mode:multiply" opacity="0.6" d="M135.786 70.4578C135.786 70.4578 136.4 72.8725 136.207 74.5321C136.207 74.5321 136.883 72.9515 136.295 70.2646L135.795 70.4578H135.786Z" fill="url(#paint12_linear_18_6421)"/>
<g style="mix-blend-mode:multiply" opacity="0.6">
<path d="M134.32 74.6814C134.32 74.6814 133.969 75.0238 133.89 75.1994C133.811 75.3838 136.743 78.5273 140.254 78.7469C143.765 78.9664 146.924 76.3936 147.012 76.0336C147.1 75.6824 146.556 75.1907 146.556 75.1907C146.556 75.1907 143.791 75.4453 140.473 75.2258C137.164 75.0151 134.311 74.6726 134.311 74.6726L134.32 74.6814Z" fill="#C978B1"/>
</g>
<path d="M143.326 74.6024C142.843 74.2863 143.773 73.5224 144.01 73.5663C144.247 73.619 144.335 74.1546 144.186 74.4882C144.037 74.8219 143.528 74.7341 143.326 74.6024Z" fill="#FBC9B8"/>
<path d="M148.276 47.6456C148.276 47.6456 150.33 46.9607 155.122 47.2066C156.544 47.2768 158.203 47.4349 160.125 47.7159C168.525 48.9452 174.353 50.9999 174.353 50.9999C174.318 50.8506 172.308 46.9695 169.464 45.0729C169.482 45.108 169.798 45.7754 169.693 46.4427C169.693 46.4427 166.498 43.5363 161.855 42.0611C160.986 41.7889 160.073 41.5606 159.116 41.4201C153.042 40.4894 149.768 44.7392 149.768 44.7392C149.768 44.7392 150.014 43.589 150.725 42.948C150.725 42.948 148.627 44.0719 148.267 47.6369L148.276 47.6456Z" fill="url(#paint13_linear_18_6421)"/>
<path style="mix-blend-mode:multiply" opacity="0.6" d="M155.122 47.2153C156.544 47.2856 158.203 47.4436 160.125 47.7246C168.525 48.9539 174.353 51.0086 174.353 51.0086C174.318 50.8593 172.308 46.9782 169.464 45.0816C169.482 45.1167 169.798 45.7841 169.693 46.4514C169.693 46.4514 166.498 43.545 161.855 42.0698C163.452 43.0445 166.928 45.2309 168.78 48.269C168.78 48.269 164.356 46.2758 155.114 47.2065L155.122 47.2153Z" fill="url(#paint14_linear_18_6421)"/>
<path d="M129.045 45.9773C129.045 45.9773 127.14 44.9499 122.383 44.3704C120.97 44.1948 119.302 44.0631 117.362 44.0104C108.875 43.7733 102.783 44.8007 102.783 44.8007C102.845 44.6602 105.495 41.183 108.62 39.8044C108.594 39.8396 108.172 40.4367 108.164 41.1128C108.164 41.1128 111.806 38.7947 116.634 38.1537C117.529 38.0307 118.477 37.9693 119.443 37.9868C125.587 38.1185 128.079 42.8689 128.079 42.8689C128.079 42.8689 128.035 41.6923 127.447 40.9372C127.447 40.9372 129.326 42.4035 129.062 45.9861L129.045 45.9773Z" fill="url(#paint15_linear_18_6421)"/>
<path style="mix-blend-mode:multiply" opacity="0.6" d="M122.374 44.3703C120.961 44.1947 119.293 44.063 117.354 44.0103C108.866 43.7732 102.775 44.8006 102.775 44.8006C102.836 44.6601 105.487 41.1829 108.611 39.8043C108.585 39.8395 108.164 40.4365 108.155 41.1127C108.155 41.1127 111.798 38.7946 116.625 38.1536C114.878 38.8385 111.087 40.3926 108.734 43.0708C108.734 43.0708 113.439 41.8766 122.374 44.3791V44.3703Z" fill="url(#paint16_linear_18_6421)"/>
<path d="M85.6413 62.2303C85.8256 63.1962 86.0275 64.0654 86.2557 64.8381L86.2732 64.8733C87.8795 70.4227 90.4512 71.7749 91.4431 74.2862C92.3032 76.455 95.779 80.8454 99.3777 76.4199C99.3865 76.4199 99.3953 76.4111 99.3953 76.4111C99.3953 76.4111 98.0699 58.1033 96.7884 54.7579C96.7884 54.7579 94.9452 49.7353 91.4694 48.9187C87.0017 47.8651 84.0614 53.713 85.65 62.2391L85.6413 62.2303Z" fill="url(#paint17_linear_18_6421)"/>
<path style="mix-blend-mode:multiply" opacity="0.6" d="M98.3859 65.0401C98.3859 65.0401 91.5572 54.714 88.213 53.9764C84.8689 53.2476 86.3873 61.9229 87.0018 64.8206C87.6249 67.7182 88.5992 69.4392 88.5992 69.4392C88.5992 69.4392 87.818 66.0235 87.7039 63.2664C87.5372 59.3063 88.8625 55.9345 90.2669 56.2857C91.6713 56.6369 93.4706 61.6419 93.5847 62.2127C93.6988 62.7834 92.6192 63.7756 92.628 66.8489C92.628 69.9221 94.0324 73.2851 94.8311 73.2588C95.6298 73.2325 95.3314 70.7387 95.3841 67.8675C95.4367 64.9962 97.6662 65.602 98.6229 67.4811L98.3771 65.0401H98.3859Z" fill="url(#paint18_linear_18_6421)"/>
<path style="mix-blend-mode:multiply" opacity="0.6" d="M98.6317 67.4812C98.6317 67.4812 96.8762 64.7153 95.7703 65.9358C94.6644 67.1563 95.3753 70.6072 94.5415 71.0111C93.7076 71.4062 92.6456 68.6051 92.9089 66.0675C93.1722 63.5299 94.2255 61.2645 95.6474 61.7211L98.3771 65.049L98.6229 67.49L98.6317 67.4812Z" fill="url(#paint19_linear_18_6421)"/>
<path style="mix-blend-mode:multiply" d="M86.2645 64.8733C87.8707 70.4227 90.4425 71.7749 91.4343 74.2862C92.2945 76.455 95.7703 80.8454 99.369 76.4199C99.1583 76.5867 97.0957 78.2024 95.0418 77.4121C92.8826 76.578 92.2243 74.5321 91.3377 72.9428C90.4512 71.3534 88.1165 70.2295 86.2645 64.8821V64.8733Z" fill="url(#paint20_linear_18_6421)"/>
<path d="M214.264 187.715C214.264 187.715 203.424 269.463 184.93 267.918C166.436 266.373 187.344 202.194 187.344 202.194L214.264 187.715Z" fill="url(#paint21_linear_18_6421)"/>
<path d="M122.322 391.445L38.2877 726.121L5.05688 722.284L24.2265 687.758L76.1179 366.341L122.322 391.445Z" fill="#F8AEA0"/>
<path opacity="0.2" d="M29.3612 655.963L76.1179 366.341L122.33 391.445L54.6223 661.065C46.2224 659.274 37.7962 657.579 29.3612 655.963Z" fill="#201829"/>
<path d="M134.127 373.831L143.844 708.191L168.007 692.553L199.808 358.377L134.127 373.831Z" fill="#F8AEA0"/>
<path opacity="0.2" d="M142.422 659.221L134.127 373.831L199.808 358.368L171.211 658.879C161.618 658.571 151.884 659.063 142.422 659.221Z" fill="#201829"/>
<path d="M188.45 197.348L181.911 282.169L76.8376 268.243L107.444 214.856L188.45 197.348Z" fill="#E8A723"/>
<path d="M185.343 231.109C185.343 231.109 153.367 244.236 97.2185 234.578C97.2185 234.578 46.5911 280.852 38.9197 339.665C33.5392 380.952 9.56842 639.833 9.56842 639.833L85.6852 645.611L155.228 315.369L120.715 346.057L130.941 642.687L210.621 648.93C210.621 648.93 238.305 384.412 185.343 231.109Z" fill="#E5BF22"/>
<path d="M92.1189 634.723L5.59229 613.693L1.86194 646.524L88.766 656.754L92.1189 634.723Z" fill="#E5BF22"/>
<path opacity="0.2" d="M143.413 335.828C168.086 322.534 187.116 306.43 201.3 291.424C231.968 444.954 210.621 648.93 210.621 648.93L130.941 642.687L124.665 460.496L121.4 476.012C133.864 402.983 143.413 335.819 143.413 335.819V335.828Z" fill="#201829"/>
<path d="M215.782 615.537L124.112 634.574L125.473 653.689L212.719 653.092L215.782 615.537Z" fill="#BE9E23"/>
<path opacity="0.2" d="M101.379 225.437L107.444 214.856L188.45 197.339L185.808 231.627C162.329 233.55 128.957 233.963 101.379 225.437Z" fill="#201829"/>
<path d="M152.024 120.06C152.024 120.06 165.444 117.18 175.986 121.017C186.528 124.854 202.827 158.414 206.663 172.797C210.498 187.18 211.455 209.237 211.455 209.237C211.455 209.237 126.14 237.045 93.5496 220.748L77.2502 177.591C77.2502 177.591 51.3659 129.64 75.3367 127.725L97.3853 124.845C97.3853 124.845 148.188 147.86 152.024 120.051V120.06Z" fill="#722D15"/>
<path opacity="0.1" d="M198.877 152.864C168.069 179.25 128.553 197.023 89.3629 209.658L93.5496 220.748C126.14 237.054 211.455 209.237 211.455 209.237C211.455 209.237 210.498 187.179 206.663 172.797C205.329 167.792 202.467 160.451 198.877 152.856V152.864Z" fill="#201829"/>
<path d="M168.815 690.155L141.974 696.864L139.095 716.998L230.16 720.352C230.16 720.352 224.735 710.764 168.815 690.147V690.155Z" fill="white"/>
<path d="M230.16 720.361L139.095 717.007L138.138 723.724L229.203 724.681L230.16 720.361Z" fill="#2B2238"/>
<path d="M176.258 692.43C173.344 695.283 171.395 698.901 169.078 702.22C168.868 702.528 169.368 702.817 169.579 702.51C171.861 699.235 173.783 695.652 176.662 692.842C176.934 692.579 176.521 692.166 176.249 692.43H176.258Z" fill="#2B2238"/>
<path d="M181.972 694.124C179.058 696.978 177.11 700.596 174.792 703.915C174.582 704.222 175.082 704.512 175.293 704.205C177.575 700.929 179.497 697.347 182.376 694.537C182.648 694.274 182.235 693.861 181.963 694.124H181.972Z" fill="#2B2238"/>
<path d="M188.239 696.267C185.325 699.121 183.376 702.738 181.059 706.057C180.849 706.365 181.349 706.654 181.56 706.347C183.842 703.072 185.764 699.489 188.643 696.679C188.915 696.416 188.502 696.003 188.23 696.267H188.239Z" fill="#2B2238"/>
<path d="M49.47 681.524L42.7642 717.481C42.7642 717.481 30.7831 752.481 7.2951 744.332C-16.193 736.184 24.5513 682.481 24.5513 682.481C24.5513 682.481 36.5323 692.552 49.47 681.524Z" fill="white"/>
<path d="M7.29511 738.581C29.8528 744.218 40.8946 718.35 43.8789 711.492L42.7642 717.49C42.7642 717.49 30.7832 752.49 7.29511 744.341C1.82686 742.444 -0.130481 738.054 0.036288 732.47C1.309 734.313 3.45944 737.624 7.29511 738.581Z" fill="#2B2238"/>
<path d="M35.9179 691.49C32.486 689.277 28.5274 688.189 24.7795 686.67C24.4372 686.529 24.2792 687.091 24.6215 687.232C28.3255 688.724 32.2314 689.804 35.6195 691.991C35.9354 692.193 36.2251 691.692 35.9091 691.49H35.9179Z" fill="#2B2238"/>
<path d="M33.39 697.698C29.8791 695.617 25.8854 694.669 22.0849 693.299C21.7338 693.176 21.5846 693.729 21.9269 693.861C25.6836 695.222 29.6334 696.153 33.0916 698.207C33.4164 698.4 33.706 697.9 33.3813 697.707L33.39 697.698Z" fill="#2B2238"/>
<path d="M29.8177 703.651C26.5086 701.307 22.6291 700.051 18.9689 698.383C18.6354 698.225 18.337 698.725 18.6793 698.883C22.3394 700.552 26.219 701.807 29.528 704.152C29.8352 704.371 30.1249 703.862 29.8177 703.651Z" fill="#2B2238"/>
<path d="M108.322 173.341L122.559 219.273L177.671 202.484C177.671 202.484 173.52 185.713 177.706 183.553C188.538 177.951 218.328 180.498 186.036 186.196C186.036 186.196 238.524 186.899 189.845 193.353C189.845 193.353 195.972 213.908 188.134 218.404C180.296 222.9 117.152 257.856 102.889 257.495C88.6255 257.144 73.3618 187.566 73.3618 187.566L108.322 173.333V173.341Z" fill="url(#paint22_linear_18_6421)"/>
<path d="M115.976 180.875L66.4014 201.246C66.4014 201.246 47.0826 136.594 75.3279 127.743C103.573 118.892 115.967 180.884 115.967 180.884L115.976 180.875Z" fill="#722D15"/>
<path d="M211.201 228.739C210.709 230.635 208.769 231.759 206.882 231.267L184.052 225.279C182.156 224.787 181.033 222.847 181.524 220.95L195.436 167.844C195.928 165.948 197.868 164.824 199.755 165.316L222.585 171.304C224.472 171.796 225.604 173.736 225.113 175.633L211.201 228.739Z" fill="#2B2238"/>
<path d="M222.787 199.762C222.787 199.762 226.324 188.549 223.375 187.952C220.426 187.364 185.606 180.866 218.064 190.902C218.064 190.902 174.985 188.54 215.703 197.4C215.703 197.4 182.069 196.224 214.527 203.898C214.527 203.898 186.203 205.672 215.115 210.984C215.115 210.984 222.199 211.572 222.787 199.771V199.762Z" fill="url(#paint23_linear_18_6421)"/>
<g style="mix-blend-mode:multiply" opacity="0.6">
<path d="M127.132 83.5234C127.132 83.5234 131.889 91.6456 138.2 92.3393C144.511 93.0242 150.9 86.1225 150.9 86.1225C150.9 86.1225 143.896 88.5197 138.674 87.9489C133.451 87.3782 127.132 83.5322 127.132 83.5322V83.5234Z" fill="#CE78B1"/>
</g>
<path d="M138.919 85.7362C138.919 85.7362 133.442 85.3059 126.14 82.4961C126.14 82.4961 130.818 88.1421 138.568 88.985C146.31 89.828 152.103 85.3235 152.103 85.3235C144.361 86.4913 138.928 85.7274 138.928 85.7274L138.919 85.7362Z" fill="#EF7172"/>
<path d="M139.077 84.2961C135.075 83.8571 126.14 82.4873 126.14 82.4873C131.582 85.7274 138.849 86.3596 138.849 86.3596C138.849 86.3596 146.082 87.3079 152.094 85.3235C152.094 85.3235 143.071 84.7352 139.069 84.2961H139.077Z" fill="#DE4E6C"/>
<g style="mix-blend-mode:soft-light" opacity="0.5">
<path d="M144.642 87.2991C143.8 87.4045 142.185 87.5976 142.141 88.0542C142.097 88.5108 142.422 88.6952 143.282 88.7128C144.142 88.7303 145.818 88.265 146.257 87.8962C146.696 87.5274 145.125 87.2464 144.651 87.2991H144.642Z" fill="#FDF7BA"/>
</g>
<path d="M127.825 80.942C127.825 80.942 125.815 82.2942 125.113 83.4708C125.113 83.4708 124.323 82.2591 124.841 81.3108C125.402 80.2746 127.825 80.942 127.825 80.942Z" fill="#DC6B7D"/>
<path d="M150.602 83.4358C150.602 83.4358 152.279 85.1919 152.709 86.4915C152.709 86.4915 153.744 85.4729 153.446 84.4456C153.121 83.3129 150.611 83.4446 150.611 83.4446L150.602 83.4358Z" fill="#DC6B7D"/>
<path d="M126.579 81.908C126.579 81.908 127.132 82.8914 128.624 83.7519C128.624 83.7519 126.579 82.8651 125.955 82.4699L126.587 81.908H126.579Z" fill="#842852"/>
<path d="M151.611 84.6387C151.611 84.6387 151.234 85.2182 150.339 85.8153C150.339 85.8153 151.901 85.6045 152.226 85.5167L151.611 84.6387Z" fill="#842852"/>
<path d="M188.95 74.8306L188.933 74.857C186.756 77.1663 183.991 80.02 183.605 80.1781C182.946 80.4415 176.478 82.8562 176.478 82.8562C176.478 82.8562 173.546 86.1402 170.412 88.4758H168.359C168.359 88.4758 172.458 70.9496 171.966 56.5053C171.483 42.0874 165.33 29.7944 162.715 23.6304C162.829 23.9992 165.427 26.8178 165.523 30.7779L150.936 29.8296C150.936 29.8296 152.401 19.284 149.364 15.1395C149.364 15.1395 150.839 24.4733 150.058 29.9964L139.095 28.6178C139.095 28.6178 138.972 14.8848 135.163 10.2223L133.627 10.1345C133.627 10.1345 126.93 17.8176 127.448 30.4881L120.54 31.4101C120.54 31.4101 120.013 22.1991 123.805 14.2438C123.805 14.2526 123.796 14.2526 123.787 14.2614C123.779 14.2877 123.744 14.3141 123.735 14.3404C123.507 14.7004 122.673 15.9912 121.698 17.8878C121.681 17.9142 121.663 17.9405 121.663 17.9668C119.908 21.4177 117.714 26.8178 117.801 32.2091H107.488L106.961 26.2734L106.11 32.2091L102.915 32.613C102.915 32.613 101.186 40.5157 98.8687 51.834C96.5954 62.924 102.353 84.1996 107.743 88.23C107.857 88.309 107.962 88.3968 108.076 88.4583H103.661C103.661 88.4583 101.581 87.4573 99.1495 85.7363C99.1057 85.7187 99.0793 85.7011 99.0442 85.6748C98.5966 85.3587 98.1314 85.0075 97.6662 84.6562C97.6486 84.6387 97.6135 84.6123 97.5872 84.586C96.2881 83.5499 94.9715 82.3294 93.8919 80.9859C92.8387 79.66 92.0048 78.2024 91.6186 76.657C91.8117 77.6141 92.7158 81.8201 94.6029 85.7011C94.6029 85.7011 88.9854 79.1683 86.44 76.0248C85.0181 74.2687 80.0238 70.3964 76.1267 64.6275V64.6011C75.3894 63.5474 74.7223 62.4323 74.1167 61.2469C73.0195 59.1395 72.1506 56.8302 71.6503 54.3365C71.6503 54.3365 80.0765 48.1461 85.5623 37.0034C87.8795 32.2882 89.5999 27.1076 91.6274 22.3133C91.645 22.2694 91.6625 22.2255 91.6801 22.1728C91.7327 22.0587 91.7766 21.9357 91.8381 21.8128C92.0663 21.286 92.2945 20.7679 92.5315 20.241C92.7246 19.8196 92.9264 19.4069 93.1283 19.0118C93.5584 18.0722 94.0236 17.159 94.5327 16.2722C94.6995 15.9824 94.8662 15.6926 95.0506 15.4117C95.112 15.2887 95.1646 15.2009 95.2085 15.1395C95.2173 15.1219 95.2173 15.1131 95.2261 15.0956H95.2349L95.2437 15.0692L95.2524 15.0517C97.4029 11.5921 100.062 8.712 103.766 6.87683C109.551 4.01432 114.87 -0.323341 119.68 0.0191057C119.864 0.0278864 120.04 0.0366671 120.215 0.0542285C125.525 0.502044 130.195 1.83671 134.136 1.76646C136.743 1.72256 140.754 1.45914 145.186 1.32743H145.204C149.277 1.21328 153.692 1.19572 157.703 1.58207C157.738 1.59085 157.764 1.59963 157.799 1.59963C162.223 2.0211 166.155 6.82415 168.534 8.53638C170.421 9.90617 172.063 11.6535 173.537 13.6731C173.555 13.6906 173.572 13.6994 173.572 13.717C175.082 15.8156 176.39 18.1864 177.54 20.6889C177.548 20.6976 177.548 20.7152 177.557 20.7328C181.744 29.7944 183.912 40.5245 186.449 45.7578C190.363 53.836 196.139 52.9052 195.551 57.9805C195.489 58.56 196.279 63.3455 195.937 64.0831C195.296 65.4792 194.243 67.0861 193.014 68.7281" fill="url(#paint24_linear_18_6421)"/>
<path d="M133.757 63.1474C135.066 55.0817 129.591 47.4817 121.528 46.1725C113.466 44.8632 105.869 50.3404 104.56 58.4062C103.251 66.4719 108.726 74.0719 116.789 75.3811C124.851 76.6904 132.448 71.2131 133.757 63.1474Z" stroke="#231F20" stroke-miterlimit="10"/>
<path d="M163.389 76.2994C171.339 74.4224 176.263 66.4537 174.386 58.5009C172.51 50.5481 164.544 45.6227 156.595 47.4998C148.645 49.3768 143.721 57.3455 145.598 65.2983C147.474 73.2511 155.44 78.1765 163.389 76.2994Z" stroke="#231F20" stroke-miterlimit="10"/>
<path d="M133.943 60.7728L140.21 58.7795L145.204 61.8879" stroke="#231F20" stroke-miterlimit="10"/>
<path d="M104.556 58.3932L97.4731 48.7871" stroke="#231F20" stroke-miterlimit="10"/>
<defs>
<linearGradient id="paint0_linear_18_6421" x1="163.92" y1="118.557" x2="92.0583" y2="112.322" gradientUnits="userSpaceOnUse">
<stop stop-color="#F9AF9C"/>
<stop offset="0.2" stop-color="#F69B8E"/>
<stop offset="0.47" stop-color="#F48781"/>
<stop offset="0.73" stop-color="#F37B79"/>
<stop offset="1" stop-color="#F37777"/>
</linearGradient>
<linearGradient id="paint1_linear_18_6421" x1="172.773" y1="58.0436" x2="90.4267" y2="50.8999" gradientUnits="userSpaceOnUse">
<stop stop-color="#F8A795"/>
<stop offset="0.43" stop-color="#F8A997"/>
<stop offset="0.52" stop-color="#F7A290"/>
<stop offset="0.76" stop-color="#F69684"/>
<stop offset="1" stop-color="#F69280"/>
</linearGradient>
<linearGradient id="paint2_linear_18_6421" x1="156.698" y1="66.5953" x2="158.539" y2="56.1138" gradientUnits="userSpaceOnUse">
<stop stop-color="#E6DBEC"/>
<stop offset="1" stop-color="#B8C1E2"/>
</linearGradient>
<linearGradient id="paint3_linear_18_6421" x1="158.113" y1="66.7392" x2="158.77" y2="59.3589" gradientUnits="userSpaceOnUse">
<stop stop-color="#57345B"/>
<stop offset="1" stop-color="#301138"/>
</linearGradient>
<linearGradient id="paint4_linear_18_6421" x1="158.131" y1="66.5378" x2="158.634" y2="60.8871" gradientUnits="userSpaceOnUse">
<stop stop-color="#A093B6"/>
<stop offset="0.99" stop-color="#734B61"/>
</linearGradient>
<linearGradient id="paint5_linear_18_6421" x1="148.818" y1="57.6027" x2="166.313" y2="59.1573" gradientUnits="userSpaceOnUse">
<stop stop-color="#F7A190"/>
<stop offset="0.43" stop-color="#F3A592"/>
<stop offset="0.51" stop-color="#F39F8D"/>
<stop offset="0.76" stop-color="#F49383"/>
<stop offset="1" stop-color="#F58F80"/>
</linearGradient>
<linearGradient id="paint6_linear_18_6421" x1="118.224" y1="64.5838" x2="117.639" y2="52.1992" gradientUnits="userSpaceOnUse">
<stop stop-color="#E6DBEC"/>
<stop offset="1" stop-color="#B8C1E2"/>
</linearGradient>
<linearGradient id="paint7_linear_18_6421" x1="121.118" y1="64.0846" x2="121.421" y2="56.135" gradientUnits="userSpaceOnUse">
<stop stop-color="#57345B"/>
<stop offset="1" stop-color="#301138"/>
</linearGradient>
<linearGradient id="paint8_linear_18_6421" x1="121.138" y1="63.5581" x2="121.361" y2="57.7144" gradientUnits="userSpaceOnUse">
<stop stop-color="#A093B6"/>
<stop offset="0.99" stop-color="#734B61"/>
</linearGradient>
<linearGradient id="paint9_linear_18_6421" x1="128.332" y1="55.0274" x2="107.878" y2="54.2491" gradientUnits="userSpaceOnUse">
<stop stop-color="#F7A190"/>
<stop offset="0.43" stop-color="#F3A592"/>
<stop offset="0.51" stop-color="#F39F8D"/>
<stop offset="0.76" stop-color="#F49383"/>
<stop offset="1" stop-color="#F58F80"/>
</linearGradient>
<linearGradient id="paint10_linear_18_6421" x1="140.36" y1="76.9697" x2="140.853" y2="69.2409" gradientUnits="userSpaceOnUse">
<stop stop-color="#F37B7F"/>
<stop offset="0.4" stop-color="#F3817F"/>
<stop offset="1" stop-color="#F48680"/>
</linearGradient>
<linearGradient id="paint11_linear_18_6421" x1="145.17" y1="74.7692" x2="145.442" y2="70.5105" gradientUnits="userSpaceOnUse">
<stop stop-color="#FBE3D4"/>
<stop offset="0.99" stop-color="#AE7CB7"/>
</linearGradient>
<linearGradient id="paint12_linear_18_6421" x1="135.992" y1="74.1945" x2="136.264" y2="69.9358" gradientUnits="userSpaceOnUse">
<stop stop-color="#FBE3D4"/>
<stop offset="0.99" stop-color="#AE7CB7"/>
</linearGradient>
<linearGradient id="paint13_linear_18_6421" x1="161.891" y1="42.7324" x2="161.361" y2="48.8296" gradientUnits="userSpaceOnUse">
<stop stop-color="#31111B"/>
<stop offset="1" stop-color="#1A0F21"/>
</linearGradient>
<linearGradient id="paint14_linear_18_6421" x1="174.72" y1="46.7723" x2="155.308" y2="45.0883" gradientUnits="userSpaceOnUse">
<stop stop-color="#31111B"/>
<stop offset="1" stop-color="#1A0F21"/>
</linearGradient>
<linearGradient id="paint15_linear_18_6421" x1="116.521" y1="38.511" x2="115.991" y2="44.6082" gradientUnits="userSpaceOnUse">
<stop stop-color="#31111B"/>
<stop offset="1" stop-color="#1A0F21"/>
</linearGradient>
<linearGradient id="paint16_linear_18_6421" x1="122.56" y1="42.2438" x2="103.147" y2="40.5597" gradientUnits="userSpaceOnUse">
<stop stop-color="#31111B"/>
<stop offset="1" stop-color="#1A0F21"/>
</linearGradient>
<linearGradient id="paint17_linear_18_6421" x1="91.9116" y1="87.1132" x2="92.51" y2="55.6752" gradientUnits="userSpaceOnUse">
<stop stop-color="#F7A190"/>
<stop offset="0.43" stop-color="#F3A592"/>
<stop offset="0.51" stop-color="#F39F8D"/>
<stop offset="0.76" stop-color="#F49383"/>
<stop offset="1" stop-color="#F58F80"/>
</linearGradient>
<linearGradient id="paint18_linear_18_6421" x1="92.0672" y1="78.931" x2="92.4791" y2="57.2905" gradientUnits="userSpaceOnUse">
<stop stop-color="#F7A190"/>
<stop offset="0.43" stop-color="#F3A592"/>
<stop offset="0.51" stop-color="#F39F8D"/>
<stop offset="0.76" stop-color="#F49383"/>
<stop offset="1" stop-color="#F58F80"/>
</linearGradient>
<linearGradient id="paint19_linear_18_6421" x1="95.676" y1="71.0519" x2="95.8549" y2="61.6494" gradientUnits="userSpaceOnUse">
<stop stop-color="#F7A190"/>
<stop offset="0.43" stop-color="#F3A592"/>
<stop offset="0.51" stop-color="#F39F8D"/>
<stop offset="0.76" stop-color="#F49383"/>
<stop offset="1" stop-color="#F58F80"/>
</linearGradient>
<linearGradient id="paint20_linear_18_6421" x1="86.1475" y1="71.4812" x2="99.4603" y2="71.7344" gradientUnits="userSpaceOnUse">
<stop stop-color="#F7A190"/>
<stop offset="0.43" stop-color="#F3A592"/>
<stop offset="0.51" stop-color="#F39F8D"/>
<stop offset="0.76" stop-color="#F49383"/>
<stop offset="1" stop-color="#F58F80"/>
</linearGradient>
<linearGradient id="paint21_linear_18_6421" x1="177.294" y1="227.825" x2="214.264" y2="227.825" gradientUnits="userSpaceOnUse">
<stop stop-color="#F8A795"/>
<stop offset="0.43" stop-color="#F8A997"/>
<stop offset="0.52" stop-color="#F7A290"/>
<stop offset="0.76" stop-color="#F69684"/>
<stop offset="1" stop-color="#F69280"/>
</linearGradient>
<linearGradient id="paint22_linear_18_6421" x1="73.3618" y1="215.418" x2="210.525" y2="215.418" gradientUnits="userSpaceOnUse">
<stop stop-color="#F8A795"/>
<stop offset="0.43" stop-color="#F8A997"/>
<stop offset="0.52" stop-color="#F7A290"/>
<stop offset="0.76" stop-color="#F69684"/>
<stop offset="1" stop-color="#F69280"/>
</linearGradient>
<linearGradient id="paint23_linear_18_6421" x1="198.201" y1="198.164" x2="224.551" y2="198.164" gradientUnits="userSpaceOnUse">
<stop stop-color="#F8A795"/>
<stop offset="0.43" stop-color="#F8A997"/>
<stop offset="0.52" stop-color="#F7A290"/>
<stop offset="0.76" stop-color="#F69684"/>
<stop offset="1" stop-color="#F69280"/>
</linearGradient>
<linearGradient id="paint24_linear_18_6421" x1="133.837" y1="88.4758" x2="133.837" y2="0.00153986" gradientUnits="userSpaceOnUse">
<stop stop-color="#31111B"/>
<stop offset="1" stop-color="#1A0F21"/>
</linearGradient>
</defs>
</svg>
