<svg width="384" height="743" viewBox="0 0 384 743" fill="none" xmlns="http://www.w3.org/2000/svg">
<path d="M278.719 77.3999C278.719 77.3999 276.638 54.3191 275.906 54.1592C275.813 42.3831 253.74 26.8108 248.838 23.4185C222.267 5.0516 205.533 6.17954 178.205 33.1912C156.637 54.5043 163.913 92.1978 164.679 94.7988C159.011 97.8375 164.3 105.792 170.364 104.597C170.364 104.597 168.595 109.664 174.137 111.777C179.679 113.89 181.456 112.038 181.456 112.038C181.456 112.038 177.666 117.593 185.599 119.327C185.599 119.327 182.096 121.364 187.511 123.241C192.926 125.119 197.482 117.105 197.482 117.105C197.482 117.105 196.825 123.275 202.021 124.689C207.218 126.103 213.222 119.959 213.222 119.959C213.222 119.959 218.638 126.794 223.531 126.036C228.424 125.27 231.489 119.832 231.489 119.832C231.489 119.832 230.908 123.73 235.759 123.048C240.155 122.433 239.743 115.792 239.625 114.546C239.768 115.809 240.661 122.576 243.457 121.844C248.931 120.413 247.634 115.969 248.619 117.316C249.604 118.654 254.489 117.417 258.582 114.597C262.313 112.029 260.46 107.61 260.46 107.61C260.46 107.61 264.14 108.772 266.608 104.58C266.608 104.58 266.861 110.75 271.56 107.938C275.678 105.472 271.004 98.3257 271.004 98.3257C271.004 98.3257 274.432 100.683 278.525 98.1069C281.809 96.0446 276.958 92.5429 276.958 92.5429C276.958 92.5429 283.039 93.9065 284.841 91.1456C286.643 88.3847 278.719 77.3914 278.719 77.3914V77.3999Z" fill="url(#paint0_linear_6_1809)"/>
<path d="M272.192 72.8123C272.192 73.6961 272.158 74.4958 272.099 75.2113V75.245C271.686 80.3796 270.069 81.8274 269.699 84.1675C269.379 86.1961 267.526 90.4554 264.46 86.8022L264.452 86.7937C264.452 86.7937 263.046 70.2281 263.509 67.1053C263.509 67.1053 264.149 62.4251 266.465 61.3729C269.438 60.0177 272.217 65.0009 272.2 72.8039L272.192 72.8123Z" fill="url(#paint1_linear_6_1809)"/>
<path style="mix-blend-mode:multiply" opacity="0.6" d="M263.694 76.5076C263.694 76.5076 267.122 66.6087 269.354 65.6407C271.585 64.6811 271.636 72.6188 271.568 75.2703C271.51 77.9302 271.046 79.5632 271.046 79.5632C271.046 79.5632 271.156 76.4235 270.886 73.9319C270.499 70.3629 269.151 67.4504 268.217 67.8966C267.282 68.3427 266.675 73.006 266.667 73.5194C266.667 74.0413 267.534 74.8326 267.922 77.5935C268.309 80.3544 267.762 83.5026 267.206 83.5531C266.65 83.6036 266.541 81.3393 266.136 78.7635C265.732 76.1878 264.258 76.9369 263.837 78.713L263.694 76.4992V76.5076Z" fill="url(#paint2_linear_6_1809)"/>
<path style="mix-blend-mode:multiply" opacity="0.6" d="M263.837 78.713C263.837 78.713 264.705 76.0699 265.623 77.0631C266.549 78.0564 266.49 81.2298 267.122 81.5076C267.753 81.7853 268.132 79.1759 267.627 76.92C267.122 74.6642 266.103 72.7281 265.168 73.2669L263.694 76.5076L263.837 78.7214V78.713Z" fill="url(#paint3_linear_6_1809)"/>
<path style="mix-blend-mode:multiply" d="M272.091 75.245C271.678 80.3797 270.069 81.8275 269.69 84.1675C269.37 86.1961 267.518 90.4554 264.452 86.8022C264.62 86.9369 266.263 88.1911 267.585 87.2988C268.983 86.3476 269.177 84.4537 269.589 82.9386C270.002 81.4318 271.484 80.2029 272.091 75.2366V75.245Z" fill="url(#paint4_linear_6_1809)"/>
<path d="M187.595 121.373C182.736 122.442 176.874 121.844 174.482 117.778C174.44 117.787 168.065 119.277 163.753 108.949C160.014 99.9839 162.313 95.4637 162.313 95.4637C162.313 95.4637 158.683 92.4503 158.127 90.1018C156.872 84.8072 158.464 75.851 162.237 75.6995C166.018 75.548 168.755 78.3678 168.755 78.3678C168.755 78.3678 171.257 72.2652 174.289 72.8123C177.32 73.3594 184.967 83.7466 184.967 83.7466C184.967 83.7466 189.279 80.0766 191.056 82.3072C192.833 84.5378 195.082 90.186 195.082 90.186C195.082 90.186 200.084 92.8038 199.301 98.8139C199.301 98.8139 201.322 102.905 197.381 106.289C196.53 107.021 195.394 107.72 193.911 108.334C193.911 108.334 196.244 112.332 194.956 116.836C194.4 118.78 191.292 120.556 187.603 121.373H187.595Z" fill="#010101"/>
<path d="M194.998 444.907L55.1205 370.825L56.7459 398.855L175.88 482.297C182.298 469.848 188.69 457.399 194.998 444.907Z" fill="url(#paint5_linear_6_1809)"/>
<path opacity="0.2" d="M194.998 444.907L97.3641 393.198C92.9342 401.305 88.6644 409.798 83.7798 417.794L175.88 482.306C182.298 469.856 188.69 457.407 194.998 444.915V444.907Z" fill="#201829"/>
<path d="M58.3965 400.698L65.6393 374.697L49.9327 362.559L3.20026 438.198C3.20026 438.198 13.9549 438.215 58.3965 400.69V400.698Z" fill="#4296D2"/>
<path d="M3.20027 438.198L49.9327 362.559L44.7028 358.51L0 435.311L3.20027 438.198Z" fill="#2B2238"/>
<path d="M52.8719 405.917C51.8613 402.07 49.7305 398.678 48.0293 395.118C47.8778 394.798 47.3977 395.075 47.5493 395.395C49.2337 398.914 51.3391 402.264 52.3413 406.06C52.4339 406.405 52.9729 406.262 52.8803 405.909L52.8719 405.917Z" fill="#2B2238"/>
<path d="M48.6863 409.949C47.6756 406.102 45.5449 402.71 43.8437 399.15C43.6921 398.83 43.2121 399.107 43.3637 399.427C45.0481 402.946 47.1535 406.296 48.1557 410.092C48.2483 410.437 48.7873 410.294 48.6947 409.941L48.6863 409.949Z" fill="#2B2238"/>
<path d="M43.8437 414.234C42.8331 410.387 40.7024 406.995 39.0012 403.434C38.8496 403.114 38.3696 403.392 38.5212 403.712C40.2055 407.23 42.311 410.581 43.3132 414.377C43.4058 414.722 43.9448 414.579 43.8521 414.225L43.8437 414.234Z" fill="#2B2238"/>
<path d="M275.67 130.691L340.551 141.28L338.673 70.7499C345.983 68.4014 352.443 71.8863 359.534 68.8981C363.282 84.5967 376.807 154.344 371.99 169.47C364.427 193.207 279.906 167.425 279.906 167.425L275.661 130.699L275.67 130.691Z" fill="url(#paint6_linear_6_1809)"/>
<path d="M359.778 68.149C359.778 68.149 362.869 45.1103 360.115 45.548C357.361 45.9773 355.879 56.7854 355.879 56.7854C355.879 56.7854 356.974 38.9992 354.851 38.974C352.729 38.9571 348.383 56.1961 348.383 56.1961C348.383 56.1961 348.645 35.3629 346.926 35.6322C345.208 35.9016 341.68 56.1877 341.68 56.1877C341.68 56.1877 339.313 41.0531 336.559 41.4824C333.805 41.9117 337.014 64.6641 337.014 64.6641C337.014 64.6641 329.611 60.186 327.876 62.5682C326.133 64.9587 338.471 73.9486 338.471 73.9486L340.543 147.972L358.447 86.6758L359.778 68.1405V68.149Z" fill="url(#paint7_linear_6_1809)"/>
<path d="M328.66 369.63L279.266 692.095L309.138 692.507L368.419 458.198L328.66 369.63Z" fill="url(#paint8_linear_6_1809)"/>
<path opacity="0.2" d="M327.489 654.225L276.436 380.488L337.444 355.682L355.197 649.544C345.899 650.689 336.585 652.642 327.481 654.216L327.489 654.225Z" fill="#201829"/>
<path d="M302.198 202.24L308.692 284.958L205.255 287.391L226.723 231.339L302.198 202.24Z" fill="#F78E1E"/>
<path d="M235.742 102.391L245.916 134.571L271.585 131.272L247.07 173.258L195.621 151.516L215.555 142.374L205.82 98.0647L235.742 102.391Z" fill="url(#paint9_linear_6_1809)"/>
<path d="M211.883 24.5969C211.883 24.5969 249.402 20.102 262.49 62.7029C275.586 105.295 245.402 121.061 224.196 120.75C202.99 120.438 185.818 100.228 181.018 87.686C176.209 75.1439 178.112 30.3377 211.883 24.6054V24.5969Z" fill="url(#paint10_linear_6_1809)"/>
<path d="M304.304 235.244C304.304 235.244 275.451 252.719 219.842 251.877C219.842 251.877 177.994 304.099 179.476 361.927C180.512 402.517 198.459 499.536 198.459 499.536C198.459 499.536 249.908 541.481 262.776 504.503C275.645 467.525 287.974 320.976 287.974 320.976L259.323 355.749L293.448 533.408L267.417 638.45L350.236 635.496C350.236 635.496 377.034 579.267 380.883 522.659C386.854 434.806 346.969 315.572 304.304 235.244Z" fill="#F78E1E"/>
<path d="M228.794 500.824C236.458 480.934 245.082 459.015 249.386 436.936C180.512 410.917 112.734 385.555 112.734 385.555L87.7717 455.724L229.864 517.802C233.241 510.479 225.889 508.358 228.794 500.824Z" fill="#F78E1E"/>
<path d="M95.7724 468.173L137.763 392.104L107.807 380.177L75.8886 459.368L95.7724 468.173Z" fill="#F78E1E"/>
<path d="M162.86 172.98L61.8495 304.419C61.8495 304.419 47.5746 295.463 44.2985 298.678C35.8009 307.003 29.0635 335.387 44.2059 307.205C44.2059 307.205 29.7794 351.978 50.6232 308.83C50.6232 308.83 41.932 349.924 57.1922 314.2C57.1922 314.2 52.7287 348.897 61.7231 317.811C61.7231 317.811 66.852 324.865 73.4041 318.973C79.9647 313.081 189.759 207.702 193.785 194.377C197.811 181.053 162.852 172.98 162.852 172.98H162.86Z" fill="url(#paint11_linear_6_1809)"/>
<path opacity="0.2" d="M279.249 334.823C301.045 318.291 316.962 299.899 328.373 283.308C355.668 349.688 374.617 424.175 383.191 492.23C385.018 564.755 350.236 635.496 350.236 635.496L267.417 638.45L294.147 533.274L274.364 432.054L273.834 428.644C274.836 356.397 279.249 334.84 279.249 334.84V334.823Z" fill="#201829"/>
<path d="M355.668 630.757L264.351 634.41L262.599 653.021L346.708 666.396L355.668 630.757Z" fill="#CC7620"/>
<path opacity="0.2" d="M222.47 242.441L226.723 231.33L302.198 202.24L304.826 235.674C282.475 241.061 250.354 246.507 222.47 242.441Z" fill="#201829"/>
<path d="M306.687 689.831L279.856 686.767L270.322 704.174L352.401 738.442C352.401 738.442 350.733 727.827 306.679 689.839L306.687 689.831Z" fill="#4296D2"/>
<path d="M352.409 738.433L270.33 704.166L267.155 709.965L350.051 742.044L352.409 738.433Z" fill="#2B2238"/>
<path d="M312.684 694.477C309.062 696.068 306.064 698.694 302.83 700.916C302.535 701.118 302.813 701.598 303.108 701.396C306.342 699.174 309.34 696.548 312.961 694.957C313.29 694.814 313.004 694.334 312.684 694.477Z" fill="#2B2238"/>
<path d="M317.332 697.979C313.711 699.57 310.713 702.196 307.479 704.418C307.184 704.62 307.462 705.1 307.757 704.898C310.991 702.676 313.989 700.049 317.61 698.458C317.939 698.315 317.652 697.836 317.332 697.979Z" fill="#2B2238"/>
<path d="M322.326 702.078C318.705 703.669 315.707 706.295 312.473 708.517C312.178 708.719 312.456 709.199 312.751 708.997C315.985 706.775 318.983 704.149 322.604 702.558C322.933 702.415 322.647 701.935 322.326 702.078Z" fill="#2B2238"/>
<path d="M280.007 131.204L313.922 134.95L311.083 183.721L280.007 131.204Z" fill="#161C40"/>
<path d="M255.416 133.275C255.416 133.275 267.922 128.477 278.668 130.581C289.414 132.686 310.191 162.568 316.061 175.851C321.931 189.133 326.184 210.236 326.184 210.236C326.184 210.236 248.105 249.899 214.208 239.108L191.983 199.984L175.805 217.66L140.231 190.093C140.231 190.093 159.786 157.686 182.601 152.231L203.428 146.137C203.428 146.137 255.896 160.649 255.399 133.275H255.416Z" fill="#161C40"/>
<path d="M172.773 89.0665C173.177 90.1355 173.59 91.0951 174.002 91.9368L174.027 91.9789C176.992 98.0227 180.217 99.0496 181.868 101.735C183.3 104.05 188.168 108.385 191.41 102.577C191.418 102.568 191.427 102.56 191.427 102.56C191.427 102.56 186.205 81.8106 184.058 78.2332C184.058 78.2332 180.925 72.846 176.765 72.6019C171.417 72.2904 169.227 79.5968 172.773 89.0665Z" fill="url(#paint12_linear_6_1809)"/>
<path style="mix-blend-mode:multiply" opacity="0.6" d="M187.982 89.7231C187.982 89.7231 178.053 79.2433 174.061 79.0834C170.069 78.9235 173.564 88.5783 174.861 91.7769C176.158 94.9756 177.632 96.7517 177.632 96.7517C177.632 96.7517 176.04 92.9891 175.358 89.8493C174.373 85.3376 175.207 81.1962 176.891 81.314C178.575 81.4319 181.658 86.8191 181.893 87.4504C182.138 88.0817 181.102 89.4369 181.725 92.9638C182.348 96.4907 184.639 100.068 185.557 99.8746C186.466 99.681 185.624 96.8864 185.111 93.5783C184.597 90.2702 187.275 90.5143 188.757 92.4756L187.982 89.7231Z" fill="url(#paint13_linear_6_1809)"/>
<path style="mix-blend-mode:multiply" opacity="0.6" d="M188.757 92.4755C188.757 92.4755 186.189 89.6557 185.161 91.2803C184.134 92.9048 185.658 96.7264 184.774 97.3493C183.889 97.9721 182.112 94.9671 181.902 92.0041C181.691 89.0328 182.441 86.2298 184.176 86.457L187.991 89.723L188.766 92.4755H188.757Z" fill="url(#paint14_linear_6_1809)"/>
<path style="mix-blend-mode:multiply" d="M174.027 91.9789C176.992 98.0226 180.217 99.0496 181.868 101.735C183.3 104.05 188.168 108.385 191.41 102.576C191.199 102.812 189.153 105.085 186.643 104.588C183.99 104.066 182.828 101.853 181.481 100.203C180.142 98.5529 177.228 97.7364 174.027 91.9789Z" fill="url(#paint15_linear_6_1809)"/>
<path d="M163.214 69.3191C164.974 73.0649 166.776 67.8798 166.776 67.8798C168.907 73.7131 173.354 73.469 173.354 73.469C173.354 73.469 169.547 76.2046 170.541 80.304C171.526 84.4033 179.038 82.341 179.038 82.341C179.038 82.341 178.777 90.1524 182.584 90.346C186.399 90.5396 185.312 87.3746 185.312 87.3746C190.062 88.1827 187.014 83.8814 187.014 83.8814C188.226 82.0969 183.317 78.2838 183.317 78.2838C185.54 77.4757 184.108 73.0397 184.108 73.0397C185.321 74.9504 188.791 72.804 188.791 72.804C188.791 72.804 190.509 75.4807 193.069 74.5464C195.638 73.6036 192.218 63.873 192.218 63.873C194.534 62.4421 189.658 52.4 189.658 52.4C189.658 52.4 191.806 53.3091 192.757 52.1054C193.692 50.927 191.519 47.2485 191.435 47.1054C191.502 47.1896 192.639 48.4775 196.497 47.4C200.404 46.3058 199.259 39.9674 199.2 39.9001C202.998 40.6745 206.207 37.3243 206.207 37.3243C206.207 37.3243 208.11 40.5061 209.66 40.0347C211.209 39.5634 215.176 33.1492 215.176 33.1492C218.553 33.7805 221.593 32.0297 221.593 32.0297C221.273 32.3075 225.392 38.2755 227.952 37.0129C230.411 35.8007 230.74 34.6055 230.765 34.5213C230.782 34.6391 231.118 37.2233 233.973 41.6088C236.896 46.1037 240.206 43.3933 240.206 43.3933C240.206 43.3933 240.222 48.8226 241.267 50.8259C242.311 52.8293 243.962 54.3529 243.962 54.3529C243.962 54.3529 245.267 59.0919 247.069 58.065C248.872 57.0465 248.501 55.304 248.526 54.7653C248.552 54.2266 249.714 56.2131 252.645 56.7939C255.575 57.3747 254.396 53.8815 254.396 53.8815C255.862 55.6323 258.186 54.6306 258.186 54.6306C258.186 54.6306 258.59 60.405 260.317 62.1054C264.25 65.9858 265.589 57.9808 265.589 57.9808C268.334 56.7266 266.448 53.1744 266.448 53.1744C266.448 53.1744 267.307 53.9488 268.848 52.2064C270.381 50.4556 269.547 44.1761 267.416 41.8866C265.437 39.7654 265.243 41.9371 265.227 42.2654C265.227 42.2906 265.227 42.3074 265.227 42.3074C265.227 42.3074 269.673 38.7805 269.244 36.5246C268.814 34.2772 266.052 30.523 266.052 30.523C266.052 30.523 268.317 27.8883 268.225 25.2873C268.132 22.6947 266.549 16.7604 264.132 17.055C261.791 17.3496 261.631 19.252 261.639 19.4456C261.639 19.4456 260.317 15.4304 259.112 14.2604C258.329 13.5028 255.643 12.4506 254.657 12.4927C252.274 12.6022 250.809 14.0836 250.809 14.0836C248.375 12.8631 245.857 10.119 245.857 10.119C245.857 10.119 247.524 8.68803 246.042 6.77726C242.816 2.60219 233.401 0.842938 228.71 0.152705C222.335 -0.790053 219.294 2.93889 219.353 2.98098C213.045 2.60219 208.464 4.25202 208.464 4.25202C208.464 4.25202 208.447 3.41869 205.895 3.11566C203.453 2.82946 201.945 3.99949 200.438 6.28063L200.413 6.32272C200.413 6.32272 198.484 4.95067 195.873 6.8446C192.766 9.09207 190.82 15.4894 192.387 23.6964C191.376 23.9994 190.829 24.2267 189.616 24.8917C176.655 20.1274 177.127 29.9253 177.127 29.9253C177.127 29.9253 175.055 29.6055 171.526 30.8849C168.098 32.1223 168.199 32.7873 168.494 34.0162C168.797 35.2789 171.383 35.2536 171.383 35.2536C164.064 39.294 165.235 38.9825 165.235 38.9825C162.616 41.2132 162.725 43.2334 162.944 44.1088C163.02 44.4034 163.104 44.5718 163.104 44.5718C163.104 44.5718 158.717 47.8546 159.197 50.2704C159.677 52.6862 162.675 51.4152 162.675 51.4152C162.338 53.4606 163.02 55.7417 163.643 57.2737C164.081 58.3428 164.485 59.0498 164.485 59.0498C164.485 59.0498 161.454 65.5818 163.214 69.3276V69.3191Z" fill="#010101"/>
<g style="mix-blend-mode:multiply">
<path d="M163.214 69.3192C164.974 73.0649 166.776 67.8798 166.776 67.8798C168.907 73.7131 173.354 73.469 173.354 73.469C173.354 73.469 169.547 76.2047 170.541 80.304C171.526 84.4033 179.038 82.341 179.038 82.341C179.038 82.341 178.777 90.1524 182.584 90.346C186.399 90.5396 185.313 87.3747 185.313 87.3747C190.063 88.1827 187.014 83.8814 187.014 83.8814C188.227 82.0969 183.317 78.2838 183.317 78.2838C185.54 77.4757 184.108 73.0397 184.108 73.0397C185.321 74.9505 188.791 72.804 188.791 72.804C188.791 72.804 190.509 75.4808 193.069 74.5464C195.638 73.6037 192.219 63.8731 192.219 63.8731C194.534 62.4421 189.658 52.4 189.658 52.4C189.658 52.4 191.806 53.3091 192.757 52.1054C193.709 50.9017 191.435 47.097 191.435 47.097C191.435 47.097 192.522 48.5111 196.497 47.4C200.404 46.3058 199.259 39.9674 199.2 39.9001C202.998 40.6745 206.207 37.3243 206.207 37.3243C206.207 37.3243 208.11 40.5061 209.66 40.0347C211.21 39.5634 215.176 33.1492 215.176 33.1492C218.553 33.7806 221.594 32.0297 221.594 32.0297C221.274 32.3075 225.392 38.2755 227.952 37.0129C230.411 35.8007 230.74 34.6055 230.765 34.5213C230.782 34.6391 231.119 37.2233 233.974 41.6088C236.896 46.1037 240.206 43.3933 240.206 43.3933C240.206 43.3933 240.223 48.8226 241.267 50.826C242.311 52.8293 243.962 54.3529 243.962 54.3529C243.962 54.3529 245.267 59.0919 247.069 58.065C248.872 57.0465 248.501 55.3041 248.526 54.7653C248.552 54.2266 249.714 56.2131 252.645 56.7939C255.575 57.3748 254.396 53.8815 254.396 53.8815C255.862 55.6323 258.186 54.6307 258.186 54.6307C258.186 54.6307 258.59 60.405 260.317 62.1054C264.25 65.9858 265.589 57.9808 265.589 57.9808C268.334 56.7266 266.448 53.1744 266.448 53.1744C266.448 53.1744 267.307 53.9488 268.848 52.2064C270.381 50.4556 269.547 44.1761 267.416 41.8866C265.286 39.597 265.227 42.3075 265.227 42.3075C265.227 42.3075 269.674 38.7805 269.244 36.5247C268.815 34.2772 266.052 30.523 266.052 30.523C266.052 30.523 268.318 27.8883 268.225 25.2873C268.132 22.6947 266.549 16.7604 264.132 17.055C261.791 17.3496 261.631 19.252 261.639 19.4456C261.151 22.5937 244.678 23.0062 244.678 23.0062C244.678 23.0062 247.886 25.9186 242.353 26.6173C235.414 27.4927 229.3 21.7941 229.3 21.7941C229.3 21.7941 222.773 25.4641 217.694 25.3041C202.796 24.8244 193.751 21.9203 191.848 18.789L192.387 23.6964L189.616 24.8917C189.616 24.8917 193.6 26.1038 194.172 31.0365C194.425 33.1913 186.635 35.8849 185.49 33.7806C185.49 33.7806 186.273 38.4775 181.178 38.6627C181.178 38.6627 185.22 39.7317 184.15 44.3277C183.089 48.9236 164.747 50.4388 163.096 44.5802C163.096 44.5802 158.708 47.863 159.188 50.2788C159.668 52.6946 162.666 51.4236 162.666 51.4236C162.094 54.8916 164.477 59.0583 164.477 59.0583C164.477 59.0583 161.445 65.5902 163.205 69.336L163.214 69.3192Z" fill="#010101"/>
</g>
<g style="mix-blend-mode:multiply">
<path d="M163.214 69.3191C164.974 73.0649 166.776 67.8797 166.776 67.8797C168.907 73.713 173.354 73.4689 173.354 73.4689C173.354 73.4689 169.547 76.2046 170.541 80.3039C171.526 84.4032 179.038 82.3409 179.038 82.3409C179.038 82.3409 178.777 90.1524 182.584 90.346C186.399 90.5396 185.313 87.3746 185.313 87.3746C190.063 88.1827 187.014 83.8813 187.014 83.8813C188.227 82.0968 183.317 78.2837 183.317 78.2837C185.54 77.4756 184.108 73.0396 184.108 73.0396C185.321 74.9504 188.791 72.8039 188.791 72.8039C188.791 72.8039 190.509 75.4807 193.069 74.5464C195.638 73.6036 192.219 63.873 192.219 63.873C194.535 62.442 189.658 52.4 189.658 52.4C189.658 52.4 191.806 53.3091 192.758 52.1054C193.692 50.9269 191.52 47.2485 191.435 47.1054C191.503 47.1895 192.64 48.4774 196.497 47.4C200.404 46.3057 199.259 39.9674 199.2 39.9C202.998 40.6744 206.207 37.3243 206.207 37.3243C206.207 37.3243 208.11 40.5061 209.66 40.0347C211.21 39.5633 215.176 33.1492 215.176 33.1492C218.553 33.7805 221.594 32.0297 221.594 32.0297C221.274 32.3074 225.392 38.2754 227.952 37.0128C230.411 35.8007 230.74 34.6054 230.765 34.5212C230.782 34.6391 231.119 37.2233 233.974 41.6088C236.896 46.1037 240.206 43.3933 240.206 43.3933C240.206 43.3933 240.223 48.8225 241.267 50.8259C242.311 52.8293 243.962 54.3528 243.962 54.3528C243.962 54.3528 245.267 59.0919 247.07 58.0649C248.872 57.0464 248.501 55.304 248.526 54.7653C248.552 54.2266 249.714 56.2131 252.645 56.7939C255.576 57.3747 254.396 53.8814 254.396 53.8814C255.862 55.6323 258.186 54.6306 258.186 54.6306C258.186 54.6306 258.591 60.405 260.317 62.1053C264.25 65.9858 265.589 57.9808 265.589 57.9808C268.334 56.7266 266.448 53.1744 266.448 53.1744C266.448 53.1744 267.307 53.9488 268.848 52.2064C270.381 50.4555 269.547 44.1761 267.417 41.8865C265.437 39.7653 265.244 41.937 265.227 42.2653C265.227 42.2906 265.227 42.3074 265.227 42.3074C265.96 46.4825 261.984 43.2838 261.984 43.2838C261.984 43.2838 262.018 45.8596 259.256 45.0936C259.416 45.1441 261.445 45.8512 259.306 46.8444C257.083 47.8798 254.641 44.134 254.641 44.134C254.641 44.134 253.824 46.3983 251.07 46.5919C251.07 46.5919 254.017 47.8124 250.767 48.7889C247.516 49.7653 248.35 43.1997 248.35 43.1997C248.35 43.1997 246.539 45.1188 244.366 43.1239C242.185 41.129 242.387 36.5751 242.387 36.5751C242.387 36.5751 241.587 39.7485 237.974 39.2855C234.361 38.8226 231.658 32.4926 231.658 32.4926C231.658 32.4926 230.378 34.0162 228.744 34.5381C227.118 35.0515 225.543 29.8495 225.543 29.8495C225.543 29.8495 225.476 31.794 221.585 30.4051C221.585 30.4051 222.074 31.7182 219.404 31.8866C216.734 32.0549 213.256 28.9236 213.256 28.9236C213.256 28.9236 213.686 34.0667 211.639 35.0515C209.593 36.0364 208.868 28.7805 208.868 28.7805C208.868 28.7805 206.628 32.4505 204.169 31.4489C201.71 30.4472 200.935 28.2081 200.935 28.2081C200.935 28.2081 202.207 31.8024 199.352 32.2822C196.615 32.7367 195.242 30.8681 195.124 30.7081C195.292 30.9943 198.434 36.5246 194.391 38.3344C194.88 38.1239 198.67 36.5667 197.945 39.1004C197.171 41.8108 192.758 39.9337 192.758 39.9337C192.758 39.9337 194.476 41.8865 192.606 43.4606C190.888 44.9084 189.835 43.7721 189.667 43.57C189.911 43.9151 192.202 47.299 188.378 49.3192C188.572 49.235 191.09 48.2165 190.509 49.8747C189.903 51.6003 186.685 52.1138 186.685 52.1138C186.685 52.1138 189.422 54.033 188.21 55.5902C187.73 56.2047 186.938 56.3057 186.146 56.1963C188.505 57.1811 191.545 59.075 190.105 61.9875C188.446 65.3292 185.279 63.4858 183.729 62.2905C184.748 63.2922 186.096 65.102 184.639 66.6592C182.491 68.9572 178.786 63.8477 178.786 63.8477C178.786 63.8477 179.081 66.6928 175.72 66.4235C175.72 66.4235 179.485 68.9487 177.287 70.346C175.08 71.7433 168.545 70.8848 170.069 67.5767C170.069 67.5767 167.383 65.8258 168.873 63.6289C168.873 63.6289 164.646 63.7467 164.511 59.0498C164.511 59.0498 161.479 65.5817 163.239 69.3275L163.214 69.3191Z" fill="#010101"/>
</g>
<g style="mix-blend-mode:soft-light" opacity="0.5">
<path d="M218.082 17.8209C218.082 17.8209 215.749 19.3024 218.25 19.7653C220.751 20.2283 224.659 18.1071 224.659 18.1071C232.163 18.4606 234.319 16.7014 232.904 13.8478C232.904 13.8478 237.25 7.57683 229.999 7.92194C228.163 8.00612 229.19 9.51285 229.224 9.5381C225.417 9.31083 226.116 11.0953 226.116 11.0953C226.116 11.0953 221.046 8.70477 219.497 8.6711C203.689 8.30073 209.828 12.7872 209.828 12.7872C194.838 19.7064 218.099 17.8293 218.099 17.8293L218.082 17.8209Z" fill="#010101"/>
</g>
<path d="M242.109 78.6541C241.014 78.5867 243.49 69.4369 249.579 66.6171C256.94 63.2164 260.233 69.8073 260.511 71.2382C260.797 72.6692 247.364 78.9487 242.101 78.6456L242.109 78.6541Z" fill="url(#paint16_linear_6_1809)"/>
<path d="M250.856 77.0675C253.664 76.6285 255.578 73.9567 255.131 71.0999C254.684 68.2431 252.045 66.283 249.237 66.7219C246.43 67.1609 244.516 69.8327 244.963 72.6895C245.41 75.5463 248.049 77.5064 250.856 77.0675Z" fill="url(#paint17_linear_6_1809)"/>
<path d="M250.81 76.7681C253.452 76.355 255.253 73.8382 254.831 71.1467C254.41 68.4552 251.927 66.6082 249.284 67.0213C246.642 67.4344 244.841 69.9512 245.263 72.6427C245.684 75.3342 248.167 77.1812 250.81 76.7681Z" fill="url(#paint18_linear_6_1809)"/>
<path style="mix-blend-mode:multiply" d="M253.116 71.1794C253.504 72.9049 252.451 74.6137 250.758 75.0009C249.066 75.3881 247.381 74.3022 246.985 72.5851C246.589 70.8679 247.651 69.1507 249.343 68.7635C251.036 68.3763 252.721 69.4622 253.116 71.1794Z" fill="url(#paint19_linear_6_1809)"/>
<path d="M242 76.9369C242 76.9369 242.581 64.7652 249.386 62.1389C256.199 59.5127 259.887 69.7315 259.887 69.7315C259.887 69.7315 256.974 64.58 250.388 66.4571C243.793 68.3342 242 76.9369 242 76.9369Z" fill="url(#paint20_linear_6_1809)"/>
<path d="M241.907 77.4419L243.364 78.6203C243.364 78.6203 241.966 79.0833 241.73 78.7129C241.494 78.3426 241.907 77.4419 241.907 77.4419Z" fill="#D86B7C"/>
<path d="M244.341 78.5361C244.341 78.5361 250.059 78.1237 254.615 76.0782C259.172 74.0244 260.325 71.6759 260.325 71.6759C260.325 71.6759 253.47 76.2971 244.341 78.5361Z" fill="#D86B7C"/>
<path d="M253.361 70.0934C253.116 70.4386 254.54 70.1776 255.5 69.5211C256.35 68.9318 256.67 68.2163 256.552 68.1238C256.435 68.0396 254.312 68.7382 253.361 70.0934Z" fill="white"/>
<path d="M252.619 70.548C252.19 70.4975 251.769 70.8174 251.803 71.0363C251.836 71.2551 252.392 71.4151 252.594 71.272C252.805 71.1289 252.855 70.5733 252.619 70.548Z" fill="white"/>
<g style="mix-blend-mode:multiply" opacity="0.6">
<path d="M241.907 77.4419C241.907 77.4419 244.88 70.6658 250.177 68.3258C255.474 65.9857 258.868 68.5615 258.868 68.5615C258.868 68.5615 257.167 64.6221 250.034 66.819C242.901 69.0076 241.907 77.4419 241.907 77.4419Z" fill="#CC78B1"/>
</g>
<path d="M241.907 77.4419C241.907 77.4419 243.524 69.0328 250.901 66.7601C257.487 64.7399 260.224 70.3965 260.224 70.3965C260.224 70.3965 259.744 65.0093 254.86 64.8325C250.219 64.6642 243.221 68.7466 241.907 77.4419Z" fill="#401432"/>
<path d="M219.707 82.1556C220.726 81.76 215.572 73.8055 208.919 72.9806C200.876 71.9873 199.756 79.2769 199.916 80.7247C200.084 82.1725 214.789 84.058 219.707 82.1556Z" fill="url(#paint21_linear_6_1809)"/>
<path d="M210.886 83.3141C213.693 82.8747 215.607 80.2026 215.159 77.3458C214.711 74.489 212.073 72.5294 209.265 72.9688C206.457 73.4083 204.544 76.0804 204.992 78.9372C205.439 81.7939 208.078 83.7536 210.886 83.3141Z" fill="url(#paint22_linear_6_1809)"/>
<path d="M210.83 83.0194C213.473 82.6063 215.273 80.0896 214.852 77.3981C214.431 74.7066 211.947 72.8596 209.305 73.2727C206.663 73.6858 204.862 76.2025 205.283 78.894C205.704 81.5855 208.188 83.4325 210.83 83.0194Z" fill="url(#paint23_linear_6_1809)"/>
<path style="mix-blend-mode:multiply" d="M206.94 78.4015C207.091 80.1607 208.624 81.4655 210.351 81.3139C212.077 81.1624 213.357 79.622 213.197 77.8628C213.046 76.1035 211.513 74.7988 209.786 74.9503C208.06 75.1018 206.78 76.6422 206.94 78.4015Z" fill="url(#paint24_linear_6_1809)"/>
<path d="M219.278 80.489C219.278 80.489 215.008 69.0749 207.723 68.654C200.438 68.2332 200.042 79.0833 200.042 79.0833C200.042 79.0833 201.238 73.2921 208.085 73.0648C214.932 72.8459 219.278 80.4806 219.278 80.4806V80.489Z" fill="url(#paint25_linear_6_1809)"/>
<path d="M219.522 80.9436L218.494 82.5093C218.494 82.5093 219.968 82.5261 220.078 82.0968C220.196 81.6759 219.522 80.9436 219.522 80.9436Z" fill="#D86B7C"/>
<path d="M217.543 82.7281C217.543 82.7281 211.968 84.0833 207.007 83.5193C202.047 82.9553 200.219 81.0782 200.219 81.0782C200.219 81.0782 208.161 83.3931 217.534 82.7281H217.543Z" fill="#D86B7C"/>
<path d="M206.376 77.4419C206.712 77.6944 205.281 77.888 204.169 77.5513C203.175 77.2483 202.653 76.659 202.737 76.5412C202.822 76.4234 205.053 76.4402 206.376 77.4419Z" fill="white"/>
<path d="M207.218 77.6523C207.614 77.4755 208.11 77.6523 208.144 77.8711C208.178 78.09 207.698 78.4098 207.462 78.3341C207.218 78.2583 206.999 77.7533 207.218 77.6523Z" fill="white"/>
<g style="mix-blend-mode:multiply" opacity="0.6">
<path d="M219.522 80.9436C219.522 80.9436 214.62 75.4049 208.86 74.7904C203.099 74.1759 200.657 77.6692 200.657 77.6692C200.657 77.6692 201.07 73.4015 208.532 73.3089C215.993 73.2163 219.514 80.9436 219.514 80.9436H219.522Z" fill="#CC78B1"/>
</g>
<path d="M219.522 80.9435C219.522 80.9435 215.412 73.4267 207.698 73.5193C200.809 73.6035 199.933 79.824 199.933 79.824C199.933 79.824 198.745 74.5463 203.335 72.888C207.706 71.3055 215.614 73.0648 219.522 80.9435Z" fill="#401432"/>
<path d="M242.985 88.4436C242.985 88.4436 242.892 89.0076 240.863 89.3948C238.833 89.7904 237.208 91.8696 233.746 92.4167C230.285 92.9554 228.272 91.4487 226.217 91.6844C224.162 91.9285 223.733 91.4487 223.733 91.4487C223.219 90.1608 223.211 88.8393 223.413 87.6692C223.413 87.6692 223.413 87.6356 223.413 87.6271C223.783 85.5733 224.777 84.016 224.777 84.016C229.266 80.91 234.479 80.0935 239.709 81.6844C239.709 81.6844 240.627 82.442 241.486 83.6878V83.7046C242.32 84.9083 243.103 86.5665 242.968 88.4436H242.985Z" fill="url(#paint26_linear_6_1809)"/>
<path d="M238.547 90.4302C238.547 90.4302 239.903 88.8393 241.941 89.117L238.547 90.4302Z" fill="#812852"/>
<path d="M225.156 91.7525C225.156 91.7525 227.043 90.8497 229.274 92.1153L225.156 91.7525Z" fill="#812852"/>
<g style="mix-blend-mode:multiply" opacity="0.6">
<path d="M242.985 88.4436C242.985 88.4436 242.892 89.0076 240.863 89.3948C238.833 89.7904 237.208 91.8695 233.746 92.4167C230.285 92.9554 228.272 91.4487 226.217 91.6844C224.162 91.9285 223.733 91.4487 223.733 91.4487C223.219 90.1608 223.211 88.8393 223.413 87.6692C223.387 88.0059 223.286 90.1776 224.179 90.5648C225.148 90.9773 230.116 89.8746 233.266 89.378C236.416 88.8813 241.772 88.0564 242.244 87.1305C242.699 86.2383 241.595 83.915 241.486 83.7046C242.32 84.9083 243.103 86.5665 242.968 88.4436H242.985Z" fill="#CC78B1"/>
</g>
<path style="mix-blend-mode:multiply" opacity="0.6" d="M239.709 81.676C239.709 81.676 239.128 85.3208 239.641 87.7366C239.641 87.7366 238.437 85.4976 238.942 81.4656L239.709 81.676Z" fill="url(#paint27_linear_6_1809)"/>
<path style="mix-blend-mode:multiply" opacity="0.6" d="M224.954 83.9908C224.954 83.9908 226.621 87.2905 226.866 89.7399C226.866 89.7399 227.329 87.2315 225.619 83.5531L224.954 83.9908Z" fill="url(#paint28_linear_6_1809)"/>
<g style="mix-blend-mode:multiply" opacity="0.6">
<path d="M224.179 90.5649C224.179 90.5649 223.783 91.1709 223.724 91.4571C223.665 91.7433 228.921 95.346 234.066 94.5379C239.212 93.7298 242.96 88.9824 242.977 88.4436C242.985 87.9049 242.042 87.3662 242.042 87.3662C242.042 87.3662 238.117 88.6204 233.266 89.378C228.407 90.1356 224.179 90.5649 224.179 90.5649Z" fill="#CC78B1"/>
</g>
<path d="M237.191 87.5514C236.399 87.2484 237.494 85.8427 237.848 85.8427C238.201 85.8427 238.513 86.5834 238.403 87.1137C238.294 87.644 237.528 87.6777 237.191 87.5514Z" fill="#FBCBBB"/>
<g style="mix-blend-mode:multiply">
<path d="M239.111 66.5498C239.111 66.5498 240.475 61.2383 243.137 57.4925L242.547 59.9084C242.547 59.9084 243.33 58.8393 244.61 57.8545C245.899 56.8697 256.317 54.1087 258.506 54.1592L258.018 53.2754C258.018 53.2754 262.212 55.8427 265.698 61.9622C265.698 61.9622 262.498 59.3276 260.662 59.3107C258.826 59.2939 242.909 64.2855 239.288 67.7198L239.103 66.5582L239.111 66.5498Z" fill="#010101"/>
<path d="M219.421 69.6305C219.421 69.6305 216.498 64.9925 212.818 62.2316L214.115 64.3528C214.115 64.3528 213.046 63.5699 211.521 63.0228C209.997 62.4757 199.225 63.0228 197.162 63.7467L197.356 62.7619C197.356 62.7619 194.147 66.4908 192.699 73.3847C192.699 73.3847 194.939 69.8999 196.682 69.3191C198.425 68.7383 215.1 68.6373 219.606 70.8006L219.421 69.6389V69.6305Z" fill="#010101"/>
</g>
<path style="mix-blend-mode:multiply" opacity="0.6" d="M223.792 75.4554C223.792 75.4554 227.085 91.2886 223.834 96.0866C220.583 100.893 204.759 102.164 196.345 98.3341C187.932 94.5041 191.654 73.3426 191.654 73.3426C191.654 73.3426 195.351 66.7012 207.277 65.9352C219.202 65.1692 223.792 75.4469 223.792 75.4469V75.4554Z" fill="url(#paint29_linear_6_1809)"/>
<path style="mix-blend-mode:multiply" opacity="0.6" d="M236.711 73.5867C236.711 73.5867 238.513 87.7786 242.673 91.053C246.842 94.319 260.949 91.0194 267.198 85.346C273.447 79.6726 264.3 62.3157 264.3 62.3157C264.3 62.3157 259.231 57.5767 248.653 60.2366C238.075 62.8965 236.702 73.5952 236.702 73.5952L236.711 73.5867Z" fill="url(#paint30_linear_6_1809)"/>
<path d="M222.368 78.3763C222.68 78.0059 224.887 75.4975 229.552 74.4706C234.647 73.351 238.345 74.9419 238.749 75.1187" stroke="url(#paint31_linear_6_1809)" stroke-miterlimit="10"/>
<path d="M191.056 82.3072L183.451 77.2988" stroke="url(#paint32_linear_6_1809)" stroke-miterlimit="10"/>
<g style="mix-blend-mode:multiply" opacity="0.4">
<path d="M226.714 107.046C229.266 108.721 232.087 110.699 235.38 110.447C238.673 110.194 241.713 106.592 243.667 104.1C239.279 109.167 232.584 110.178 226.714 107.055V107.046Z" fill="#CC78B1"/>
</g>
<path d="M219.539 99.7903C222.891 105.194 228.879 109.95 235.532 108.89C242.412 107.787 246.547 101.76 247.929 95.3711C243.356 97.3576 239.035 99.8576 234.715 102.332C229.712 101.28 224.617 100.253 219.53 99.7903H219.539Z" fill="#F26665"/>
<path d="M248.762 94.2263C248.257 95.59 247.516 96.8694 246.606 98.0226C243.76 101.634 239.229 104.117 234.959 104.799C231.312 105.379 227.262 104.925 223.825 103.342C221.669 102.349 219.758 100.91 218.326 98.999C222.613 100.018 228.365 99.8829 232.862 99.2515C233.249 99.1926 233.637 99.1337 234.007 99.0748C235.33 98.8812 236.728 98.6118 238.151 98.2667C241.865 97.3745 245.739 95.9856 248.771 94.2347L248.762 94.2263Z" fill="#731C55"/>
<g style="mix-blend-mode:multiply" opacity="0.4">
<path d="M218.326 98.9907C222.613 100.009 228.365 99.8746 232.862 99.2432C227.624 100.396 223.067 101.971 223.825 103.334C221.669 102.341 219.758 100.901 218.326 98.9907Z" fill="#CC78B1"/>
</g>
<g style="mix-blend-mode:multiply" opacity="0.6">
<path d="M248.762 94.2263C248.257 95.59 247.516 96.8694 246.606 98.0226C246.404 97.3576 242.598 97.5765 238.151 98.2583C241.865 97.366 245.739 95.9772 248.771 94.2263H248.762Z" fill="#CC78B1"/>
</g>
<path d="M227.354 104.588C229.173 103.595 232.416 102.753 234.555 102.837C237.064 101.954 241.789 102.307 241.789 102.307C239.524 103.595 237.216 104.58 234.563 104.908C232.298 105.186 229.67 104.942 227.363 104.588H227.354Z" fill="#BE2741"/>
<path d="M219.37 99.1843C224.078 100.034 229.241 99.9503 233.999 99.058C238.766 98.452 243.575 96.9957 247.87 94.7062C242.699 95.1776 232.399 96.2887 219.37 99.1843Z" fill="#D74058"/>
<path d="M222.166 99.5967C225.737 101.533 230.074 102.366 234.108 101.726C238.142 101.087 242.05 99.0243 244.93 96.1371C241.452 97.6691 237.763 98.4687 233.974 99.0664C230.184 99.664 226.04 99.967 222.166 99.5967Z" fill="#FBDBE9"/>
<path d="M247.078 93.5025C248.316 94.1085 249.444 94.8324 250.211 95.9688C249.967 95.0429 249.503 93.6119 248.762 93.09C248.013 92.5681 247.583 93.1069 247.078 93.5025Z" fill="#D86B7C"/>
<path d="M219.943 97.7365C218.949 98.6877 218.099 99.723 217.711 101.036C217.661 100.085 217.661 98.5951 218.208 97.8712C218.756 97.1473 219.337 97.5177 219.943 97.7365Z" fill="#D86B7C"/>
<g style="mix-blend-mode:soft-light">
<path d="M239.616 104.117C240.29 104.454 240.787 104.984 241.216 105.598C241.435 105.438 241.663 105.287 241.882 105.127C241.806 104.47 241.056 103.974 240.593 103.62C240.265 103.789 239.945 103.957 239.616 104.117Z" fill="#FBDBE9"/>
</g>
<g style="mix-blend-mode:soft-light">
<path d="M240.989 103.561C241.604 103.806 241.949 104.285 242.176 104.891C242.235 104.807 242.294 104.715 242.353 104.63C242.101 104.05 241.705 103.679 241.082 103.553C241.048 103.553 241.023 103.561 240.989 103.57V103.561Z" fill="#FBDBE9"/>
</g>
<path d="M227.346 104.58C232.146 105.27 237.342 104.033 241.772 102.299C237.797 105.287 232.003 105.523 227.346 104.58Z" fill="#FBDBE9"/>
<g style="mix-blend-mode:soft-light" opacity="0.5">
<path d="M232.062 103.814C234.033 104.226 238.513 102.139 234.555 102.846C232.887 103.14 229.46 103.275 232.062 103.814Z" fill="#F7A9B0"/>
</g>
<g style="mix-blend-mode:multiply">
<path d="M178.189 29.8433C178.189 29.8433 175.967 7.91203 161.189 9.38759C146.411 10.8631 147.063 38.9216 147.063 38.9216L149.429 36.7847C149.429 36.7847 146.508 21.705 154.479 18.7847C162.451 15.8733 169.81 20.1978 169.81 20.1978C169.81 20.1978 148.036 14.5358 142.028 27.6122C136.011 40.69 145.115 63.3764 159.339 58.8947C173.562 54.4041 178.197 29.8419 178.197 29.8419L178.189 29.8433Z" fill="#010101"/>
</g>
<path style="mix-blend-mode:multiply" d="M140.51 41.5864C140.51 41.5864 155.538 20.4936 174.883 31.5827L176.275 30.8165C176.275 30.8165 157.796 18.0662 140.156 36.2989L140.511 41.5952L140.51 41.5864Z" fill="url(#paint33_linear_6_1809)"/>
<path d="M141.478 28.9168C141.478 28.9168 159.946 14.8235 176.387 25.8539L174.589 22.9859C174.589 22.9859 166.5 14.689 142.019 27.6132L141.478 28.9168Z" fill="#010101"/>
<path style="mix-blend-mode:multiply" d="M149.461 57.5354C149.461 57.5354 145.978 32.8793 172.626 32.9531L171.773 33.5819C171.773 33.5819 146.969 35.0225 151.596 58.6524L149.47 57.534L149.461 57.5354Z" fill="url(#paint34_linear_6_1809)"/>
<path d="M180.163 28.3375C180.163 28.3375 167.612 35.6346 164.5 56.0022C164.5 56.0022 155.139 36.5737 180.163 28.3375Z" fill="#F78E1E"/>
<defs>
<linearGradient id="paint0_linear_6_1809" x1="228.213" y1="123.312" x2="220.185" y2="71.9571" gradientUnits="userSpaceOnUse">
<stop stop-color="#31111B"/>
<stop offset="1" stop-color="#1A0F21"/>
</linearGradient>
<linearGradient id="paint1_linear_6_1809" x1="274.869" y1="95.0215" x2="270.463" y2="66.8367" gradientUnits="userSpaceOnUse">
<stop stop-color="#F7A393"/>
<stop offset="0.43" stop-color="#F5A794"/>
<stop offset="0.51" stop-color="#F5A18E"/>
<stop offset="0.76" stop-color="#F59584"/>
<stop offset="1" stop-color="#F69181"/>
</linearGradient>
<linearGradient id="paint2_linear_6_1809" x1="273.728" y1="87.6855" x2="270.694" y2="68.283" gradientUnits="userSpaceOnUse">
<stop stop-color="#F7A393"/>
<stop offset="0.43" stop-color="#F5A794"/>
<stop offset="0.51" stop-color="#F5A18E"/>
<stop offset="0.76" stop-color="#F59584"/>
<stop offset="1" stop-color="#F69181"/>
</linearGradient>
<linearGradient id="paint3_linear_6_1809" x1="270.222" y1="80.932" x2="268.905" y2="72.5073" gradientUnits="userSpaceOnUse">
<stop stop-color="#F7A393"/>
<stop offset="0.43" stop-color="#F5A794"/>
<stop offset="0.51" stop-color="#F5A18E"/>
<stop offset="0.76" stop-color="#F59584"/>
<stop offset="1" stop-color="#F69181"/>
</linearGradient>
<linearGradient id="paint4_linear_6_1809" x1="263.798" y1="82.6555" x2="273.017" y2="81.2128" gradientUnits="userSpaceOnUse">
<stop stop-color="#F7A393"/>
<stop offset="0.43" stop-color="#F5A794"/>
<stop offset="0.51" stop-color="#F5A18E"/>
<stop offset="0.76" stop-color="#F59584"/>
<stop offset="1" stop-color="#F69181"/>
</linearGradient>
<linearGradient id="paint5_linear_6_1809" x1="62.359" y1="434.877" x2="190.268" y2="414.859" gradientUnits="userSpaceOnUse">
<stop stop-color="#F7A393"/>
<stop offset="0.43" stop-color="#F5A794"/>
<stop offset="0.51" stop-color="#F5A18E"/>
<stop offset="0.76" stop-color="#F59584"/>
<stop offset="1" stop-color="#F69181"/>
</linearGradient>
<linearGradient id="paint6_linear_6_1809" x1="275" y1="136.096" x2="369.278" y2="121.341" gradientUnits="userSpaceOnUse">
<stop stop-color="#F7A393"/>
<stop offset="0.43" stop-color="#F5A794"/>
<stop offset="0.51" stop-color="#F5A18E"/>
<stop offset="0.76" stop-color="#F59584"/>
<stop offset="1" stop-color="#F69181"/>
</linearGradient>
<linearGradient id="paint7_linear_6_1809" x1="332.033" y1="93.6536" x2="367.462" y2="88.1092" gradientUnits="userSpaceOnUse">
<stop stop-color="#F7A393"/>
<stop offset="0.43" stop-color="#F5A794"/>
<stop offset="0.51" stop-color="#F5A18E"/>
<stop offset="0.76" stop-color="#F59584"/>
<stop offset="1" stop-color="#F69181"/>
</linearGradient>
<linearGradient id="paint8_linear_6_1809" x1="299.296" y1="530.006" x2="353.456" y2="539.922" gradientUnits="userSpaceOnUse">
<stop stop-color="#F7A393"/>
<stop offset="0.43" stop-color="#F5A794"/>
<stop offset="0.51" stop-color="#F5A18E"/>
<stop offset="0.76" stop-color="#F59584"/>
<stop offset="1" stop-color="#F69181"/>
</linearGradient>
<linearGradient id="paint9_linear_6_1809" x1="193.924" y1="140.762" x2="271.17" y2="128.673" gradientUnits="userSpaceOnUse">
<stop stop-color="#F9AD99"/>
<stop offset="0.18" stop-color="#F79B8D"/>
<stop offset="0.46" stop-color="#F48781"/>
<stop offset="0.73" stop-color="#F37B79"/>
<stop offset="1" stop-color="#F37777"/>
</linearGradient>
<linearGradient id="paint10_linear_6_1809" x1="179.165" y1="79.0856" x2="263.792" y2="65.8417" gradientUnits="userSpaceOnUse">
<stop stop-color="#F7A393"/>
<stop offset="0.43" stop-color="#F5A794"/>
<stop offset="0.51" stop-color="#F5A18E"/>
<stop offset="0.76" stop-color="#F59584"/>
<stop offset="1" stop-color="#F69181"/>
</linearGradient>
<linearGradient id="paint11_linear_6_1809" x1="26.7834" y1="264.853" x2="201.27" y2="237.547" gradientUnits="userSpaceOnUse">
<stop stop-color="#F7A393"/>
<stop offset="0.43" stop-color="#F5A794"/>
<stop offset="0.51" stop-color="#F5A18E"/>
<stop offset="0.76" stop-color="#F59584"/>
<stop offset="1" stop-color="#F69181"/>
</linearGradient>
<linearGradient id="paint12_linear_6_1809" x1="185.002" y1="116.409" x2="179.341" y2="80.1991" gradientUnits="userSpaceOnUse">
<stop stop-color="#F7A393"/>
<stop offset="0.43" stop-color="#F5A794"/>
<stop offset="0.51" stop-color="#F5A18E"/>
<stop offset="0.76" stop-color="#F59584"/>
<stop offset="1" stop-color="#F69181"/>
</linearGradient>
<linearGradient id="paint13_linear_6_1809" x1="183.519" y1="106.988" x2="179.623" y2="82.0636" gradientUnits="userSpaceOnUse">
<stop stop-color="#F7A393"/>
<stop offset="0.43" stop-color="#F5A794"/>
<stop offset="0.51" stop-color="#F5A18E"/>
<stop offset="0.76" stop-color="#F59584"/>
<stop offset="1" stop-color="#F69181"/>
</linearGradient>
<linearGradient id="paint14_linear_6_1809" x1="186.08" y1="97.2076" x2="184.387" y2="86.3794" gradientUnits="userSpaceOnUse">
<stop stop-color="#F7A393"/>
<stop offset="0.43" stop-color="#F5A794"/>
<stop offset="0.51" stop-color="#F5A18E"/>
<stop offset="0.76" stop-color="#F59584"/>
<stop offset="1" stop-color="#F69181"/>
</linearGradient>
<linearGradient id="paint15_linear_6_1809" x1="175.219" y1="99.6219" x2="190.57" y2="97.2195" gradientUnits="userSpaceOnUse">
<stop stop-color="#F7A393"/>
<stop offset="0.43" stop-color="#F5A794"/>
<stop offset="0.51" stop-color="#F5A18E"/>
<stop offset="0.76" stop-color="#F59584"/>
<stop offset="1" stop-color="#F69181"/>
</linearGradient>
<linearGradient id="paint16_linear_6_1809" x1="251.555" y1="77.4851" x2="249.968" y2="66.0713" gradientUnits="userSpaceOnUse">
<stop stop-color="#E8DCED"/>
<stop offset="1" stop-color="#BBC3E3"/>
</linearGradient>
<linearGradient id="paint17_linear_6_1809" x1="251.206" y1="76.9631" x2="248.887" y2="66.7515" gradientUnits="userSpaceOnUse">
<stop stop-color="#48204B"/>
<stop offset="1" stop-color="#301138"/>
</linearGradient>
<linearGradient id="paint18_linear_6_1809" x1="251.139" y1="76.6676" x2="248.956" y2="67.0552" gradientUnits="userSpaceOnUse">
<stop stop-color="#57345B"/>
<stop offset="1" stop-color="#301138"/>
</linearGradient>
<linearGradient id="paint19_linear_6_1809" x1="250.755" y1="74.9775" x2="249.338" y2="68.7389" gradientUnits="userSpaceOnUse">
<stop stop-color="#A295B8"/>
<stop offset="0.99" stop-color="#734B61"/>
</linearGradient>
<linearGradient id="paint20_linear_6_1809" x1="240.574" y1="70.6514" x2="259.133" y2="66.4327" gradientUnits="userSpaceOnUse">
<stop stop-color="#F7A393"/>
<stop offset="0.43" stop-color="#F5A794"/>
<stop offset="0.51" stop-color="#F5A18E"/>
<stop offset="0.76" stop-color="#F59584"/>
<stop offset="1" stop-color="#F69181"/>
</linearGradient>
<linearGradient id="paint21_linear_6_1809" x1="210.359" y1="83.948" x2="208.384" y2="72.5947" gradientUnits="userSpaceOnUse">
<stop stop-color="#E8DCED"/>
<stop offset="1" stop-color="#BBC3E3"/>
</linearGradient>
<linearGradient id="paint22_linear_6_1809" x1="210.55" y1="83.3633" x2="209.64" y2="72.9315" gradientUnits="userSpaceOnUse">
<stop stop-color="#48204B"/>
<stop offset="1" stop-color="#301138"/>
</linearGradient>
<linearGradient id="paint23_linear_6_1809" x1="210.484" y1="83.0284" x2="209.628" y2="73.2086" gradientUnits="userSpaceOnUse">
<stop stop-color="#57345B"/>
<stop offset="1" stop-color="#301138"/>
</linearGradient>
<linearGradient id="paint24_linear_6_1809" x1="210.36" y1="81.3162" x2="209.804" y2="74.9431" gradientUnits="userSpaceOnUse">
<stop stop-color="#A295B8"/>
<stop offset="0.99" stop-color="#734B61"/>
</linearGradient>
<linearGradient id="paint25_linear_6_1809" x1="218.732" y1="74.0879" x2="199.762" y2="75.745" gradientUnits="userSpaceOnUse">
<stop stop-color="#F7A393"/>
<stop offset="0.43" stop-color="#F5A794"/>
<stop offset="0.51" stop-color="#F5A18E"/>
<stop offset="0.76" stop-color="#F59584"/>
<stop offset="1" stop-color="#F69181"/>
</linearGradient>
<linearGradient id="paint26_linear_6_1809" x1="233.738" y1="92.4329" x2="231.967" y2="81.1058" gradientUnits="userSpaceOnUse">
<stop stop-color="#F37A7F"/>
<stop offset="0.47" stop-color="#F4837F"/>
<stop offset="1" stop-color="#F58880"/>
</linearGradient>
<linearGradient id="paint27_linear_6_1809" x1="239.988" y1="87.7071" x2="239.013" y2="81.4697" gradientUnits="userSpaceOnUse">
<stop stop-color="#FCE4D6"/>
<stop offset="0.99" stop-color="#AE7DB7"/>
</linearGradient>
<linearGradient id="paint28_linear_6_1809" x1="226.518" y1="89.8199" x2="225.543" y2="83.5825" gradientUnits="userSpaceOnUse">
<stop stop-color="#FCE4D6"/>
<stop offset="0.99" stop-color="#AE7DB7"/>
</linearGradient>
<linearGradient id="paint29_linear_6_1809" x1="210.428" y1="100.828" x2="205.012" y2="66.1893" gradientUnits="userSpaceOnUse">
<stop stop-color="#FCE4D6"/>
<stop offset="0.99" stop-color="#AE7DB7"/>
</linearGradient>
<linearGradient id="paint30_linear_6_1809" x1="255.541" y1="91.7402" x2="250.596" y2="60.1123" gradientUnits="userSpaceOnUse">
<stop stop-color="#FCE4D6"/>
<stop offset="0.99" stop-color="#AE7DB7"/>
</linearGradient>
<linearGradient id="paint31_linear_6_1809" x1="230.631" y1="77.4295" x2="230.086" y2="73.9449" gradientUnits="userSpaceOnUse">
<stop stop-color="#FCE4D6"/>
<stop offset="0.99" stop-color="#AE7DB7"/>
</linearGradient>
<linearGradient id="paint32_linear_6_1809" x1="187.763" y1="83.1515" x2="186.722" y2="76.49" gradientUnits="userSpaceOnUse">
<stop stop-color="#FCE4D6"/>
<stop offset="0.99" stop-color="#AE7DB7"/>
</linearGradient>
<linearGradient id="paint33_linear_6_1809" x1="139.591" y1="35.6267" x2="176.14" y2="29.9948" gradientUnits="userSpaceOnUse">
<stop stop-color="#827FBC"/>
<stop offset="1" stop-color="white"/>
</linearGradient>
<linearGradient id="paint34_linear_6_1809" x1="147.954" y1="47.7521" x2="174.281" y2="43.6953" gradientUnits="userSpaceOnUse">
<stop stop-color="#827FBC"/>
<stop offset="1" stop-color="white"/>
</linearGradient>
</defs>
</svg>
