<svg xmlns="http://www.w3.org/2000/svg" xmlns:osb="http://www.openswatchbook.org/uri/2009/osb" xmlns:xlink="http://www.w3.org/1999/xlink" viewBox="0 0 8.467 8.467" id="Glasses">
  <defs>
    <linearGradient xlink:href="#a" id="e" x1="101.614" x2="109.488" y1="-125.818" y2="-125.818" gradientTransform="translate(-22.108 326.107)scale(.26458)" gradientUnits="userSpaceOnUse"></linearGradient>
    <linearGradient osb:paint="solid" id="a">
      <stop offset="0" stop-color="#f5d593" class="stopColoraa44bb svgShape"></stop>
    </linearGradient>
    <linearGradient xlink:href="#a" id="d" x1="88.116" x2="95.631" y1="-125.648" y2="-125.648" gradientTransform="translate(-22.108 326.107)scale(.26458)" gradientUnits="userSpaceOnUse"></linearGradient>
    <linearGradient xlink:href="#b" id="c" x1="23.314" x2="25.797" y1="255.198" y2="255.198" gradientTransform="translate(-22.108 37.573)" gradientUnits="userSpaceOnUse"></linearGradient>
    <linearGradient osb:paint="solid" id="b">
      <stop offset="0" stop-color="#686dc8" class="stopColorba68c8 svgShape"></stop>
    </linearGradient>
  </defs>
  <g transform="translate(0 -288.533)" fill="#1e1e1e" class="color000000 svgShape">
    <path d="M1.16458 293.44212l-.30875497.19173a.13229188.13229188 0 0 1-.139581-.22477L1.023066 293.21855a1.5504583 1.5504583 0 0 0 .141514.22357zM4.9284891 291.71786a.52916664.52916664 0 0 0-.3997949.38806.9894832.9894832 0 0 0-.5907241 0 .52916664.52916664 0 0 0-.3997951-.38806 4.153167 4.153167 0 0 0-2.057659.0708.74998771.74998771 0 0 0-.50815397.93336 3.1120821 3.1120821 0 0 0 .12366197.34173 1.4181667 1.4181667 0 0 0 2.335457.41269 1.9289292 1.9289292 0 0 0 .5106681-1.08998.72489989.72489989 0 0 1 .582366 0 1.9289292 1.9289292 0 0 0 .510668 1.08998 1.4181667 1.4181667 0 0 0 2.3354558-.41269 3.1120821 3.1120821 0 0 0 .1236631-.34173.74998771.74998771 0 0 0-.508154-.93336 4.153167 4.153167 0 0 0-2.0576589-.0708z" fill="#1e1e1e" class="color000000 svgShape"></path>
    <path fill="url(#c)" d="m 3.2388709,293.29502 a 1.6643458,1.6643458 0 0 0 0.449988,-1.04503 0.26458336,0.26458336 0 0 0 -0.207409,-0.2737 3.8885836,3.8885836 0 0 0 -1.9265749,0.0663 0.48540435,0.48540435 0 0 0 -0.328888,0.60409 2.8474988,2.8474988 0 0 0 0.113148,0.31268 1.1535833,1.1535833 0 0 0 1.8997359,0.33569 z"></path>
    <path fill="url(#d)" d="m 1.4881242,292.06798 a 0.48540435,0.48540435 0 0 0 -0.2619997,0.57877 2.8474988,2.8474988 0 0 0 0.1131716,0.31264 1.1535833,1.1535833 0 0 0 1.8551838,0.37931 1.1535833,1.1535833 0 0 1 -1.6789673,-0.51676 2.8474988,2.8474988 0 0 1 -0.1131713,-0.31265 0.48540435,0.48540435 0 0 1 0.085783,-0.44131 z"></path>
    <path d="M1.617165 293.16108l.848207-.52672H1.963826l-.489197.30378a1.0212916 1.0212916 0 0 0 .142536.22294zM1.464814 292.23748a.35311265.35311265 0 0 0-.126582.26458h2.1810279a1.5320542 1.5320542 0 0 0 .03753-.2597.13229168.13229168 0 0 0 0-.005zM.84136303 292.55339a.13229348.13229348 0 0 1-.121752.23491.35277923.35277923 0 0 1 0-.62642.13229185.13229185 0 0 1 .121752.2349.08819588.08819588 0 0 0 0 .15661zM7.4435978 293.21855l.3068222.19053a.13229206.13229206 0 0 1-.139582.22477l-.3087542-.19173a1.5504583 1.5504583 0 0 0 .141514-.22357zM7.6253009 292.55339a.13229348.13229348 0 0 0 .121752.23491.35277923.35277923 0 0 0 0-.62642.13229185.13229185 0 0 0-.121752.2349.08819588.08819588 0 0 1 0 .15661z" fill="#1e1e1e" class="color000000 svgShape"></path>
    <path fill="#9ea3fa" d="m 5.2277932,293.29502 a 1.6643458,1.6643458 0 0 1 -0.4499883,-1.04503 0.26458336,0.26458336 0 0 1 0.2074082,-0.2737 3.8885836,3.8885836 0 0 1 1.9265759,0.0663 0.48540435,0.48540435 0 0 1 0.3288869,0.60409 2.8474988,2.8474988 0 0 1 -0.113148,0.31268 1.1535833,1.1535833 0 0 1 -1.8997347,0.33569 z" class="colorba68c8 svgShape"></path>
    <path fill="url(#e)" d="m 4.9819683,291.97703 a 0.26458336,0.26458336 0 0 0 -0.2041234,0.27285 1.6643458,1.6643458 0 0 0 0.4501038,1.04489 v 5.3e-4 a 1.1535833,1.1535833 0 0 0 1.6329739,0.046 1.1535833,1.1535833 0 0 1 -1.4567587,-0.18346 1.6643458,1.6643458 0 0 1 -0.4501012,-1.04541 0.26458336,0.26458336 0 0 1 0.028422,-0.13539 0.26458336,0.26458336 0 0 0 -5.292e-4,0 z"></path>
    <path d="M6.992035 292.93814a1.0212916 1.0212916 0 0 1-.1425361.22294L5.788254 292.50206H4.9474042a1.5320542 1.5320542 0 0 1-.03753-.2597.13229168.13229168 0 0 1 0-.005h.954033zM7.00185 292.23748a.35311265.35311265 0 0 1 .1265809.26458h-.587861l-.4260811-.26458z" fill="#1e1e1e" class="color000000 svgShape"></path>
  </g>
</svg>
