<svg xmlns="http://www.w3.org/2000/svg" viewBox="0 0 64 64" id="hoodie">
  <path fill="#f5d593" d="M33.43,20.02l1.31,3.31c.87,2.2-.57,4.69-2.72,4.67h-.09c-2.15-.02-3.56-2.52-2.65-4.71.45-1.1.9-2.19,1.35-3.29a1.47524,1.47524,0,0,1,2.8.02Z" class="colore6ecf4 svgShape"></path>
  <path fill="#f5d593" d="M13,45.36V56H1V25.89a16.163,16.163,0,0,1,6.66-12.8A45.80668,45.80668,0,0,1,13,34.57Z" class="color05c9b1 svgShape"></path>
  <path fill="#5e5e5e" d="M13,58v2.04a.96025.96025,0,0,1-.96.96H2.96A.96025.96025,0,0,1,2,60.04V56H13Z" class="color04b8a1 svgShape"></path>
  <path fill="#f5d593" d="M63,25.89V56H51V34.57a45.84627,45.84627,0,0,1,5.34-21.49A16.18161,16.18161,0,0,1,63,25.89Z" class="color05c9b1 svgShape"></path>
  <path fill="#5e5e5e" d="M62,56v4.04a.96025.96025,0,0,1-.96.96H51.96a.96025.96025,0,0,1-.96-.96V56Z" class="color04b8a1 svgShape"></path>
  <path fill="#f5d593" d="M48 58v3.52A1.44208 1.44208 0 0146.6 63H32V58zM32 58v5H17.4A1.44208 1.44208 0 0116 61.52V58z" class="color05c9b1 svgShape"></path>
  <path fill="#da9c1d" d="M30.63,20c-.45,1.1-.9,2.19-1.35,3.29-.91,2.19.5,4.69,2.65,4.71H32v9H23l-6,7v9.12a.87494.87494,0,0,0,.88.88H32v4H13V34.57A45.80668,45.80668,0,0,0,7.66,13.09,20.2417,20.2417,0,0,1,14.8,9.61c.51-.14,1.02-.28,1.53-.41a4.14086,4.14086,0,0,0,1.78,1.99c1.27.72,3.01,1.69,4.89,2.74,3.1,1.75,6.59,3.72,9,5.07A1.51345,1.51345,0,0,0,30.63,20Z" class="color1ddabd svgShape"></path>
  <path fill="#eccd8e" d="M32,37V54H17.88a.87494.87494,0,0,1-.88-.88V49q5.505-6,11-12Z" class="color8eecde svgShape"></path>
  <path fill="#e3b556" d="M28,37q-5.505,6-11,12V44l6-7Z" class="color56e3ce svgShape"></path>
  <path fill="#eccd8e" d="M47,49v4.12a.87494.87494,0,0,1-.88.88H32V37h4Q41.505,43,47,49Z" class="color8eecde svgShape"></path>
  <path fill="#e3b556" d="M47,44v5q-5.505-6-11-12h5Z" class="color56e3ce svgShape"></path>
  <path fill="#da9c1d" d="M51,56v2H32V54H46.12a.87494.87494,0,0,0,.88-.88V44l-6-7H32V28h.02c2.15.02,3.59-2.47,2.72-4.67l-1.31-3.31A1.5072,1.5072,0,0,0,32,19c2.41-1.35,5.9-3.32,9-5.07,1.88-1.05,3.62-2.02,4.89-2.74A4.14086,4.14086,0,0,0,47.67,9.2c.51.13,1.02.27,1.53.41a20.22454,20.22454,0,0,1,7.14,3.47A45.84627,45.84627,0,0,0,51,34.57V56Z" class="color1ddabd svgShape"></path>
  <path fill="#e3b556" d="M45.95,2.98A3.6876,3.6876,0,0,1,48,6.29V7.57a4.27487,4.27487,0,0,1-.33,1.63,4.14086,4.14086,0,0,1-1.78,1.99c-1.27.72-3.01,1.69-4.89,2.74-3.1,1.75-6.59,3.72-9,5.07L39.76,8,44,2C44.65,2.33,45.3,2.65,45.95,2.98Z" class="color56e3ce svgShape"></path>
  <path fill="#f5d593" d="M39.76,8,32,19,24.24,8Z" class="color05c9b1 svgShape"></path>
  <path fill="#da9c1d" d="M44,2,39.76,8H24.24L20,2A72.5,72.5,0,0,1,44,2Z" class="color1ddabd svgShape"></path>
  <path fill="#e3b556" d="M24.24,8,32,19c-2.41-1.35-5.9-3.32-9-5.07-1.88-1.05-3.62-2.02-4.89-2.74A4.14086,4.14086,0,0,1,16.33,9.2,4.27487,4.27487,0,0,1,16,7.57V6.29a3.6876,3.6876,0,0,1,2.05-3.31c.65-.33,1.3-.65,1.95-.98Z" class="color56e3ce svgShape"></path>
  <path d="M51,59H13a.99943.99943,0,0,1-1-1V34.57031A45.0216,45.0216,0,0,0,6.77637,13.55859a1.00041,1.00041,0,1,1,1.76758-.9375A47.03434,47.03434,0,0,1,14,34.57031V57H50V34.57031a47.05269,47.05269,0,0,1,5.456-21.959,1.00041,1.00041,0,1,1,1.76758.9375A45.04,45.04,0,0,0,52,34.57031V58A.99943.99943,0,0,1,51,59Z" fill="#1e1e1e" class="color000000 svgShape"></path>
  <path d="M46.60254 64H17.39746A2.44536 2.44536 0 0115 61.51465V58a1 1 0 012 0v3.51465A.45416.45416 0 0017.39746 62H46.60254A.45416.45416 0 0047 61.51465V58a1 1 0 012 0v3.51465A2.44536 2.44536 0 0146.60254 64zM13 57H1a.99943.99943 0 01-1-1V25.88965A17.16043 17.16043 0 017.05371 12.29492 21.13845 21.13845 0 0114.542 8.64453c.50781-.14062 1.02539-.28223 1.541-.41308a.99976.99976 0 11.49414 1.9375c-.50391.1289-1.00781.2666-1.51172.40527a19.17606 19.17606 0 00-6.7959 3.30859A15.18057 15.18057 0 002 25.88965V55H12V45.36035a1 1 0 012 0V56A.99943.99943 0 0113 57zM63 57H51a.99943.99943 0 01-1-1V45.36035a1 1 0 012 0V55H62V25.88965A15.18886 15.18886 0 0055.7334 13.875a19.1546 19.1546 0 00-6.791-3.29883c-.51172-.14062-1.01562-.27832-1.51953-.40722a.99976.99976 0 11.49414-1.9375c.51563.13085 1.03321.27246 1.54883.415a21.12444 21.12444 0 017.4834 3.64063A17.16883 17.16883 0 0164 25.88965V56A.99943.99943 0 0163 57z" fill="#1e1e1e" class="color000000 svgShape"></path>
  <path d="M12.044 62H2.95605A1.95884 1.95884 0 011 60.044V56a1 1 0 012 0v4.044L12.044 60 12 58a1 1 0 012 0v2.044A1.95884 1.95884 0 0112.044 62zM61.044 62h-9.0879A1.95884 1.95884 0 0150 60.044V58a1 1 0 012 0v2.044L61.044 60 61 56a1 1 0 012 0v4.044A1.95884 1.95884 0 0161.044 62zM46.12305 55.001H17.877A1.87883 1.87883 0 0116 53.124V44.001a.99436.99436 0 01.24121-.65039l6-7A.99837.99837 0 0123 36.001H41a.99837.99837 0 01.75879.34961l6 7A.99436.99436 0 0148 44.001v9.123A1.87883 1.87883 0 0146.12305 55.001zM18 53.001H46V44.37109L40.54 38.001H23.46L18 44.37109zM32 20a.997.997 0 01-.49023-.12891l-13.88868-7.8125A5.15416 5.15416 0 0115 7.56934V6.292a4.68639 4.68639 0 012.60156-4.21191l1.95117-.97461a1.00012 1.00012 0 11.89454 1.78906l-1.95118.97461A2.69659 2.69659 0 0017 6.292V7.56934a3.15375 3.15375 0 001.60156 2.74707L32 17.85254l13.39844-7.53613A3.15375 3.15375 0 0047 7.56934V6.292a2.69488 2.69488 0 00-1.498-2.42285l-1.94922-.97461a1.00012 1.00012 0 01.89454-1.78906l1.94921.97461A4.68468 4.68468 0 0149 6.292V7.56934a5.15416 5.15416 0 01-2.62109 4.48925l-13.88868 7.8125A.997.997 0 0132 20z" fill="#1e1e1e" class="color000000 svgShape"></path>
  <path d="M32,20a1.00222,1.00222,0,0,1-.81738-.42285l-12-17A1.00086,1.00086,0,0,1,19.835,1.01367a73.77167,73.77167,0,0,1,24.33106,0,1.001,1.001,0,0,1,.65136,1.56348l-12,17A1.00222,1.00222,0,0,1,32,20ZM21.74609,2.73926,32,17.26562,42.25391,2.73926A71.788,71.788,0,0,0,21.74609,2.73926Z" fill="#1e1e1e" class="color000000 svgShape"></path>
  <path d="M39.75977 9H24.24023a1 1 0 110-2H39.75977a1 1 0 010 2zM23 30a.99943.99943 0 01-1-1V11a1 1 0 012 0V29A.99943.99943 0 0123 30zM41 30a.99943.99943 0 01-1-1V11a1 1 0 012 0V29A.99943.99943 0 0141 30zM32 64a.99943.99943 0 01-1-1V28a1 1 0 012 0V63A.99943.99943 0 0132 64zM17 50.001a1 1 0 01-.7373-1.67578l11-12a1.00014 1.00014 0 111.4746 1.35156l-11 12A.99831.99831 0 0117 50.001zM47 50.001a.99831.99831 0 01-.7373-.32422l-11-12a1.00014 1.00014 0 111.4746-1.35156l11 12A1 1 0 0147 50.001z" fill="#1e1e1e" class="color000000 svgShape"></path>
  <path d="M32.041,29h-.0254a3.85183,3.85183,0,0,1-3.25878-1.77441,4.61388,4.61388,0,0,1-.4043-4.31641L29.709,19.62109A2.50689,2.50689,0,0,1,32.0293,18h.01758a2.50452,2.50452,0,0,1,2.31542,1.6543l1.30958,3.30664a4.60876,4.60876,0,0,1-.46583,4.30957A3.81281,3.81281,0,0,1,32.041,29Zm-.01075-9a.5331.5331,0,0,0-.47168.38477h0l-1.35644,3.28711a2.64941,2.64941,0,0,0,.2207,2.44726,1.8451,1.8451,0,0,0,1.51367.87988h.0166a1.889,1.889,0,0,0,1.60254-.85742,2.64955,2.64955,0,0,0,.25684-2.44433l-1.30957-3.30665A.51988.51988,0,0,0,32.03027,20Zm-1.39648.00293h0Z" fill="#1e1e1e" class="color000000 svgShape"></path>
  <path d="M32.01758,26.001a1,1,0,0,1-.00977-2h.00977a1,1,0,0,1,0,2Z" fill="#1e1e1e" class="color000000 svgShape"></path>
</svg>
