<svg xmlns="http://www.w3.org/2000/svg" viewBox="0 0 32 32" id="original-tag">
  <path fill="#e23342" d="M21.5,21.208v9.328a1,1,0,0,1-1.588.809l-3.324-2.417a1,1,0,0,0-1.176,0l-3.324,2.417a1,1,0,0,1-1.588-.809V21.208Z"></path>
  <path fill="#fdd331" d="M27.5,12c0,.971-1.407,1.745-1.647,2.641-.248.927.577,2.3.107,3.111s-2.081.792-2.75,1.46-.637,2.273-1.46,2.749-2.184-.355-3.11-.108c-.9.239-1.669,1.647-2.641,1.647s-1.745-1.407-2.641-1.647c-.927-.248-2.3.577-3.111.107s-.792-2.081-1.46-2.75-2.273-.637-2.749-1.46.355-2.184.108-3.11C5.907,13.745,4.5,12.971,4.5,12s1.407-1.745,1.647-2.641c.248-.927-.577-2.3-.107-3.111s2.081-.792,2.75-1.46.637-2.273,1.46-2.749,2.184.355,3.11.108C14.255,1.907,15.029.5,16,.5s1.745,1.407,2.641,1.647c.927.248,2.3-.577,3.111-.107s.792,2.081,1.46,2.75,2.273.637,2.749,1.46-.355,2.184-.108,3.11C26.093,10.255,27.5,11.029,27.5,12Z"></path>
  <circle cx="16" cy="12" r="7.5" fill="#f59831"></circle>
  <path fill="#17894b" d="M17.532,10.232,14.7,13.061,14,12.354a1,1,0,0,0-1.414,0h0a1,1,0,0,0,0,1.414l.707.707.707.707a1,1,0,0,0,1.414,0l.707-.707,2.828-2.828a1,1,0,0,0,0-1.414h0A1,1,0,0,0,17.532,10.232Z"></path>
</svg>
